<svg width="126" height="42" viewBox="0 0 126 42" fill="none" xmlns="http://www.w3.org/2000/svg">
<g clip-path="url(#clip0_697_6862)">
<path d="M39.6101 19.26H4.87005C4.22005 19.26 3.68005 19.79 3.68005 20.45V22.13C3.68005 22.78 4.21005 23.31 4.87005 23.31H39.6001C40.2501 23.31 40.7901 22.78 40.7901 22.13V20.45C40.7901 19.79 40.2601 19.26 39.6101 19.26Z" fill="white"/>
<path d="M24.6101 26.02C24.3801 25.76 24.0601 25.61 23.7101 25.61H20.7101C20.3601 25.61 20.0401 25.76 19.8101 26.02L10.6701 36.62C10.4601 36.86 10.3601 37.17 10.3901 37.48C10.4101 37.8 10.5601 38.08 10.8001 38.29L12.0801 39.39C12.2901 39.58 12.5701 39.68 12.8501 39.68C13.2001 39.68 13.5201 39.53 13.7501 39.27L21.5201 30.27C21.6901 30.07 21.9501 29.95 22.2201 29.95C22.4901 29.95 22.7401 30.07 22.9201 30.27L30.6901 39.32C30.9101 39.58 31.2401 39.73 31.5901 39.73C31.8701 39.73 32.1501 39.63 32.3601 39.44L33.6401 38.34C33.8801 38.13 34.0301 37.85 34.0501 37.53C34.0701 37.21 33.9701 36.91 33.7701 36.67L24.6101 26.02Z" fill="white"/>
<path d="M22.8301 35.1801H21.5801C21.0901 35.1801 20.6901 35.5801 20.6901 36.0701V41.1201C20.6901 41.6101 21.0901 42.0101 21.5801 42.0101H22.8301C23.3201 42.0101 23.7201 41.6101 23.7201 41.1201V36.0701C23.7201 35.5801 23.3201 35.1801 22.8301 35.1801Z" fill="white"/>
<path d="M21.5701 4.61H22.8401C23.3301 4.61 23.7301 4.21 23.7301 3.72V0.89C23.7301 0.4 23.3301 0 22.8401 0H21.5701C21.0801 0 20.6801 0.4 20.6801 0.89V3.73C20.6801 4.21 21.0801 4.61 21.5701 4.61Z" fill="#EE3B79"/>
<path d="M14.24 27.05L13.54 26.01C13.27 25.6 12.72 25.49 12.31 25.77L6.70002 29.53C6.29002 29.8 6.18002 30.35 6.46002 30.76L7.16002 31.8C7.43002 32.21 7.98002 32.31 8.39002 32.04L14 28.28C14.41 28 14.51 27.45 14.24 27.05Z" fill="#41BBEC"/>
<path d="M30.9 15.9001C31.17 16.3101 31.72 16.4101 32.13 16.1401L37.75 12.3801C38.16 12.1101 38.27 11.5601 37.99 11.1501L37.29 10.1101C37.02 9.70006 36.47 9.59006 36.06 9.87006L30.44 13.6301C30.03 13.9001 29.92 14.4501 30.2 14.8601L30.9 15.9001Z" fill="white"/>
<path d="M37.7801 29.5701L32.1601 25.8101C31.7501 25.5401 31.2001 25.6501 30.9301 26.0501L30.2301 27.0901C29.9601 27.5001 30.0701 28.0501 30.4701 28.3201L36.0901 32.0801C36.5001 32.3501 37.0501 32.2401 37.3201 31.8401L38.0201 30.8001C38.3001 30.4001 38.1901 29.8501 37.7801 29.5701Z" fill="#FEDA16"/>
<path d="M6.72006 12.4L12.3401 16.16C12.7501 16.43 13.3001 16.32 13.5701 15.92L14.2701 14.88C14.5401 14.47 14.4301 13.92 14.0301 13.65L8.41006 9.89C8.00006 9.62 7.45006 9.73 7.17006 10.14L6.47006 11.18C6.21006 11.58 6.32006 12.13 6.72006 12.4Z" fill="white"/>
<path d="M22.21 9.75996C23.44 9.75996 24.4401 10.76 24.4401 11.99C24.4401 13.22 23.44 14.22 22.21 14.22C20.98 14.22 19.98 13.22 19.98 11.99C19.98 10.76 20.98 9.75996 22.21 9.75996ZM22.21 17.4C25.2 17.4 27.6201 14.98 27.6201 11.99C27.6201 8.99996 25.2 6.57996 22.21 6.57996C19.22 6.57996 16.8 8.99996 16.8 11.99C16.8 14.98 19.22 17.4 22.21 17.4Z" fill="white"/>
<path d="M72.8101 14.48C72.8101 14.48 70.9301 14.48 70.8801 14.48C70.3601 14.48 70.4201 15 70.4201 15C70.4201 15.46 70.3901 20.37 70.3701 22.21C70.3301 23.57 69.6701 24.72 68.5301 25.25C67.1001 25.91 64.8601 25.66 64.7301 23.35C64.7101 22.99 64.6601 15.13 64.6601 15.02C64.6601 14.75 64.5601 14.48 64.1401 14.48H62.3001C61.8001 14.48 61.7501 14.81 61.7501 15.12C61.7501 17.33 61.7401 19.88 61.7601 22.08C61.7701 22.83 61.7601 23.6 61.8701 24.33C62.1701 26.44 63.4001 27.66 65.3401 28.14C67.4101 28.66 69.8201 27.87 70.9901 26.43C71.0201 26.51 71.4401 27.58 71.4901 27.69C71.6001 27.94 71.7001 28.03 71.9401 28.03H72.9601C73.3101 28.03 73.3001 27.76 73.3001 27.58C73.3301 23.61 73.3301 18.92 73.3301 14.95C73.3301 14.67 73.1801 14.48 72.8101 14.48Z" fill="white"/>
<path d="M58.75 23.71C58.46 23.48 58.21 23.57 58.03 23.79C57.98 23.85 56.42 25.84 53.91 25.45C51.81 25.13 50.62 23.43 50.58 21.3C50.54 19.4 51.56 17.9 53.04 17.32C53.96 16.96 55.59 16.86 56.84 17.7C57.03 17.82 57.47 18.17 57.65 18.33C57.84 18.5 58.04 18.67 58.38 18.44C58.57 18.3 59.19 17.78 59.58 17.43C60.04 17.01 59.75 16.73 59.38 16.31C57.9 14.6 55.62 14.06 53.63 14.3C50.47 14.68 48.17 17.02 47.83 20.37C47.53 23.43 48.86 26.47 51.79 27.7C52.81 28.13 53.71 28.23 54.56 28.24C57.2 28.27 58.99 26.64 59.8 25.62C60.05 25.3 60.13 25.06 59.9 24.81C59.68 24.58 58.81 23.76 58.75 23.71Z" fill="white"/>
<path d="M100.92 9.00994C96.9901 8.60994 95.7101 10.4899 95.7801 13.5499V14.4899C95.7501 14.4899 94.2501 14.4899 94.1801 14.4899C93.7701 14.4899 93.6201 14.6899 93.6201 14.9799V16.5599C93.6201 16.8999 93.7901 17.0099 94.0901 17.0099C94.2501 17.0099 95.7901 17.0099 95.7901 17.0099C95.7901 18.4499 95.7901 19.9999 95.7901 21.3499C95.7901 23.2699 95.7901 27.1199 95.7901 27.5199C95.7901 28.0199 96.0601 28.0699 96.3201 28.0699C96.7101 28.0699 97.8001 28.0699 98.1901 28.0699C98.6601 28.0699 98.7301 27.7599 98.7301 27.4299V16.9899H100.95C101.21 16.9899 101.38 16.8699 101.38 16.4999V14.9199C101.38 14.5699 101.16 14.4799 100.89 14.4799H98.7301V13.2499C98.7301 12.8199 98.5901 11.4099 100.59 11.5499C100.73 11.5599 100.86 11.5799 101 11.5799C101.26 11.5799 101.46 11.4199 101.46 11.1099L101.49 9.57994C101.49 9.30994 101.39 9.04994 100.92 9.00994Z" fill="white"/>
<path d="M109.21 9.64001C109.21 9.14001 109.54 9.01001 109.87 9.01001C110.25 9.01001 111.24 9.01001 111.62 9.01001C112.15 9.01001 112.22 9.45001 112.22 9.69001V14.49H114.91C115.24 14.49 115.38 14.7 115.38 14.98V16.52C115.38 16.87 115.15 17 114.83 17H112.22V23.3C112.22 23.88 112.22 25.32 113.72 25.34C113.86 25.34 114.29 25.35 114.48 25.35C114.86 25.36 115.02 25.7 115.07 25.9L115.44 27.63C115.48 27.91 115.26 28.05 115.04 28.06C114.08 28.1 113.3 28.09 112.65 27.99C110.4 27.64 109.23 26.29 109.23 23.71C109.23 23.69 109.21 10.04 109.21 9.64001Z" fill="white"/>
<path d="M81.98 9.64001C81.98 9.14001 82.31 9.01001 82.64 9.01001C83.02 9.01001 84.01 9.01001 84.39 9.01001C84.92 9.01001 84.99 9.45001 84.99 9.69001V14.49H87.68C88.01 14.49 88.15 14.7 88.15 14.98V16.52C88.15 16.87 87.92 17 87.6 17H85V23.3C85 23.88 85 25.32 86.5 25.34C86.65 25.34 87.07 25.35 87.26 25.35C87.64 25.36 87.8 25.7 87.85 25.9L88.22 27.63C88.26 27.91 88.04 28.05 87.82 28.06C86.86 28.1 86.08 28.09 85.43 27.99C83.18 27.64 82.01 26.29 82.01 23.71C81.99 23.69 81.98 10.04 81.98 9.64001Z" fill="white"/>
<path d="M105.77 14.48H104.02C103.69 14.48 103.42 14.66 103.42 15.04V27.45C103.42 27.78 103.69 28.05 104.02 28.05H105.77C106.1 28.05 106.37 27.78 106.37 27.45V15.08C106.36 14.68 106.1 14.48 105.77 14.48Z" fill="white"/>
<path d="M78.5202 9.01001H76.7702C76.4402 9.01001 76.1702 9.19001 76.1702 9.57001V27.45C76.1702 27.78 76.4402 28.05 76.7702 28.05H78.5202C78.8502 28.05 79.1202 27.78 79.1202 27.45V9.60001C79.1202 9.20001 78.8502 9.01001 78.5202 9.01001Z" fill="white"/>
<path d="M104.27 12.45H105.51C105.99 12.45 106.38 12.06 106.38 11.58V9.88001C106.38 9.40001 105.99 9.01001 105.51 9.01001H104.27C103.79 9.01001 103.4 9.40001 103.4 9.88001V11.59C103.4 12.06 103.79 12.45 104.27 12.45Z" fill="white"/>
<path d="M91.2201 28.05H92.4601C92.9401 28.05 93.3301 27.66 93.3301 27.18V25.47C93.3301 24.99 92.9401 24.6 92.4601 24.6H91.2201C90.7401 24.6 90.3501 24.99 90.3501 25.47V27.18C90.3501 27.66 90.7401 28.05 91.2201 28.05Z" fill="white"/>
</g>
<defs>
<clipPath id="clip0_697_6862">
<rect width="126" height="42" fill="white"/>
</clipPath>
</defs>
</svg>
