<svg width="120" height="12" viewBox="0 0 120 12" fill="none" xmlns="http://www.w3.org/2000/svg">
<path fill-rule="evenodd" clip-rule="evenodd" d="M0 6.0335C0 9.0165 2.1665 11.497 5 12V7.6665H3.5V6H5V4.6665C5 3.1665 5.9665 2.3335 7.3335 2.3335C7.7665 2.3335 8.2335 2.4 8.6665 2.4665V4H7.9C7.1665 4 7 4.3665 7 4.8335V6H8.6L8.3335 7.6665H7V12C9.8335 11.497 12 9.017 12 6.0335C12 2.715 9.3 0 6 0C2.7 0 0 2.715 0 6.0335Z" fill="#A2A2A2"/>
<path fill-rule="evenodd" clip-rule="evenodd" d="M39.7325 0.533C40.319 0.506 40.506 0.5 42 0.5C43.494 0.5 43.681 0.5065 44.267 0.533C44.853 0.5595 45.253 0.653 45.603 0.7885C45.9695 0.927 46.302 1.1435 46.577 1.4235C46.857 1.698 47.073 2.03 47.211 2.397C47.347 2.747 47.44 3.147 47.467 3.732C47.494 4.3195 47.5 4.5065 47.5 6C47.5 7.494 47.4935 7.681 47.467 8.2675C47.4405 8.8525 47.347 9.2525 47.211 9.6025C47.073 9.96955 46.8566 10.3021 46.577 10.577C46.302 10.857 45.9695 11.073 45.603 11.211C45.253 11.347 44.853 11.44 44.268 11.467C43.681 11.494 43.494 11.5 42 11.5C40.506 11.5 40.319 11.4935 39.7325 11.467C39.1475 11.4405 38.7475 11.347 38.3975 11.211C38.0305 11.073 37.6979 10.8566 37.423 10.577C37.1432 10.3023 36.9267 9.96994 36.7885 9.603C36.653 9.253 36.56 8.853 36.533 8.268C36.506 7.6805 36.5 7.4935 36.5 6C36.5 4.506 36.5065 4.319 36.533 3.733C36.5595 3.147 36.653 2.747 36.7885 2.397C36.9269 2.03004 37.1436 1.69766 37.4235 1.423C37.698 1.14325 38.0302 0.926722 38.397 0.7885C38.747 0.653 39.147 0.56 39.732 0.533H39.7325ZM44.2225 1.523C43.6425 1.4965 43.4685 1.491 42 1.491C40.5315 1.491 40.3575 1.4965 39.7775 1.523C39.241 1.5475 38.95 1.637 38.756 1.7125C38.4995 1.8125 38.316 1.931 38.1235 2.1235C37.941 2.30103 37.8006 2.51714 37.7125 2.756C37.637 2.95 37.5475 3.241 37.523 3.7775C37.4965 4.3575 37.491 4.5315 37.491 6C37.491 7.4685 37.4965 7.6425 37.523 8.2225C37.5475 8.759 37.637 9.05 37.7125 9.244C37.8005 9.4825 37.941 9.699 38.1235 9.8765C38.301 10.059 38.5175 10.1995 38.756 10.2875C38.95 10.363 39.241 10.4525 39.7775 10.477C40.3575 10.5035 40.531 10.509 42 10.509C43.469 10.509 43.6425 10.5035 44.2225 10.477C44.759 10.4525 45.05 10.363 45.244 10.2875C45.5005 10.1875 45.684 10.069 45.8765 9.8765C46.059 9.699 46.1995 9.4825 46.2875 9.244C46.363 9.05 46.4525 8.759 46.477 8.2225C46.5035 7.6425 46.509 7.4685 46.509 6C46.509 4.5315 46.5035 4.3575 46.477 3.7775C46.4525 3.241 46.363 2.95 46.2875 2.756C46.1875 2.4995 46.069 2.316 45.8765 2.1235C45.699 1.94104 45.4829 1.80061 45.244 1.7125C45.05 1.637 44.759 1.5475 44.2225 1.523ZM41.2975 7.6955C41.6898 7.85882 42.1267 7.88086 42.5335 7.75786C42.9402 7.63486 43.2917 7.37446 43.5278 7.02112C43.7639 6.66778 43.87 6.24344 43.828 5.82055C43.786 5.39767 43.5985 5.00249 43.2975 4.7025C43.1056 4.51074 42.8736 4.36391 42.6182 4.27257C42.3627 4.18124 42.0902 4.14768 41.8202 4.17431C41.5503 4.20094 41.2896 4.28709 41.0569 4.42657C40.8242 4.56604 40.6254 4.75537 40.4747 4.98093C40.3239 5.20648 40.2251 5.46264 40.1853 5.73098C40.1454 5.99932 40.1656 6.27315 40.2443 6.53276C40.323 6.79237 40.4582 7.0313 40.6404 7.23236C40.8225 7.43342 41.0469 7.59159 41.2975 7.6955ZM40.001 4.001C40.2635 3.73849 40.5752 3.53025 40.9181 3.38818C41.2611 3.24611 41.6288 3.17299 42 3.17299C42.3712 3.17299 42.7389 3.24611 43.0819 3.38818C43.4248 3.53025 43.7365 3.73849 43.999 4.001C44.2615 4.26351 44.4697 4.57516 44.6118 4.91815C44.7539 5.26114 44.827 5.62875 44.827 6C44.827 6.37125 44.7539 6.73886 44.6118 7.08185C44.4697 7.42484 44.2615 7.73649 43.999 7.999C43.4688 8.52917 42.7498 8.82701 42 8.82701C41.2502 8.82701 40.5312 8.52917 40.001 7.999C39.4708 7.46883 39.173 6.74977 39.173 6C39.173 5.25023 39.4708 4.53117 40.001 4.001ZM45.454 3.594C45.5191 3.53263 45.5711 3.45884 45.6072 3.37699C45.6432 3.29513 45.6624 3.20688 45.6637 3.11747C45.665 3.02805 45.6484 2.93927 45.6147 2.85641C45.5811 2.77354 45.5312 2.69826 45.468 2.63502C45.4047 2.57178 45.3295 2.52188 45.2466 2.48826C45.1637 2.45464 45.075 2.43799 44.9855 2.43929C44.8961 2.4406 44.8079 2.45983 44.726 2.49585C44.6442 2.53187 44.5704 2.58395 44.509 2.649C44.3897 2.77551 44.3243 2.94356 44.3269 3.11747C44.3294 3.29137 44.3996 3.45744 44.5226 3.58042C44.6456 3.7034 44.8116 3.77361 44.9855 3.77615C45.1594 3.77868 45.3275 3.71334 45.454 3.594Z" fill="#A2A2A2"/>
<path d="M83.8215 2.46848C83.404 2.65348 82.9555 2.77848 82.484 2.83498C82.9705 2.54387 83.3345 2.08571 83.508 1.54598C83.0509 1.81747 82.5507 2.00858 82.029 2.11098C81.6782 1.73641 81.2135 1.48814 80.7072 1.40471C80.2008 1.32129 79.6811 1.40737 79.2286 1.6496C78.7762 1.89183 78.4164 2.27666 78.2051 2.74433C77.9938 3.212 77.9428 3.73635 78.06 4.23598C77.1338 4.18948 76.2278 3.94875 75.4007 3.52943C74.5736 3.11011 73.8439 2.52156 73.259 1.80198C73.059 2.14698 72.944 2.54698 72.944 2.97298C72.9438 3.35648 73.0382 3.7341 73.2189 4.07234C73.3997 4.41059 73.6611 4.699 73.98 4.91198C73.6101 4.90021 73.2484 4.80027 72.925 4.62048V4.65048C72.925 5.18835 73.111 5.70967 73.4516 6.12598C73.7922 6.54228 74.2663 6.82794 74.7935 6.93448C74.4504 7.02734 74.0907 7.04101 73.7415 6.97448C73.8903 7.43728 74.18 7.84199 74.5702 8.13194C74.9604 8.42189 75.4315 8.58257 75.9175 8.59148C75.0924 9.23918 74.0734 9.59052 73.0245 9.58898C72.8387 9.58903 72.653 9.57818 72.4685 9.55648C73.5332 10.2411 74.7727 10.6044 76.0385 10.603C80.3235 10.603 82.666 7.05398 82.666 3.97598C82.666 3.87598 82.6635 3.77498 82.659 3.67498C83.1147 3.34546 83.508 2.93743 83.8205 2.46998L83.8215 2.46848Z" fill="#A2A2A2"/>
<g clip-path="url(#clip0_491_5626)">
<path d="M119.75 3.25348C119.682 3.01109 119.55 2.79165 119.367 2.61848C119.179 2.43998 118.949 2.31229 118.698 2.24748C117.759 1.99998 113.997 1.99998 113.997 1.99998C112.429 1.98213 110.861 2.06061 109.302 2.23498C109.051 2.30458 108.821 2.43512 108.633 2.61498C108.448 2.79298 108.314 3.01248 108.244 3.25298C108.076 4.15885 107.994 5.07865 108 5.99998C107.994 6.92048 108.075 7.83998 108.244 8.74698C108.312 8.98648 108.446 9.20498 108.631 9.38148C108.817 9.55798 109.048 9.68548 109.302 9.75298C110.253 9.99998 113.997 9.99998 113.997 9.99998C115.567 10.0178 117.137 9.93936 118.698 9.76498C118.949 9.70016 119.179 9.57248 119.367 9.39398C119.552 9.21748 119.683 8.99798 119.749 8.75898C119.922 7.85345 120.006 6.93327 120 6.01148C120.013 5.08578 119.929 4.16126 119.75 3.25298V3.25348ZM112.801 7.71198V4.28848L115.931 6.00048L112.801 7.71198Z" fill="#A2A2A2"/>
</g>
<defs>
<clipPath id="clip0_491_5626">
<rect width="12" height="12" fill="white" transform="translate(108)"/>
</clipPath>
</defs>
</svg>
