<svg width="23" height="24" viewBox="0 0 23 24" fill="none" xmlns="http://www.w3.org/2000/svg">
<path d="M0 2C0 0.89543 0.895431 0 2 0H21C22.1046 0 23 0.895431 23 2V22C23 23.1046 22.1046 24 21 24H2C0.89543 24 0 23.1046 0 22V2Z" fill="#F4F3F3"/>
<path d="M17.5367 10.6944H16.9997V10.6667H10.9997V13.3334H14.7673C14.2177 14.8857 12.7407 16 10.9997 16C8.79067 16 6.99967 14.209 6.99967 12C6.99967 9.79104 8.79067 8.00004 10.9997 8.00004C12.0193 8.00004 12.947 8.38471 13.6533 9.01304L15.539 7.12737C14.3483 6.01771 12.7557 5.33337 10.9997 5.33337C7.31801 5.33337 4.33301 8.31837 4.33301 12C4.33301 15.6817 7.31801 18.6667 10.9997 18.6667C14.6813 18.6667 17.6663 15.6817 17.6663 12C17.6663 11.553 17.6203 11.1167 17.5367 10.6944Z" fill="#FFC107"/>
<path d="M5.10156 8.89704L7.2919 10.5034C7.88456 9.03604 9.3199 8.00004 10.9996 8.00004C12.0192 8.00004 12.9469 8.38471 13.6532 9.01304L15.5389 7.12737C14.3482 6.01771 12.7556 5.33337 10.9996 5.33337C8.4389 5.33337 6.21823 6.77904 5.10156 8.89704Z" fill="#FF3D00"/>
<path d="M11.0004 18.6667C12.7224 18.6667 14.2871 18.0077 15.4701 16.936L13.4068 15.19C12.7149 15.7161 11.8696 16.0007 11.0004 16C9.26643 16 7.7941 14.8943 7.23943 13.3513L5.06543 15.0263C6.16876 17.1853 8.40943 18.6667 11.0004 18.6667Z" fill="#4CAF50"/>
<path d="M17.537 10.6943H17V10.6666H11V13.3333H14.7677C14.5047 14.0721 14.0311 14.7177 13.4053 15.1903L13.4063 15.1896L15.4697 16.9356C15.3237 17.0683 17.6667 15.3333 17.6667 12C17.6667 11.553 17.6207 11.1166 17.537 10.6943Z" fill="#1976D2"/>
</svg>
