<svg width="161" height="118" viewBox="0 0 161 118" fill="none" xmlns="http://www.w3.org/2000/svg">
<g clip-path="url(#clip0_131_1202)">
<path fill-rule="evenodd" clip-rule="evenodd" d="M146.945 0.395996H12.8124C12.3234 0.395996 11.8404 0.395996 11.3524 0.398996C10.9444 0.401996 10.5394 0.408996 10.1274 0.414996C9.23236 0.424996 8.33837 0.498996 7.45537 0.634996C6.57754 0.774297 5.72421 1.03865 4.92137 1.42C4.13072 1.7979 3.40262 2.29466 2.76237 2.893C1.50358 4.06129 0.659958 5.6081 0.359365 7.299C0.210728 8.12464 0.130456 8.96115 0.119365 9.8C0.107365 10.183 0.106365 10.568 0.0993652 10.95V39.844C0.106365 40.232 0.107365 40.608 0.119365 40.996C0.129365 41.835 0.209365 42.671 0.359365 43.499C0.507164 44.3318 0.788092 45.1355 1.19137 45.879C1.59537 46.627 2.12637 47.309 2.76237 47.897C3.40041 48.4981 4.12896 48.9952 4.92137 49.37C5.71937 49.75 6.57337 50.016 7.45537 50.159C8.33937 50.295 9.23236 50.369 10.1274 50.379C10.5394 50.389 10.9444 50.393 11.3524 50.393C11.8404 50.396 12.3234 50.396 12.8124 50.396H146.945C147.425 50.396 147.911 50.396 148.391 50.393C148.797 50.393 149.214 50.388 149.62 50.38C150.513 50.37 151.405 50.295 152.287 50.159C153.168 50.0168 154.025 49.7512 154.831 49.37C155.623 48.9948 156.35 48.4978 156.987 47.897C157.617 47.3128 158.149 46.6315 158.563 45.879C158.965 45.129 159.243 44.327 159.388 43.499C159.537 42.671 159.619 41.835 159.635 40.996C159.641 40.608 159.641 40.232 159.641 39.844C159.651 39.39 159.651 38.938 159.651 38.477V12.317C159.651 11.859 159.651 11.405 159.641 10.952C159.641 10.569 159.641 10.184 159.635 9.801C159.619 8.96144 159.537 8.12448 159.388 7.298C159.242 6.46605 158.964 5.66289 158.563 4.919C157.74 3.416 156.434 2.192 154.831 1.419C154.025 1.03928 153.168 0.775663 152.287 0.635996C151.405 0.498118 150.514 0.424259 149.62 0.414996C149.214 0.408996 148.797 0.400996 148.39 0.398996C147.911 0.395996 147.425 0.395996 146.945 0.395996Z" fill="black"/>
<path fill-rule="evenodd" clip-rule="evenodd" d="M11.3593 49.303C10.9533 49.303 10.5563 49.298 10.1533 49.289C9.31894 49.2791 8.48627 49.2113 7.66131 49.086C6.89601 48.9631 6.15196 48.7325 5.45131 48.401C4.76782 48.0776 4.13947 47.6487 3.58931 47.13C3.04218 46.6275 2.58256 46.0375 2.22931 45.384C1.87818 44.7371 1.6337 44.0378 1.50531 43.313C1.36821 42.5389 1.29396 41.755 1.28331 40.969C1.27431 40.705 1.26331 39.828 1.26331 39.828V10.952C1.26331 10.952 1.27531 10.088 1.28331 9.83399C1.29331 9.04999 1.36731 8.26699 1.50331 7.49399C1.63197 6.76692 1.87676 6.06529 2.22831 5.41599C2.58033 4.76332 3.03745 4.17309 3.58131 3.66899C4.13556 3.1498 4.76624 2.71878 5.45131 2.39099C6.15024 2.06064 6.89271 1.83167 7.65631 1.71099C8.48381 1.58419 9.3192 1.51569 10.1563 1.50599L11.3593 1.48999H148.384L149.602 1.50599C150.432 1.51599 151.26 1.58299 152.079 1.70899C152.851 1.83129 153.601 2.0619 154.307 2.39399C155.691 3.06299 156.817 4.11999 157.527 5.41899C157.873 6.06372 158.114 6.75944 158.241 7.47999C158.379 8.25999 158.457 9.04899 158.473 9.83999C158.477 10.193 158.477 10.574 158.477 10.952C158.487 11.421 158.487 11.867 158.487 12.317V38.477C158.487 38.932 158.487 39.375 158.477 39.822C158.477 40.228 158.477 40.6 158.471 40.984C158.456 41.76 158.38 42.534 158.243 43.301C158.118 44.031 157.874 44.7357 157.523 45.388C157.168 46.034 156.71 46.6188 156.169 47.12C155.618 47.6414 154.989 48.0727 154.303 48.398C153.603 48.731 152.853 48.962 152.079 49.086C151.254 49.2119 150.422 49.2798 149.587 49.289C149.197 49.298 148.787 49.303 148.391 49.303L146.945 49.305L11.3593 49.303Z" fill="white"/>
<path fill-rule="evenodd" clip-rule="evenodd" d="M32.3453 25.258C32.3593 24.1731 32.6475 23.1093 33.183 22.1657C33.7186 21.2221 34.4841 20.4293 35.4083 19.861C34.8211 19.0223 34.0465 18.3321 33.1459 17.8452C32.2453 17.3583 31.2436 17.0881 30.2203 17.056C28.0373 16.827 25.9213 18.363 24.8093 18.363C23.6753 18.363 21.9623 17.079 20.1193 17.117C18.9263 17.1555 17.7637 17.5023 16.7446 18.1238C15.7255 18.7452 14.8848 19.62 14.3043 20.663C11.7903 25.015 13.6653 31.413 16.0743 34.93C17.2783 36.653 18.6863 38.578 20.5293 38.51C22.3323 38.435 23.0053 37.36 25.1823 37.36C27.3383 37.36 27.9703 38.51 29.8503 38.466C31.7843 38.435 33.0033 36.736 34.1663 34.996C35.0321 33.7684 35.6983 32.4117 36.1403 30.976C35.0163 30.5007 34.057 29.705 33.3822 28.6882C32.7073 27.6714 32.3467 26.4784 32.3453 25.258ZM28.7943 14.743C29.8494 13.4765 30.3692 11.8486 30.2433 10.205C28.6313 10.375 27.1433 11.145 26.0733 12.362C25.5506 12.957 25.1504 13.6493 24.8954 14.3991C24.6404 15.1489 24.5357 15.9417 24.5873 16.732C25.3934 16.7402 26.1909 16.5653 26.9196 16.2206C27.6483 15.8759 28.2893 15.3703 28.7943 14.742V14.743Z" fill="black"/>
<path d="M53.9763 34.321H48.0593L46.6393 38.517H44.1323L49.7373 22.994H52.3403L57.9453 38.517H55.3953L53.9763 34.321ZM48.6723 32.385H53.3623L51.0503 25.575H50.9853L48.6723 32.385ZM70.0483 32.859C70.0483 36.376 68.1663 38.635 65.3253 38.635C64.6059 38.6724 63.8905 38.5066 63.2609 38.1564C62.6313 37.8063 62.113 37.2859 61.7653 36.655H61.7113V42.261H59.3883V27.199H61.6363V29.082H61.6793C62.0431 28.4542 62.5702 27.9366 63.2047 27.5845C63.8391 27.2323 64.5571 27.0587 65.2823 27.082C68.1553 27.082 70.0483 29.352 70.0483 32.859ZM67.6603 32.859C67.6603 30.567 66.4763 29.061 64.6703 29.061C62.8953 29.061 61.7003 30.599 61.7003 32.859C61.7003 35.139 62.8953 36.666 64.6703 36.666C66.4763 36.666 67.6603 35.171 67.6603 32.859ZM82.5053 32.859C82.5053 36.376 80.6223 38.635 77.7813 38.635C77.0619 38.6724 76.3465 38.5066 75.7169 38.1564C75.0873 37.8063 74.569 37.2859 74.2213 36.655H74.1673V42.261H71.8443V27.199H74.0923V29.082H74.1353C74.4991 28.4542 75.0262 27.9366 75.6607 27.5845C76.2951 27.2323 77.0131 27.0587 77.7383 27.082C80.6113 27.082 82.5053 29.352 82.5053 32.859ZM80.1163 32.859C80.1163 30.567 78.9323 29.061 77.1263 29.061C75.3513 29.061 74.1563 30.599 74.1563 32.859C74.1563 35.139 75.3513 36.666 77.1263 36.666C78.9323 36.666 80.1163 35.171 80.1163 32.859ZM90.7363 34.192C90.9083 35.731 92.4033 36.742 94.4463 36.742C96.4053 36.742 97.8133 35.731 97.8133 34.343C97.8133 33.138 96.9633 32.417 94.9533 31.923L92.9403 31.438C90.0903 30.749 88.7673 29.416 88.7673 27.253C88.7673 24.575 91.1013 22.735 94.4143 22.735C97.6953 22.735 99.9443 24.575 100.019 27.253H97.6743C97.5343 25.704 96.2543 24.769 94.3823 24.769C92.5113 24.769 91.2303 25.715 91.2303 27.092C91.2303 28.189 92.0483 28.835 94.0493 29.33L95.7593 29.75C98.9443 30.503 100.266 31.782 100.266 34.052C100.266 36.956 97.9543 38.775 94.2753 38.775C90.8323 38.775 88.5083 36.999 88.3583 34.192H90.7363ZM105.282 24.522V27.199H107.434V29.039H105.282V35.279C105.282 36.247 105.712 36.699 106.659 36.699C106.915 36.6944 107.17 36.6764 107.423 36.645V38.474C106.998 38.5533 106.566 38.5891 106.133 38.581C103.841 38.581 102.948 37.721 102.948 35.526V29.039H101.302V27.2H102.948V24.522H105.282ZM108.679 32.859C108.679 29.298 110.776 27.06 114.046 27.06C117.328 27.06 119.416 29.298 119.416 32.859C119.416 36.429 117.339 38.657 114.046 38.657C110.756 38.657 108.679 36.429 108.679 32.859ZM117.049 32.859C117.049 30.416 115.929 28.974 114.046 28.974C112.164 28.974 111.045 30.427 111.045 32.859C111.045 35.311 112.165 36.742 114.046 36.742C115.929 36.742 117.048 35.312 117.048 32.859H117.049ZM121.33 27.199H123.546V29.126H123.6C123.75 28.5244 124.103 27.9928 124.598 27.6204C125.094 27.248 125.703 27.0575 126.322 27.081C126.59 27.081 126.857 27.109 127.118 27.168V29.341C126.78 29.2378 126.428 29.1905 126.074 29.201C125.737 29.1873 125.401 29.2467 125.088 29.3753C124.776 29.5039 124.495 29.6985 124.266 29.9458C124.036 30.1931 123.862 30.4872 123.756 30.8079C123.651 31.1287 123.616 31.4685 123.654 31.804V38.517H121.33V27.199ZM137.828 35.193C137.516 37.247 135.515 38.657 132.955 38.657C129.663 38.657 127.619 36.451 127.619 32.912C127.619 29.362 129.674 27.06 132.857 27.06C135.989 27.06 137.957 29.211 137.957 32.643V33.438H129.964V33.578C129.927 33.9946 129.98 34.4142 130.117 34.8091C130.255 35.2039 130.475 35.5649 130.763 35.8682C131.051 36.1714 131.401 36.4099 131.788 36.5678C132.175 36.7257 132.591 36.7994 133.009 36.784C133.558 36.8354 134.109 36.7084 134.58 36.4217C135.05 36.1351 135.416 35.7041 135.622 35.193H137.828ZM129.975 31.815H135.633C135.654 31.4405 135.597 31.0658 135.466 30.7143C135.335 30.3629 135.133 30.0423 134.873 29.7726C134.612 29.5029 134.298 29.2901 133.952 29.1473C133.605 29.0045 133.232 28.935 132.857 28.943C132.479 28.9407 132.104 29.0134 131.754 29.1568C131.404 29.3002 131.086 29.5115 130.818 29.7786C130.55 30.0456 130.338 30.363 130.193 30.7125C130.048 31.062 129.974 31.4367 129.975 31.815Z" fill="black"/>
<path d="M48.3824 11.31C48.8694 11.2751 49.3581 11.3486 49.8133 11.5254C50.2684 11.7022 50.6787 11.9778 51.0144 12.3323C51.3502 12.6868 51.6031 13.1114 51.7549 13.5755C51.9067 14.0396 51.9537 14.5316 51.8924 15.016C51.8924 17.399 50.6034 18.769 48.3824 18.769H45.6884V11.31H48.3824ZM46.8464 17.714H48.2524C48.6003 17.7348 48.9486 17.6778 49.2717 17.547C49.5949 17.4163 49.8848 17.2152 50.1205 16.9583C50.3561 16.7014 50.5315 16.3952 50.6339 16.062C50.7363 15.7287 50.7631 15.3769 50.7124 15.032C50.7597 14.6884 50.7303 14.3385 50.6265 14.0075C50.5227 13.6766 50.3469 13.3727 50.1117 13.1177C49.8766 12.8627 49.5879 12.6628 49.2665 12.5325C48.945 12.4022 48.5987 12.3447 48.2524 12.364H46.8464V17.714ZM53.2004 15.952C53.1644 15.5818 53.2063 15.2081 53.3233 14.855C53.4403 14.5019 53.6299 14.1772 53.8799 13.9017C54.1299 13.6263 54.4348 13.4062 54.7749 13.2555C55.115 13.1049 55.4829 13.0271 55.8549 13.0271C56.2268 13.0271 56.5947 13.1049 56.9348 13.2555C57.275 13.4062 57.5798 13.6263 57.8298 13.9017C58.0798 14.1772 58.2694 14.5019 58.3864 14.855C58.5035 15.2081 58.5453 15.5818 58.5094 15.952C58.5446 16.3219 58.5021 16.695 58.3847 17.0475C58.2673 17.4 58.0775 17.7241 57.8275 17.999C57.5776 18.2739 57.2729 18.4935 56.9331 18.6438C56.5933 18.7941 56.2259 18.8717 55.8544 18.8717C55.4828 18.8717 55.1154 18.7941 54.7756 18.6438C54.4358 18.4935 54.1311 18.2739 53.8812 17.999C53.6312 17.7241 53.4414 17.4 53.324 17.0475C53.2066 16.695 53.1641 16.3219 53.1994 15.952H53.2004ZM57.3664 15.952C57.3664 14.732 56.8184 14.018 55.8564 14.018C54.8914 14.018 54.3474 14.732 54.3474 15.952C54.3474 17.182 54.8914 17.89 55.8574 17.89C56.8184 17.89 57.3674 17.177 57.3674 15.952H57.3664ZM65.5664 18.769H64.4134L63.2504 14.623H63.1624L62.0044 18.769H60.8624L59.3114 13.14H60.4374L61.4464 17.435H61.5294L62.6864 13.14H63.7524L64.9094 17.435H64.9974L65.9994 13.14H67.1104L65.5654 18.769H65.5664ZM68.4164 13.14H69.4864V14.034H69.5684C69.7092 13.7128 69.9467 13.4435 70.2479 13.2637C70.549 13.0839 70.8988 13.0025 71.2484 13.031C71.5223 13.0103 71.7974 13.0515 72.0532 13.1516C72.309 13.2518 72.539 13.4082 72.7261 13.6093C72.9132 13.8105 73.0527 14.0512 73.1341 14.3135C73.2155 14.5759 73.2368 14.8533 73.1964 15.125V18.769H72.0864V15.404C72.0864 14.499 71.6924 14.049 70.8714 14.049C70.6853 14.0403 70.4996 14.0719 70.327 14.1417C70.1544 14.2116 69.9989 14.3179 69.8712 14.4534C69.7435 14.589 69.6467 14.7506 69.5874 14.9271C69.528 15.1036 69.5075 15.2908 69.5274 15.476V18.769H68.4164V13.14ZM74.9664 10.943H76.0774V18.769H74.9674V10.943H74.9664ZM77.6214 15.952C77.5862 15.5821 77.6286 15.209 77.746 14.8565C77.8634 14.504 78.0532 14.1799 78.3032 13.905C78.5531 13.6301 78.8578 13.4105 79.1976 13.2602C79.5374 13.1099 79.9048 13.0323 80.2764 13.0323C80.6479 13.0323 81.0153 13.1099 81.3551 13.2602C81.6949 13.4105 81.9996 13.6301 82.2495 13.905C82.4995 14.1799 82.6893 14.504 82.8067 14.8565C82.9241 15.209 82.9666 15.5821 82.9314 15.952C82.9666 16.3219 82.9241 16.695 82.8067 17.0475C82.6893 17.4 82.4995 17.7241 82.2495 17.999C81.9996 18.2739 81.6949 18.4935 81.3551 18.6438C81.0153 18.7941 80.6479 18.8717 80.2764 18.8717C79.9048 18.8717 79.5374 18.7941 79.1976 18.6438C78.8578 18.4935 78.5531 18.2739 78.3032 17.999C78.0532 17.7241 77.8634 17.4 77.746 17.0475C77.6286 16.695 77.5862 16.3219 77.6214 15.952ZM81.7874 15.952C81.7874 14.732 81.2394 14.018 80.2774 14.018C79.3124 14.018 78.7694 14.732 78.7694 15.952C78.7694 17.182 79.3124 17.89 80.2774 17.89C81.2394 17.89 81.7874 17.177 81.7874 15.952ZM84.1004 17.177C84.1004 16.164 84.8554 15.58 86.1944 15.497L87.7184 15.409V14.923C87.7184 14.328 87.3254 13.993 86.5664 13.993C85.9464 13.993 85.5164 14.22 85.3934 14.618H84.3174C84.4314 13.652 85.3404 13.031 86.6174 13.031C88.0284 13.031 88.8244 13.734 88.8244 14.923V18.769H87.7544V17.978H87.6674C87.4889 18.2615 87.2385 18.4926 86.9416 18.6477C86.6447 18.8028 86.312 18.8764 85.9774 18.861C85.741 18.8859 85.502 18.8609 85.2758 18.7877C85.0497 18.7145 84.8414 18.5947 84.6644 18.436C84.4874 18.2773 84.3457 18.0833 84.2484 17.8664C84.1511 17.6496 84.1003 17.4147 84.0994 17.177H84.1004ZM87.7184 16.696V16.226L86.3444 16.313C85.5694 16.365 85.2174 16.629 85.2174 17.125C85.2174 17.632 85.6574 17.926 86.2614 17.926C86.4383 17.9438 86.6171 17.9259 86.787 17.8733C86.9569 17.8207 87.1145 17.7344 87.2504 17.6197C87.3864 17.5049 87.4978 17.364 87.5782 17.2054C87.6586 17.0467 87.7063 16.8735 87.7184 16.696ZM90.2844 15.952C90.2844 14.173 91.1994 13.047 92.6214 13.047C92.9731 13.0308 93.3221 13.1149 93.6278 13.2897C93.9334 13.4645 94.183 13.7226 94.3474 14.034H94.4304V10.943H95.5404V18.769H94.4764V17.879H94.3884C94.2113 18.1882 93.9532 18.4432 93.6417 18.6163C93.3303 18.7893 92.9774 18.874 92.6214 18.861C91.1894 18.861 90.2844 17.735 90.2844 15.951V15.952ZM91.4324 15.952C91.4324 17.146 91.9944 17.864 92.9364 17.864C93.8724 17.864 94.4504 17.135 94.4504 15.957C94.4504 14.784 93.8664 14.045 92.9364 14.045C92.0014 14.045 91.4324 14.768 91.4324 15.952ZM100.136 15.952C100.101 15.5821 100.144 15.209 100.261 14.8565C100.378 14.504 100.568 14.1799 100.818 13.905C101.068 13.6301 101.373 13.4105 101.713 13.2602C102.052 13.1099 102.42 13.0323 102.791 13.0323C103.163 13.0323 103.53 13.1099 103.87 13.2602C104.21 13.4105 104.515 13.6301 104.765 13.905C105.014 14.1799 105.204 14.504 105.322 14.8565C105.439 15.209 105.482 15.5821 105.446 15.952C105.482 16.3219 105.439 16.695 105.322 17.0475C105.204 17.4 105.014 17.7241 104.765 17.999C104.515 18.2739 104.21 18.4935 103.87 18.6438C103.53 18.7941 103.163 18.8717 102.791 18.8717C102.42 18.8717 102.052 18.7941 101.713 18.6438C101.373 18.4935 101.068 18.2739 100.818 17.999C100.568 17.7241 100.378 17.4 100.261 17.0475C100.144 16.695 100.101 16.3219 100.136 15.952ZM104.303 15.952C104.303 14.732 103.755 14.018 102.793 14.018C101.827 14.018 101.284 14.732 101.284 15.952C101.284 17.182 101.827 17.89 102.793 17.89C103.755 17.89 104.303 17.177 104.303 15.952ZM106.936 13.14H108.006V14.034H108.088C108.229 13.7128 108.467 13.4435 108.768 13.2637C109.069 13.0839 109.419 13.0025 109.768 13.031C110.042 13.0103 110.317 13.0515 110.573 13.1516C110.829 13.2518 111.059 13.4082 111.246 13.6093C111.433 13.8105 111.573 14.0512 111.654 14.3135C111.735 14.5759 111.757 14.8533 111.716 15.125V18.769H110.606V15.404C110.606 14.499 110.212 14.049 109.391 14.049C109.205 14.0403 109.02 14.0719 108.847 14.1417C108.674 14.2116 108.519 14.3179 108.391 14.4534C108.264 14.589 108.167 14.7506 108.107 14.9271C108.048 15.1036 108.028 15.2908 108.047 15.476V18.769H106.936V13.14ZM117.993 11.739V13.166H119.213V14.101H117.993V16.996C117.993 17.586 118.236 17.843 118.789 17.843C118.93 17.843 119.072 17.834 119.212 17.818V18.743C119.012 18.779 118.811 18.798 118.608 18.8C117.373 18.8 116.881 18.365 116.881 17.28V14.101H115.987V13.166H116.881V11.739H117.993ZM120.73 10.943H121.83V14.045H121.919C122.067 13.7208 122.311 13.4499 122.618 13.2693C122.925 13.0888 123.28 13.0073 123.635 13.036C123.908 13.0212 124.18 13.0667 124.433 13.1693C124.686 13.2719 124.913 13.4291 125.098 13.6296C125.283 13.8301 125.422 14.0689 125.504 14.3292C125.586 14.5894 125.61 14.8646 125.573 15.135V18.769H124.461V15.409C124.461 14.509 124.043 14.054 123.258 14.054C123.067 14.0384 122.875 14.0647 122.696 14.131C122.516 14.1973 122.353 14.3021 122.218 14.438C122.083 14.574 121.979 14.7377 121.914 14.9179C121.849 15.098 121.824 15.2902 121.841 15.481V18.769H120.73V10.943ZM132.05 17.249C131.899 17.7632 131.572 18.2079 131.127 18.5055C130.681 18.8031 130.145 18.9346 129.612 18.877C129.242 18.8867 128.873 18.8156 128.533 18.6687C128.192 18.5218 127.887 18.3025 127.64 18.0262C127.393 17.7498 127.208 17.4229 127.1 17.0682C126.992 16.7135 126.962 16.3394 127.012 15.972C126.963 15.6035 126.994 15.2286 127.102 14.8729C127.21 14.5171 127.393 14.1888 127.639 13.91C127.885 13.6312 128.188 13.4086 128.528 13.2571C128.867 13.1056 129.236 13.0289 129.607 13.032C131.173 13.032 132.117 14.102 132.117 15.869V16.257H128.143V16.319C128.126 16.5256 128.152 16.7335 128.22 16.9294C128.288 17.1254 128.396 17.305 128.537 17.4567C128.678 17.6085 128.849 17.7291 129.04 17.8108C129.231 17.8924 129.436 17.9334 129.643 17.931C129.909 17.9626 130.178 17.9146 130.416 17.7932C130.654 17.6718 130.851 17.4824 130.981 17.249H132.051H132.05ZM128.143 15.435H130.986C131 15.2461 130.975 15.0564 130.911 14.8781C130.847 14.6997 130.747 14.5367 130.617 14.3994C130.486 14.2621 130.329 14.1536 130.154 14.0808C129.979 14.0081 129.791 13.9727 129.601 13.977C129.409 13.9746 129.219 14.0106 129.041 14.0831C128.863 14.1555 128.701 14.2628 128.565 14.3986C128.429 14.5345 128.322 14.6962 128.249 14.8742C128.177 15.0522 128.141 15.2429 128.143 15.435Z" fill="black"/>
</g>
<g clip-path="url(#clip1_131_1202)">
<path fill-rule="evenodd" clip-rule="evenodd" d="M154.173 117.366H6.02537C2.70637 117.366 0.0993652 114.618 0.0993652 111.12V73.643C0.0993652 70.145 2.70637 67.397 6.02537 67.397H154.173C157.492 67.397 160.099 70.145 160.099 73.643V111.12C160.099 114.618 157.492 117.366 154.173 117.366Z" fill="black"/>
<path d="M154.173 68.396C156.899 68.396 159.151 70.769 159.151 73.643V111.12C159.151 113.994 156.899 116.367 154.173 116.367H6.02537C3.29937 116.367 1.04737 113.994 1.04737 111.12V73.643C1.04737 70.769 3.29937 68.396 6.02537 68.396H154.173ZM154.173 67.396H6.02537C2.70637 67.397 0.0993652 70.27 0.0993652 73.644V111.12C0.0993652 114.618 2.70637 117.366 6.02537 117.366H154.173C157.492 117.366 160.099 114.618 160.099 111.12V73.643C160.099 70.27 157.492 67.397 154.173 67.397V67.396Z" fill="#A6A6A6"/>
<path d="M48.5244 80.805V79.472H52.4804V80.139C52.4804 81.242 52.1854 82.127 51.5574 82.755C50.7654 83.547 49.8444 83.929 48.6914 83.929C47.5384 83.929 46.6164 83.547 45.8244 82.755C45.0324 81.963 44.6514 81.042 44.6514 79.889C44.6514 78.736 45.0324 77.815 45.8244 77.023C46.6164 76.231 47.5384 75.849 48.6914 75.849C49.2174 75.849 49.7424 75.981 50.2644 76.242C50.8504 76.535 51.2044 76.801 51.4534 77.173L51.5294 77.287L50.6764 78.14L50.5594 77.994C50.1044 77.425 49.5384 77.183 48.6914 77.183C47.9194 77.183 47.2544 77.455 46.8224 77.994L46.8104 78.009L46.7964 78.02C46.2464 78.46 45.9844 79.13 45.9844 80.014C45.9844 80.897 46.2474 81.568 46.7964 82.007C47.5134 82.581 48.0684 82.845 48.6914 82.845C49.5284 82.845 50.1084 82.608 50.6964 82.02C51.0304 81.686 51.2284 81.278 51.2664 80.805H48.5244ZM58.2274 82.471V83.804H53.5214V75.974H58.2274V77.183H54.8544V79.223H57.9774V80.431H54.8544V82.471H58.2274ZM62.3494 83.804H61.0164V77.183H58.8934V75.974H64.4734V77.183H62.3494V83.803V83.804ZM67.7624 75.974H69.0954V83.804H67.7624V75.974ZM73.1764 83.804H72.0094V77.183H69.8854V75.974H75.3414V77.183H73.2174V83.637H73.1754V83.804H73.1764ZM85.1624 82.755C84.3704 83.547 83.4484 83.929 82.2954 83.929C81.1424 83.929 80.2214 83.547 79.4294 82.755C78.6374 81.963 78.2564 81.042 78.2564 79.889C78.2564 78.736 78.6374 77.815 79.4294 77.023C80.2214 76.231 81.1424 75.849 82.2954 75.849C83.4484 75.849 84.3704 76.231 85.1624 77.023C85.9544 77.815 86.3354 78.736 86.3354 79.889C86.3354 81.042 85.9544 81.963 85.1624 82.755ZM80.4154 81.895C80.9154 82.395 81.6304 82.72 82.2954 82.72C83.0674 82.72 83.7324 82.448 84.1644 81.909L84.1764 81.895C84.7059 81.3617 85.0029 80.6405 85.0024 79.889C85.0024 79.006 84.7394 78.335 84.1904 77.896L84.1764 77.883C83.6764 77.383 82.9614 77.058 82.2964 77.058C81.5244 77.058 80.8594 77.33 80.4264 77.869L80.4154 77.883C79.8858 78.4163 79.5888 79.1375 79.5894 79.889C79.5894 80.772 79.8514 81.443 80.4014 81.882L80.4154 81.895ZM88.5844 83.804H87.3754V75.974H88.7604L92.1234 81.424V75.974H93.4564V83.804H92.1984L88.5844 78.091V83.804ZM78.1734 94.63C75.1754 94.63 72.8014 96.879 72.8014 100.002C72.796 100.709 72.9313 101.41 73.1994 102.064C73.4675 102.718 73.863 103.313 74.3629 103.812C74.8628 104.312 75.4571 104.708 76.1113 104.976C76.7655 105.244 77.4664 105.379 78.1734 105.374C81.1714 105.374 83.5454 103.125 83.5454 100.002C83.5454 96.754 81.1714 94.63 78.1734 94.63ZM78.1734 103.125C76.5494 103.125 75.1754 101.751 75.1754 99.877C75.1754 98.003 76.5494 96.629 78.1734 96.629C79.7974 96.629 81.1714 97.879 81.1714 99.877C81.1714 101.751 79.7974 103.125 78.1734 103.125ZM66.5554 94.63C63.5574 94.63 61.1834 96.879 61.1834 100.002C61.178 100.709 61.3133 101.41 61.5814 102.064C61.8495 102.718 62.245 103.313 62.7449 103.812C63.2448 104.312 63.8391 104.708 64.4933 104.976C65.1475 105.244 65.8484 105.379 66.5554 105.374C69.5534 105.374 71.9274 103.125 71.9274 100.002C71.9274 96.754 69.5534 94.63 66.5554 94.63ZM66.5554 103.125C64.9314 103.125 63.5574 101.751 63.5574 99.877C63.5574 98.003 64.9314 96.629 66.5554 96.629C68.1794 96.629 69.5534 97.879 69.5534 99.877C69.5534 101.751 68.1794 103.125 66.5554 103.125ZM52.6884 96.255V98.503H58.0604C57.9354 99.753 57.4354 100.751 56.8104 101.376C56.0614 102.126 54.8124 103 52.6884 103C49.3154 103 46.8174 100.377 46.8174 97.004C46.8174 93.631 49.4404 91.007 52.6884 91.007C54.4384 91.007 55.8114 91.757 56.8114 92.631L58.4354 91.007C57.0614 89.758 55.3124 88.759 52.8134 88.759C48.3164 88.759 44.4434 92.506 44.4434 97.004C44.4434 101.501 48.3164 105.249 52.8134 105.249C55.3124 105.249 57.0614 104.499 58.5604 102.875C60.0594 101.376 60.5584 99.252 60.5584 97.628C60.5584 97.128 60.5584 96.628 60.4344 96.254H52.6884V96.255ZM109.404 98.003C108.904 96.753 107.655 94.63 104.907 94.63C102.158 94.63 99.9104 96.754 99.9104 100.002C99.9104 103 102.158 105.374 105.157 105.374C107.53 105.374 109.029 103.874 109.529 103L107.78 101.75C107.155 102.625 106.406 103.25 105.157 103.25C103.907 103.25 103.157 102.75 102.533 101.626L109.654 98.628L109.404 98.003ZM102.158 99.753C102.158 97.753 103.782 96.629 104.907 96.629C105.781 96.629 106.656 97.129 106.906 97.753L102.158 99.753ZM96.2874 104.874H98.6614V89.258H96.2874V104.874ZM92.5394 95.754C91.9154 95.13 90.9154 94.505 89.6664 94.505C87.0434 94.505 84.5444 96.879 84.5444 99.877C84.5444 102.875 86.9184 105.124 89.6664 105.124C90.9164 105.124 91.9154 104.499 92.4144 103.874H92.5394V104.624C92.5394 106.623 91.4154 107.747 89.6664 107.747C88.2924 107.747 87.2924 106.747 87.0434 105.873L85.0434 106.748C85.6684 108.122 87.1674 109.871 89.7914 109.871C92.5394 109.871 94.7884 108.247 94.7884 104.374V94.88H92.5394V95.754ZM89.7914 103.125C88.1674 103.125 86.7934 101.751 86.7934 99.877C86.7934 98.003 88.1674 96.629 89.7914 96.629C91.4154 96.629 92.6644 98.003 92.6644 99.877C92.6644 101.751 91.4144 103.125 89.7914 103.125ZM120.273 89.258H114.651V104.874H117.025V99.003H120.273C122.896 99.003 125.394 97.129 125.394 94.13C125.394 91.132 122.896 89.258 120.273 89.258ZM120.397 96.754H117.025V91.382H120.397C122.147 91.382 123.146 92.882 123.146 94.006C123.021 95.38 122.022 96.754 120.397 96.754ZM134.764 94.505C133.014 94.505 131.266 95.255 130.641 96.879L132.765 97.753C133.265 96.879 134.015 96.629 134.889 96.629C136.138 96.629 137.262 97.379 137.387 98.628V98.753C137.013 98.503 136.013 98.128 135.014 98.128C132.765 98.128 130.516 99.378 130.516 101.626C130.516 103.75 132.39 105.124 134.389 105.124C136.013 105.124 136.763 104.374 137.387 103.624H137.512V104.874H139.761V98.878C139.511 96.129 137.387 94.505 134.764 94.505ZM134.514 103.125C133.764 103.125 132.64 102.75 132.64 101.751C132.64 100.501 134.014 100.127 135.139 100.127C136.138 100.127 136.638 100.377 137.262 100.627C137.012 102.126 135.763 103.125 134.514 103.125ZM147.631 94.88L145.008 101.626H144.883L142.134 94.88H139.636L143.758 104.374L141.385 109.621H143.758L150.13 94.88H147.631ZM126.644 104.874H129.017V89.258H126.644V104.874Z" fill="white"/>
<path fill-rule="evenodd" clip-rule="evenodd" d="M10.0913 76.766C9.71631 77.14 9.59131 77.765 9.59131 78.515V106.123C9.59131 106.873 9.84131 107.497 10.2163 107.872L10.3413 107.997L25.8313 92.507V92.257L10.0913 76.765V76.766Z" fill="url(#paint0_linear_131_1202)"/>
<path fill-rule="evenodd" clip-rule="evenodd" d="M30.8284 97.753L25.7064 92.631V92.256L30.8284 87.134L30.9534 87.259L37.0744 90.757C38.8244 91.757 38.8244 93.381 37.0744 94.38L30.8284 97.753Z" fill="url(#paint1_linear_131_1202)"/>
<path fill-rule="evenodd" clip-rule="evenodd" d="M30.9533 97.628L25.7063 92.381L10.0913 107.997C10.7153 108.621 11.5903 108.621 12.7143 108.122L30.9543 97.628" fill="url(#paint2_linear_131_1202)"/>
<path fill-rule="evenodd" clip-rule="evenodd" d="M30.9533 87.134L12.7143 76.766C11.5913 76.141 10.7153 76.266 10.0913 76.891L25.7063 92.381L30.9533 87.134Z" fill="url(#paint3_linear_131_1202)"/>
<path opacity="0.2" fill-rule="evenodd" clip-rule="evenodd" d="M30.8293 97.503L12.7153 107.747C11.7153 108.372 10.8413 108.247 10.2163 107.747L10.0913 107.872L10.2163 107.997C10.8413 108.497 11.7163 108.622 12.7153 107.997L30.8293 97.503Z" fill="black"/>
<path opacity="0.12" d="M10.0913 107.747C9.71631 107.372 9.59131 106.747 9.59131 105.998V106.123C9.59131 106.873 9.84131 107.497 10.2163 107.873V107.747H10.0913ZM37.0753 94.006L30.8293 97.503L30.9543 97.628L37.0753 94.13C37.9493 93.63 38.3253 93.006 38.3253 92.381C38.3253 93.006 37.8253 93.506 37.0753 94.006Z" fill="black"/>
<path opacity="0.25" fill-rule="evenodd" clip-rule="evenodd" d="M12.7153 76.89L37.0753 90.757C37.8253 91.257 38.3253 91.757 38.3253 92.381C38.3253 91.757 37.9493 91.132 37.0753 90.633L12.7153 76.766C10.9653 75.766 9.59131 76.516 9.59131 78.515V78.64C9.59131 76.766 10.9663 75.891 12.7153 76.89Z" fill="white"/>
</g>
<defs>
<linearGradient id="paint0_linear_131_1202" x1="19.5016" y1="78.2766" x2="6.18398" y2="91.5928" gradientUnits="userSpaceOnUse">
<stop stop-color="#00A0FF"/>
<stop offset="0.007" stop-color="#00A1FF"/>
<stop offset="0.26" stop-color="#00BEFF"/>
<stop offset="0.512" stop-color="#00D2FF"/>
<stop offset="0.76" stop-color="#00DFFF"/>
<stop offset="1" stop-color="#00E3FF"/>
</linearGradient>
<linearGradient id="paint1_linear_131_1202" x1="39.3664" y1="92.3823" x2="9.13681" y2="92.3823" gradientUnits="userSpaceOnUse">
<stop stop-color="#FFE000"/>
<stop offset="0.409" stop-color="#FFBD00"/>
<stop offset="0.775" stop-color="#FFA500"/>
<stop offset="1" stop-color="#FF9C00"/>
</linearGradient>
<linearGradient id="paint2_linear_131_1202" x1="28.1146" y1="97.3447" x2="5.43265" y2="120.027" gradientUnits="userSpaceOnUse">
<stop stop-color="#FF3A44"/>
<stop offset="1" stop-color="#C31162"/>
</linearGradient>
<linearGradient id="paint3_linear_131_1202" x1="6.21494" y1="74.4828" x2="16.3088" y2="84.5767" gradientUnits="userSpaceOnUse">
<stop stop-color="#32A071"/>
<stop offset="0.069" stop-color="#2DA771"/>
<stop offset="0.476" stop-color="#15CF74"/>
<stop offset="0.801" stop-color="#06E775"/>
<stop offset="1" stop-color="#00F076"/>
</linearGradient>
<clipPath id="clip0_131_1202">
<rect width="160" height="51" fill="white" transform="translate(0.0993652)"/>
</clipPath>
<clipPath id="clip1_131_1202">
<rect width="160" height="51" fill="white" transform="translate(0.0993652 67)"/>
</clipPath>
</defs>
</svg>
