<svg width="113" height="37" viewBox="0 0 113 37" fill="none" xmlns="http://www.w3.org/2000/svg">
<path fill-rule="evenodd" clip-rule="evenodd" d="M103.71 0.279785H8.97856C8.6332 0.279785 8.29208 0.279785 7.94743 0.281904C7.65928 0.284023 7.37325 0.288966 7.08227 0.293204C6.45018 0.300266 5.81879 0.352529 5.19518 0.448579C4.57521 0.54696 3.97254 0.733659 3.40554 1.00299C2.84715 1.26988 2.33292 1.62072 1.88074 2.04329C0.991725 2.8684 0.395918 3.96084 0.183625 5.15503C0.0786498 5.73814 0.0219576 6.32892 0.014125 6.92136C0.00565 7.19185 0.00494375 7.46376 0 7.73355V28.1399C0.00494375 28.414 0.00565 28.6795 0.014125 28.9535C0.0211875 29.5461 0.0776875 30.1365 0.183625 30.7213C0.288008 31.3095 0.486413 31.877 0.771225 32.4022C1.05655 32.9304 1.43157 33.4121 1.88074 33.8274C2.33136 34.2519 2.8459 34.6029 3.40554 34.8677C3.96913 35.136 4.57226 35.3239 5.19518 35.4249C5.8195 35.521 6.45018 35.5732 7.08227 35.5803C7.37325 35.5873 7.65928 35.5902 7.94743 35.5902C8.29208 35.5923 8.6332 35.5923 8.97856 35.5923H103.71C104.049 35.5923 104.392 35.5923 104.731 35.5902C105.018 35.5902 105.312 35.5866 105.599 35.581C106.23 35.5739 106.86 35.521 107.483 35.4249C108.105 35.3245 108.71 35.1369 109.279 34.8677C109.838 34.6027 110.352 34.2517 110.802 33.8274C111.247 33.4148 111.623 32.9336 111.915 32.4022C112.199 31.8725 112.395 31.3061 112.498 30.7213C112.603 30.1365 112.661 29.5461 112.672 28.9535C112.677 28.6795 112.677 28.414 112.677 28.1399C112.684 27.8193 112.684 27.5001 112.684 27.1745V8.69899C112.684 8.37553 112.684 8.05489 112.677 7.73496C112.677 7.46447 112.677 7.19256 112.672 6.92207C112.661 6.32913 112.603 5.73802 112.498 5.15432C112.395 4.56676 112.198 3.99953 111.915 3.47415C111.334 2.41266 110.412 1.54821 109.279 1.00228C108.71 0.734103 108.105 0.547925 107.483 0.449285C106.86 0.351909 106.23 0.299746 105.599 0.293204C105.312 0.288966 105.018 0.283316 104.731 0.281904C104.392 0.279785 104.049 0.279785 103.71 0.279785Z" fill="black"/>
<path fill-rule="evenodd" clip-rule="evenodd" d="M7.95257 34.8204C7.66583 34.8204 7.38545 34.8169 7.10083 34.8105C6.51156 34.8036 5.92348 34.7557 5.34085 34.6672C4.80036 34.5804 4.27488 34.4175 3.78004 34.1834C3.29733 33.955 2.85355 33.6521 2.465 33.2857C2.0786 32.9309 1.75399 32.5141 1.5045 32.0526C1.25652 31.5957 1.08386 31.1019 0.993178 30.59C0.896351 30.0433 0.843917 29.4897 0.836391 28.9345C0.830034 28.7481 0.822266 28.1287 0.822266 28.1287V7.73503C0.822266 7.73503 0.830741 7.12483 0.836391 6.94544C0.843453 6.39174 0.895716 5.83875 0.991766 5.29282C1.08263 4.77933 1.25552 4.2838 1.5038 3.82523C1.75241 3.36428 2.07525 2.94743 2.45935 2.59141C2.8508 2.22473 3.29622 1.92032 3.78004 1.68882C4.27366 1.45551 4.79803 1.2938 5.33732 1.20857C5.92175 1.11902 6.51174 1.07064 7.10295 1.06379L7.95257 1.05249H104.726L105.587 1.06379C106.173 1.07085 106.758 1.11817 107.336 1.20716C107.881 1.29354 108.41 1.4564 108.91 1.69094C109.887 2.16342 110.682 2.90993 111.184 3.82735C111.428 4.28269 111.598 4.77404 111.688 5.28293C111.785 5.8338 111.841 6.39103 111.852 6.94968C111.855 7.19898 111.855 7.46807 111.855 7.73503C111.862 8.06626 111.862 8.38125 111.862 8.69906V27.1746C111.862 27.4959 111.862 27.8088 111.855 28.1245C111.855 28.4112 111.855 28.6739 111.85 28.9451C111.84 29.4932 111.786 30.0398 111.689 30.5815C111.601 31.097 111.429 31.5948 111.181 32.0555C110.93 32.5117 110.607 32.9247 110.225 33.2787C109.836 33.6469 109.391 33.9516 108.907 34.1813C108.412 34.4164 107.883 34.5796 107.336 34.6672C106.753 34.7561 106.165 34.804 105.576 34.8105C105.301 34.8169 105.011 34.8204 104.731 34.8204L103.71 34.8218L7.95257 34.8204Z" fill="white"/>
<path fill-rule="evenodd" clip-rule="evenodd" d="M22.7741 17.8385C22.7839 17.0722 22.9875 16.321 23.3657 15.6546C23.7439 14.9881 24.2845 14.4282 24.9373 14.0268C24.5226 13.4345 23.9755 12.9471 23.3395 12.6032C22.7034 12.2593 21.996 12.0684 21.2733 12.0458C19.7315 11.8841 18.2371 12.9689 17.4518 12.9689C16.6509 12.9689 15.4411 12.062 14.1394 12.0889C13.2969 12.1161 12.4758 12.361 11.756 12.7999C11.0363 13.2388 10.4426 13.8566 10.0326 14.5932C8.25709 17.6668 9.58131 22.1854 11.2827 24.6693C12.133 25.8862 13.1274 27.2457 14.429 27.1977C15.7024 27.1447 16.1777 26.3855 17.7152 26.3855C19.2379 26.3855 19.6842 27.1977 21.012 27.1666C22.3779 27.1447 23.2388 25.9448 24.0601 24.7159C24.6716 23.8489 25.1421 22.8907 25.4543 21.8768C24.6604 21.5411 23.983 20.9792 23.5064 20.261C23.0297 19.5429 22.7751 18.7004 22.7741 17.8385ZM20.2662 10.4122C21.0113 9.51778 21.3784 8.36806 21.2895 7.20728C20.151 7.32734 19.1001 7.87115 18.3445 8.73066C17.9753 9.15091 17.6926 9.63979 17.5126 10.1694C17.3325 10.6989 17.2585 11.2588 17.295 11.817C17.8643 11.8227 18.4275 11.6993 18.9421 11.4558C19.4568 11.2124 19.9095 10.8553 20.2662 10.4115V10.4122Z" fill="black"/>
<path d="M38.051 24.2393H33.8721L32.8692 27.2027H31.0986L35.0572 16.2396H36.8955L40.8541 27.2027H39.0531L38.051 24.2393ZM34.305 22.872H37.6173L35.9845 18.0624H35.9386L34.305 22.872ZM49.4018 23.2067C49.4018 25.6906 48.0726 27.286 46.0662 27.286C45.5581 27.3125 45.0528 27.1953 44.6082 26.948C44.1635 26.7007 43.7975 26.3332 43.5519 25.8876H43.5138V29.8469H41.8732V19.2093H43.4608V20.5392H43.4912C43.7481 20.0958 44.1204 19.7303 44.5685 19.4816C45.0165 19.2329 45.5236 19.1102 46.0358 19.1267C48.0649 19.1267 49.4018 20.7299 49.4018 23.2067ZM47.7153 23.2067C47.7153 21.588 46.8791 20.5244 45.6036 20.5244C44.35 20.5244 43.506 21.6106 43.506 23.2067C43.506 24.817 44.35 25.8954 45.6036 25.8954C46.8791 25.8954 47.7153 24.8396 47.7153 23.2067ZM58.1996 23.2067C58.1996 25.6906 56.8697 27.286 54.8632 27.286C54.3551 27.3125 53.8499 27.1953 53.4052 26.948C52.9606 26.7007 52.5945 26.3332 52.349 25.8876H52.3109V29.8469H50.6702V19.2093H52.2579V20.5392H52.2883C52.5452 20.0958 52.9175 19.7303 53.3655 19.4816C53.8136 19.2329 54.3207 19.1102 54.8329 19.1267C56.8619 19.1267 58.1996 20.7299 58.1996 23.2067ZM56.5123 23.2067C56.5123 21.588 55.6761 20.5244 54.4006 20.5244C53.1471 20.5244 52.3031 21.6106 52.3031 23.2067C52.3031 24.817 53.1471 25.8954 54.4006 25.8954C55.6761 25.8954 56.5123 24.8396 56.5123 23.2067ZM64.0127 24.1481C64.1342 25.2351 65.19 25.9491 66.6329 25.9491C68.0164 25.9491 69.0108 25.2351 69.0108 24.2548C69.0108 23.4038 68.4105 22.8946 66.991 22.5457L65.5693 22.2031C63.5565 21.7165 62.6221 20.7751 62.6221 19.2475C62.6221 17.3561 64.2705 16.0566 66.6103 16.0566C68.9275 16.0566 70.5159 17.3561 70.5688 19.2475H68.9127C68.8138 18.1535 67.9098 17.4932 66.5877 17.4932C65.2663 17.4932 64.3616 18.1613 64.3616 19.1338C64.3616 19.9085 64.9393 20.3648 66.3525 20.7144L67.5602 21.011C69.8096 21.5428 70.7433 22.4461 70.7433 24.0493C70.7433 26.1002 69.1104 27.3849 66.5121 27.3849C64.0805 27.3849 62.4392 26.1306 62.3333 24.1481H64.0127ZM74.2858 17.3187V19.2093H75.8057V20.5088H74.2858V24.9158C74.2858 25.5995 74.5895 25.9187 75.2583 25.9187C75.4387 25.9155 75.6188 25.9028 75.7979 25.8806V27.1723C75.4976 27.2283 75.1923 27.2536 74.8868 27.2479C73.2681 27.2479 72.6374 26.6405 72.6374 25.0903V20.5088H71.475V19.21H72.6374V17.3187H74.2858ZM76.685 23.2067C76.685 20.6918 78.166 19.1112 80.4754 19.1112C82.7933 19.1112 84.268 20.6918 84.268 23.2067C84.268 25.728 82.8011 27.3016 80.4754 27.3016C78.1518 27.3016 76.685 25.728 76.685 23.2067ZM82.5963 23.2067C82.5963 21.4813 81.8053 20.4629 80.4754 20.4629C79.1462 20.4629 78.3559 21.4891 78.3559 23.2067C78.3559 24.9384 79.1469 25.9491 80.4754 25.9491C81.8053 25.9491 82.5956 24.9391 82.5956 23.2067H82.5963ZM85.6197 19.2093H87.1848V20.5703H87.2229C87.3288 20.1454 87.5777 19.77 87.9278 19.507C88.2779 19.2439 88.7078 19.1094 89.1453 19.126C89.3346 19.126 89.5232 19.1458 89.7075 19.1874V20.7221C89.4687 20.6493 89.2197 20.6159 88.9702 20.6233C88.7319 20.6136 88.4943 20.6556 88.2738 20.7464C88.0533 20.8372 87.8551 20.9746 87.6927 21.1493C87.5303 21.3239 87.4077 21.5316 87.3332 21.7582C87.2587 21.9847 87.2341 22.2247 87.2611 22.4616V27.2027H85.6197V19.2093ZM97.2714 24.8551C97.0511 26.3057 95.6379 27.3016 93.8299 27.3016C91.5049 27.3016 90.0613 25.7436 90.0613 23.2441C90.0613 20.737 91.5127 19.1112 93.7607 19.1112C95.9726 19.1112 97.3625 20.6303 97.3625 23.0542V23.6156H91.7175V23.7145C91.6914 24.0087 91.7283 24.3051 91.8256 24.584C91.9229 24.8628 92.0784 25.1178 92.2818 25.3319C92.4852 25.5461 92.7318 25.7145 93.0053 25.826C93.2788 25.9376 93.5729 25.9896 93.868 25.9787C94.2556 26.0151 94.6446 25.9253 94.977 25.7229C95.3095 25.5205 95.5678 25.2161 95.7134 24.8551H97.2714ZM91.7253 22.4694H95.7212C95.7359 22.2049 95.6957 21.9403 95.6033 21.6921C95.5108 21.4438 95.3681 21.2174 95.184 21.027C94.9999 20.8365 94.7785 20.6862 94.5335 20.5853C94.2886 20.4845 94.0255 20.4354 93.7607 20.441C93.4935 20.4395 93.2287 20.4908 92.9815 20.5921C92.7343 20.6934 92.5096 20.8426 92.3204 21.0312C92.1312 21.2197 91.9811 21.4439 91.879 21.6908C91.7768 21.9376 91.7246 22.2022 91.7253 22.4694Z" fill="black"/>
<path d="M34.0999 7.98771C34.4439 7.96303 34.789 8.015 35.1105 8.13985C35.4319 8.2647 35.7217 8.45934 35.9588 8.70971C36.1959 8.96009 36.3746 9.25997 36.4818 9.58773C36.589 9.91549 36.6221 10.263 36.5788 10.6051C36.5788 12.2881 35.6685 13.2556 34.0999 13.2556H32.1973V7.98771H34.0999ZM33.0151 12.5105H34.0081C34.2538 12.5252 34.4998 12.4849 34.728 12.3926C34.9562 12.3003 35.161 12.1582 35.3274 11.9768C35.4939 11.7954 35.6177 11.5791 35.69 11.3438C35.7623 11.1084 35.7813 10.8599 35.7455 10.6164C35.7789 10.3737 35.7582 10.1266 35.6848 9.89286C35.6115 9.65911 35.4873 9.44449 35.3213 9.26438C35.1552 9.08428 34.9514 8.94315 34.7243 8.85112C34.4973 8.7591 34.2527 8.71845 34.0081 8.7321H33.0151V12.5105ZM37.5026 11.2661C37.4772 11.0046 37.5068 10.7407 37.5894 10.4914C37.6721 10.242 37.806 10.0127 37.9826 9.81812C38.1591 9.62358 38.3744 9.46813 38.6146 9.36174C38.8548 9.25536 39.1146 9.2004 39.3774 9.2004C39.6401 9.2004 39.8999 9.25536 40.1401 9.36174C40.3803 9.46813 40.5956 9.62358 40.7722 9.81812C40.9487 10.0127 41.0826 10.242 41.1653 10.4914C41.2479 10.7407 41.2775 11.0046 41.2521 11.2661C41.277 11.5273 41.247 11.7909 41.164 12.0398C41.0811 12.2888 40.9471 12.5177 40.7706 12.7118C40.594 12.906 40.3789 13.0611 40.1389 13.1672C39.8989 13.2733 39.6394 13.3282 39.377 13.3282C39.1146 13.3282 38.8551 13.2733 38.6151 13.1672C38.3751 13.0611 38.16 12.906 37.9834 12.7118C37.8069 12.5177 37.6729 12.2888 37.59 12.0398C37.507 11.7909 37.477 11.5273 37.5019 11.2661H37.5026ZM40.4448 11.2661C40.4448 10.4045 40.0578 9.90023 39.3784 9.90023C38.6969 9.90023 38.3127 10.4045 38.3127 11.2661C38.3127 12.1348 38.6969 12.6348 39.3791 12.6348C40.0578 12.6348 40.4456 12.1313 40.4456 11.2661H40.4448ZM46.2361 13.2556H45.4218L44.6004 10.3275H44.5383L43.7204 13.2556H42.9139L41.8185 9.28015H42.6137L43.3264 12.3135H43.385L44.2021 9.28015H44.955L45.7721 12.3135H45.8342L46.5419 9.28015H47.3266L46.2354 13.2556H46.2361ZM48.2489 9.28015H49.0046V9.91153H49.0625C49.162 9.68466 49.3297 9.49447 49.5424 9.36749C49.7551 9.24051 50.0021 9.18306 50.249 9.20317C50.4425 9.18854 50.6368 9.21767 50.8174 9.28838C50.9981 9.35909 51.1605 9.46957 51.2927 9.61162C51.4248 9.75368 51.5233 9.92366 51.5808 10.109C51.6383 10.2943 51.6533 10.4901 51.6248 10.6821V13.2556H50.8408V10.8791C50.8408 10.2399 50.5626 9.92213 49.9828 9.92213C49.8514 9.91598 49.7202 9.93833 49.5983 9.98763C49.4764 10.0369 49.3666 10.112 49.2764 10.2078C49.1862 10.3035 49.1179 10.4176 49.0759 10.5423C49.034 10.6669 49.0196 10.7992 49.0336 10.9299V13.2556H48.2489V9.28015ZM52.8748 7.72852H53.6595V13.2556H52.8756V7.72852H52.8748ZM54.7499 11.2661C54.7251 11.0049 54.7551 10.7414 54.838 10.4924C54.9209 10.2435 55.0549 10.0146 55.2315 9.82043C55.408 9.62629 55.6232 9.47118 55.8631 9.36504C56.1031 9.2589 56.3626 9.20407 56.625 9.20407C56.8874 9.20407 57.1469 9.2589 57.3869 9.36504C57.6269 9.47118 57.8421 9.62629 58.0186 9.82043C58.1951 10.0146 58.3292 10.2435 58.4121 10.4924C58.495 10.7414 58.525 11.0049 58.5001 11.2661C58.525 11.5273 58.495 11.7909 58.4121 12.0398C58.3292 12.2888 58.1951 12.5177 58.0186 12.7118C57.8421 12.906 57.6269 13.0611 57.3869 13.1672C57.1469 13.2733 56.8874 13.3282 56.625 13.3282C56.3626 13.3282 56.1031 13.2733 55.8631 13.1672C55.6232 13.0611 55.408 12.906 55.2315 12.7118C55.0549 12.5177 54.9209 12.2888 54.838 12.0398C54.7551 11.7909 54.7251 11.5273 54.7499 11.2661ZM57.6922 11.2661C57.6922 10.4045 57.3052 9.90023 56.6257 9.90023C55.9442 9.90023 55.5607 10.4045 55.5607 11.2661C55.5607 12.1348 55.9442 12.6348 56.6257 12.6348C57.3052 12.6348 57.6922 12.1313 57.6922 11.2661ZM59.3257 12.1313C59.3257 11.4158 59.859 11.0034 60.8046 10.9448L61.881 10.8826V10.5394C61.881 10.1192 61.6034 9.88258 61.0674 9.88258C60.6295 9.88258 60.3258 10.0429 60.2389 10.324H59.479C59.5595 9.64175 60.2015 9.20317 61.1034 9.20317C62.0999 9.20317 62.6621 9.69966 62.6621 10.5394V13.2556H61.9064V12.697H61.8449C61.7189 12.8972 61.542 13.0604 61.3323 13.1699C61.1227 13.2795 60.8877 13.3315 60.6514 13.3206C60.4844 13.3382 60.3156 13.3206 60.1559 13.2689C59.9962 13.2172 59.8491 13.1325 59.7241 13.0205C59.5991 12.9084 59.499 12.7713 59.4303 12.6182C59.3615 12.465 59.3257 12.2992 59.325 12.1313H59.3257ZM61.881 11.7916V11.4596L60.9106 11.5211C60.3632 11.5578 60.1146 11.7443 60.1146 12.0946C60.1146 12.4526 60.4254 12.6603 60.8519 12.6603C60.9769 12.6729 61.1032 12.6602 61.2232 12.623C61.3432 12.5859 61.4545 12.525 61.5505 12.4439C61.6465 12.3629 61.7252 12.2634 61.782 12.1513C61.8387 12.0392 61.8724 11.9169 61.881 11.7916ZM63.6932 11.2661C63.6932 10.0097 64.3394 9.21447 65.3437 9.21447C65.5921 9.203 65.8386 9.26245 66.0545 9.38589C66.2703 9.50932 66.4466 9.69164 66.5627 9.91153H66.6213V7.72852H67.4052V13.2556H66.6538V12.6271H66.5916C66.4666 12.8455 66.2843 13.0255 66.0643 13.1478C65.8444 13.27 65.5952 13.3298 65.3437 13.3206C64.3323 13.3206 63.6932 12.5254 63.6932 11.2654V11.2661ZM64.504 11.2661C64.504 12.1094 64.9009 12.6165 65.5662 12.6165C66.2272 12.6165 66.6354 12.1016 66.6354 11.2697C66.6354 10.4412 66.223 9.9193 65.5662 9.9193C64.9058 9.9193 64.504 10.4299 64.504 11.2661ZM70.6512 11.2661C70.6263 11.0049 70.6563 10.7414 70.7392 10.4924C70.8221 10.2435 70.9562 10.0146 71.1327 9.82043C71.3092 9.62629 71.5244 9.47118 71.7644 9.36504C72.0043 9.2589 72.2639 9.20407 72.5263 9.20407C72.7887 9.20407 73.0482 9.2589 73.2881 9.36504C73.5281 9.47118 73.7433 9.62629 73.9198 9.82043C74.0963 10.0146 74.2304 10.2435 74.3133 10.4924C74.3962 10.7414 74.4262 11.0049 74.4013 11.2661C74.4262 11.5273 74.3962 11.7909 74.3133 12.0398C74.2304 12.2888 74.0963 12.5177 73.9198 12.7118C73.7433 12.906 73.5281 13.0611 73.2881 13.1672C73.0482 13.2733 72.7887 13.3282 72.5263 13.3282C72.2639 13.3282 72.0043 13.2733 71.7644 13.1672C71.5244 13.0611 71.3092 12.906 71.1327 12.7118C70.9562 12.5177 70.8221 12.2888 70.7392 12.0398C70.6563 11.7909 70.6263 11.5273 70.6512 11.2661ZM73.5941 11.2661C73.5941 10.4045 73.2071 9.90023 72.5277 9.90023C71.8454 9.90023 71.4619 10.4045 71.4619 11.2661C71.4619 12.1348 71.8454 12.6348 72.5277 12.6348C73.2071 12.6348 73.5941 12.1313 73.5941 11.2661ZM75.4537 9.28015H76.2093V9.91153H76.2673C76.3667 9.68466 76.5345 9.49447 76.7472 9.36749C76.9598 9.24051 77.2069 9.18306 77.4538 9.20317C77.6472 9.18854 77.8415 9.21767 78.0222 9.28838C78.2029 9.35909 78.3653 9.46957 78.4974 9.61162C78.6296 9.75368 78.7281 9.92366 78.7856 10.109C78.843 10.2943 78.8581 10.4901 78.8295 10.6821V13.2556H78.0456V10.8791C78.0456 10.2399 77.7673 9.92213 77.1875 9.92213C77.0561 9.91598 76.925 9.93833 76.8031 9.98763C76.6811 10.0369 76.5713 10.112 76.4812 10.2078C76.391 10.3035 76.3226 10.4176 76.2807 10.5423C76.2388 10.6669 76.2243 10.7992 76.2383 10.9299V13.2556H75.4537V9.28015ZM83.2627 8.29069V9.29851H84.1243V9.95885H83.2627V12.0034C83.2627 12.4201 83.4343 12.6016 83.8248 12.6016C83.9244 12.6016 84.0247 12.5953 84.1236 12.584V13.2373C83.9823 13.2627 83.8404 13.2761 83.697 13.2775C82.8248 13.2775 82.4773 12.9703 82.4773 12.204V9.95885H81.8459V9.29851H82.4773V8.29069H83.2627ZM85.1957 7.72852H85.9725V9.9193H86.0354C86.1396 9.69031 86.3119 9.49902 86.5288 9.3715C86.7456 9.24397 86.9966 9.18643 87.2473 9.2067C87.4398 9.19624 87.6321 9.22839 87.8107 9.30085C87.9893 9.37332 88.1497 9.48431 88.2804 9.62591C88.4112 9.76751 88.509 9.93622 88.567 10.12C88.6251 10.3038 88.6418 10.4981 88.616 10.6891V13.2556H87.8307V10.8826C87.8307 10.247 87.5355 9.92566 86.9811 9.92566C86.8462 9.91464 86.7106 9.9332 86.5837 9.98005C86.4568 10.0269 86.3417 10.1009 86.2464 10.1969C86.1511 10.2929 86.0779 10.4085 86.0319 10.5358C85.986 10.663 85.9683 10.7987 85.9803 10.9335V13.2556H85.1957V7.72852ZM93.1904 12.1821C93.0838 12.5453 92.8529 12.8594 92.5382 13.0695C92.2234 13.2797 91.8448 13.3726 91.4686 13.3319C91.2067 13.3388 90.9465 13.2886 90.706 13.1848C90.4655 13.081 90.2504 12.9262 90.0757 12.731C89.901 12.5358 89.7708 12.3049 89.6943 12.0544C89.6177 11.8039 89.5966 11.5397 89.6323 11.2802C89.5975 11.02 89.619 10.7552 89.6954 10.504C89.7718 10.2528 89.9012 10.0208 90.075 9.82397C90.2488 9.62709 90.4628 9.46984 90.7026 9.36286C90.9425 9.25587 91.2025 9.20166 91.465 9.20387C92.571 9.20387 93.2377 9.95956 93.2377 11.2075V11.4815H90.4311V11.5253C90.4189 11.6712 90.4373 11.8181 90.4852 11.9564C90.533 12.0948 90.6093 12.2217 90.709 12.3289C90.8087 12.436 90.9298 12.5212 91.0644 12.5789C91.1989 12.6366 91.3441 12.6655 91.4905 12.6638C91.678 12.6861 91.8679 12.6522 92.0361 12.5665C92.2043 12.4807 92.3433 12.347 92.4354 12.1821H93.1911H93.1904ZM90.4311 10.901H92.439C92.4488 10.7676 92.4307 10.6336 92.3858 10.5077C92.3408 10.3817 92.27 10.2665 92.1779 10.1696C92.0857 10.0726 91.9744 9.99597 91.8509 9.9446C91.7274 9.89323 91.5945 9.86825 91.4608 9.87128C91.3251 9.86957 91.1905 9.89504 91.0648 9.94618C90.939 9.99733 90.8248 10.0731 90.7289 10.1691C90.6329 10.265 90.5571 10.3792 90.506 10.5049C90.4549 10.6306 90.4294 10.7653 90.4311 10.901Z" fill="black"/>
</svg>
