<svg width="147" height="104" viewBox="0 0 147 104" fill="none" xmlns="http://www.w3.org/2000/svg">
<ellipse cx="30.582" cy="4.4" rx="4.41209" ry="4.4" fill="white"/>
<ellipse cx="9.32447" cy="71.2" rx="4.01099" ry="4" fill="white"/>
<ellipse cx="121.632" cy="49.6" rx="2.40659" ry="2.4" fill="white"/>
<ellipse cx="144.093" cy="59.2001" rx="2.40659" ry="2.4" fill="white"/>
<ellipse cx="139.281" cy="99.2001" rx="2.40659" ry="2.4" fill="white"/>
<ellipse cx="108.796" cy="91.2001" rx="2.40659" ry="2.4" fill="white"/>
<ellipse cx="2.90659" cy="27.2001" rx="2.40659" ry="2.4" fill="white"/>
<ellipse cx="19.3521" cy="100.4" rx="3.60989" ry="3.6" fill="white"/>
<path d="M84.7304 42.6917L61.6271 65.6L51.0381 55.1004L53.7527 52.4087L61.6271 60.1975L82.0158 40L84.7304 42.6917Z" fill="white"/>
<path d="M106.297 52C106.297 74.4716 88.0279 92.7 65.4779 92.7C42.9279 92.7 24.6592 74.4716 24.6592 52C24.6592 29.5285 42.9279 11.3 65.4779 11.3C88.0279 11.3 106.297 29.5285 106.297 52Z" stroke="white" stroke-width="5"/>
</svg>
