<svg width="26" height="26" viewBox="0 0 26 26" fill="none" xmlns="http://www.w3.org/2000/svg">
<path d="M18.2823 9.95126C18.0845 9.75465 17.817 9.64429 17.5381 9.64429C17.2592 9.64429 16.9917 9.75465 16.7939 9.95126L13.0041 13.6883L9.26704 9.95126C9.06925 9.75465 8.8017 9.64429 8.52281 9.64429C8.24392 9.64429 7.97636 9.75465 7.77857 9.95126C7.67962 10.0494 7.60109 10.1662 7.5475 10.2948C7.4939 10.4234 7.46631 10.5614 7.46631 10.7008C7.46631 10.8401 7.4939 10.9781 7.5475 11.1068C7.60109 11.2354 7.67962 11.3522 7.77857 11.4503L12.2545 15.9263C12.3527 16.0252 12.4694 16.1038 12.5981 16.1573C12.7267 16.2109 12.8647 16.2385 13.0041 16.2385C13.1434 16.2385 13.2814 16.2109 13.41 16.1573C13.5387 16.1038 13.6554 16.0252 13.7536 15.9263L18.2823 11.4503C18.3813 11.3522 18.4598 11.2354 18.5134 11.1068C18.567 10.9781 18.5946 10.8401 18.5946 10.7008C18.5946 10.5614 18.567 10.4234 18.5134 10.2948C18.4598 10.1662 18.3813 10.0494 18.2823 9.95126Z" fill="black"/>
</svg>
