<svg width="24" height="25" viewBox="0 0 24 25" fill="none" xmlns="http://www.w3.org/2000/svg">
<path d="M16.9999 9.66994C16.8126 9.48369 16.5591 9.37915 16.2949 9.37915C16.0308 9.37915 15.7773 9.48369 15.5899 9.66994L11.9999 13.2099L8.45995 9.66994C8.27259 9.48369 8.01913 9.37915 7.75495 9.37915C7.49076 9.37915 7.23731 9.48369 7.04995 9.66994C6.95622 9.76291 6.88183 9.87351 6.83106 9.99537C6.78029 10.1172 6.75415 10.2479 6.75415 10.3799C6.75415 10.512 6.78029 10.6427 6.83106 10.7645C6.88183 10.8864 6.95622 10.997 7.04995 11.0899L11.2899 15.3299C11.3829 15.4237 11.4935 15.4981 11.6154 15.5488C11.7372 15.5996 11.8679 15.6257 11.9999 15.6257C12.132 15.6257 12.2627 15.5996 12.3845 15.5488C12.5064 15.4981 12.617 15.4237 12.7099 15.3299L16.9999 11.0899C17.0937 10.997 17.1681 10.8864 17.2188 10.7645C17.2696 10.6427 17.2957 10.512 17.2957 10.3799C17.2957 10.2479 17.2696 10.1172 17.2188 9.99537C17.1681 9.87351 17.0937 9.76291 16.9999 9.66994Z" fill="black"/>
</svg>
