<svg width="24" height="29" viewBox="0 0 24 29" fill="none" xmlns="http://www.w3.org/2000/svg">
<path d="M21.7199 13.2115C21.3257 12.7281 20.8458 12.3092 20.4001 11.8903C19.2518 10.9236 17.9492 10.2308 16.8522 9.21582C14.2984 6.86353 13.7328 2.98064 15.3611 0C13.7328 0.370566 12.3102 1.20837 11.0933 2.12673C6.65408 5.47793 4.90583 11.3909 6.99687 16.466C7.06543 16.6271 7.13399 16.7883 7.13399 16.9977C7.13399 17.3522 6.8769 17.6744 6.5341 17.8033C6.13989 17.9644 5.72853 17.8677 5.40288 17.6099C5.30004 17.5294 5.23148 17.4488 5.16292 17.3361C3.22613 15.0321 2.91762 11.7292 4.22024 9.08693C1.3579 11.2781 -0.201809 14.9838 0.0210077 18.48C0.123846 19.2856 0.226684 20.0911 0.518059 20.8967C0.758016 21.8634 1.22079 22.8301 1.73498 23.684C3.58607 26.4713 6.7912 28.4691 10.2363 28.8719C13.9042 29.3069 17.8292 28.6786 20.6401 26.2941C23.7767 23.6196 24.8736 19.3339 23.2625 15.6604L23.0397 15.2415C22.6797 14.5004 21.7199 13.2115 21.7199 13.2115Z" fill="black"/>
</svg>
