<svg width="64" height="64" viewBox="0 0 64 64" fill="none" xmlns="http://www.w3.org/2000/svg">
<g clip-path="url(#clip0_982_960)">
<path fill-rule="evenodd" clip-rule="evenodd" d="M21.5052 14.7388C21.7184 14.5095 21.9938 14.3505 22.299 14.2805L42.9666 9.54801C43.2917 9.47356 43.632 9.50528 43.9377 9.63853C44.2433 9.77178 44.4982 9.99953 44.6649 10.2883L45.4443 11.6383L46.7943 10.8589C48.5845 9.82534 50.712 9.54525 52.7087 10.0803C54.7054 10.6153 56.4078 11.9216 57.4414 13.7118L60.5591 19.1118C61.5926 20.902 61.8727 23.0295 61.3377 25.0262C60.8027 27.0229 59.4964 28.7253 57.7062 29.7589L54.3906 31.6731C54.2167 34.9541 52.8956 38.0696 50.6581 40.4755L42.4954 49.2616C42.2826 49.4904 42.0061 49.6501 41.7016 49.7199L30.0112 52.396C26.8089 53.1308 23.4502 52.7171 20.5219 51.2272L17.2063 53.1415C15.4161 54.1751 13.2886 54.4552 11.2919 53.9201C9.29516 53.3851 7.59276 52.0788 6.55919 50.2886L3.4415 44.8886C2.40792 43.0984 2.12784 40.971 2.66286 38.9742C3.19788 36.9775 4.50417 35.2751 6.29438 34.2415L7.64438 33.4621L6.86496 32.1121C6.69818 31.8234 6.62838 31.4888 6.66581 31.1574C6.70324 30.8261 6.84594 30.5155 7.07293 30.2713L21.5052 14.7388ZM9.20322 36.1621L7.85322 36.9415C6.7791 37.5617 5.99532 38.5831 5.67431 39.7812C5.3533 40.9792 5.52135 42.2557 6.14149 43.3298L9.25918 48.7298C9.87932 49.8039 10.9008 50.5877 12.0988 50.9087C13.2968 51.2297 14.5733 51.0617 15.6474 50.4415L17.6481 49.2864C16.4865 48.2714 15.5006 47.0714 14.7301 45.7349L9.20322 36.1621ZM52.53 23.9112L47.0031 14.3383L48.3531 13.5589C49.4272 12.9388 50.7037 12.7707 51.9018 13.0917C53.0998 13.4127 54.1212 14.1965 54.7414 15.2706L57.8591 20.6706C58.4792 21.7447 58.6473 23.0212 58.3262 24.2193C58.0052 25.4173 57.2215 26.4387 56.1473 27.0589L54.1466 28.214C53.8484 26.7005 53.3022 25.2466 52.53 23.9112ZM10.1417 31.5523L17.4309 44.1775C18.5976 46.1982 20.3814 47.7916 22.5204 48.724C24.6594 49.6563 27.041 49.8785 29.3155 49.3578L40.5388 46.7894L48.3756 38.3553C49.9639 36.6456 50.9624 34.4718 51.2243 32.1529C51.4862 29.834 50.9978 27.4922 49.8308 25.4713L42.5409 12.8448L23.4625 17.2123L10.1409 31.5509L10.1417 31.5523ZM21.562 32.6267L20.0032 29.9267L36.2032 20.5737L37.762 23.2737L21.562 32.6267ZM26.2386 40.7267L42.4385 31.3737L40.8797 28.6737L24.6797 38.0267L26.2386 40.7267Z" fill="black"/>
</g>
<defs>
<clipPath id="clip0_982_960">
<rect width="64" height="64" fill="white"/>
</clipPath>
</defs>
</svg>
