<svg width="64" height="64" viewBox="0 0 64 64" fill="none" xmlns="http://www.w3.org/2000/svg">
<path d="M28.9429 11.0646L6.32951 33.678C1.99929 38.1285 2.72099 43.421 4.1644 46.6687C5.14144 48.867 9.57718 54.9683 14.99 55.69C19.3202 56.2673 22.8886 54.006 24.1316 52.8032C31.108 45.7465 45.4219 31.2242 46.8653 29.5883C48.6695 27.5435 51.9172 21.5293 43.8582 13.4703C37.4109 7.02303 31.2283 9.18012 28.9429 11.0646Z" stroke="black" stroke-width="3.04762"/>
<path d="M45.9049 32.2344H60.5327C61.4377 32.2344 61.891 33.3286 61.251 33.9686L40.0679 55.1517C39.8774 55.3422 39.619 55.4492 39.3496 55.4492H19.4424" stroke="black" stroke-width="3.04762" stroke-linecap="round"/>
<path d="M12.3491 27.9025C18.6039 27.0204 31.1134 29.1775 31.1134 44.8626" stroke="black" stroke-width="3.04762" stroke-linecap="round"/>
<mask id="path-4-inside-1_982_929" fill="white">
<path d="M12.1976 38.9716C12.9225 37.7881 14.0658 36.9202 15.4007 36.5401C16.7356 36.16 18.1645 36.2955 19.4042 36.9197C20.6439 37.5439 21.6037 38.6112 22.0933 39.9099C22.5829 41.2086 22.5665 42.6439 22.0474 43.9311L19.2452 42.801C19.4808 42.2167 19.4883 41.5652 19.266 40.9757C19.0438 40.3862 18.6081 39.9017 18.0454 39.6184C17.4827 39.3351 16.834 39.2736 16.2281 39.4461C15.6222 39.6186 15.1032 40.0126 14.7741 40.5498L12.1976 38.9716Z"/>
</mask>
<path d="M12.1976 38.9716C12.9225 37.7881 14.0658 36.9202 15.4007 36.5401C16.7356 36.16 18.1645 36.2955 19.4042 36.9197C20.6439 37.5439 21.6037 38.6112 22.0933 39.9099C22.5829 41.2086 22.5665 42.6439 22.0474 43.9311L19.2452 42.801C19.4808 42.2167 19.4883 41.5652 19.266 40.9757C19.0438 40.3862 18.6081 39.9017 18.0454 39.6184C17.4827 39.3351 16.834 39.2736 16.2281 39.4461C15.6222 39.6186 15.1032 40.0126 14.7741 40.5498L12.1976 38.9716Z" stroke="black" stroke-width="6.09524" mask="url(#path-4-inside-1_982_929)"/>
<mask id="path-5-inside-2_982_929" fill="white">
<path d="M10.7356 33.5654C12.411 32.3176 14.4248 31.6062 16.5121 31.5249C18.5995 31.4436 20.6626 31.9962 22.4299 33.1099C24.1971 34.2236 25.5858 35.8463 26.4132 37.7644C27.2406 39.6825 27.4678 41.8062 27.0651 43.8559L24.0941 43.2721C24.3789 41.8224 24.2182 40.3203 23.633 38.9636C23.0478 37.607 22.0656 36.4592 20.8156 35.6715C19.5656 34.8838 18.1064 34.493 16.63 34.5505C15.1536 34.608 13.7292 35.1111 12.5443 35.9937L10.7356 33.5654Z"/>
</mask>
<path d="M10.7356 33.5654C12.411 32.3176 14.4248 31.6062 16.5121 31.5249C18.5995 31.4436 20.6626 31.9962 22.4299 33.1099C24.1971 34.2236 25.5858 35.8463 26.4132 37.7644C27.2406 39.6825 27.4678 41.8062 27.0651 43.8559L24.0941 43.2721C24.3789 41.8224 24.2182 40.3203 23.633 38.9636C23.0478 37.607 22.0656 36.4592 20.8156 35.6715C19.5656 34.8838 18.1064 34.493 16.63 34.5505C15.1536 34.608 13.7292 35.1111 12.5443 35.9937L10.7356 33.5654Z" stroke="black" stroke-width="6.09524" mask="url(#path-5-inside-2_982_929)"/>
<path d="M13.3928 40.2954C9.42344 47.7529 23.5817 53.4374 25.5188 43.8948" stroke="black" stroke-width="3.04762" stroke-linecap="square"/>
<path d="M11.983 34.5171C7.6178 37.4062 5.69323 44.392 10.5046 48.8332C15.316 53.2745 21.5358 54.6092 23.7359 53.404" stroke="black" stroke-width="3.04762" stroke-linecap="round"/>
</svg>
