<svg width="113" height="37" viewBox="0 0 113 37" fill="none" xmlns="http://www.w3.org/2000/svg">
<g clip-path="url(#clip0_1008_1569)">
<path fill-rule="evenodd" clip-rule="evenodd" d="M108.815 35.5618H4.18524C1.84119 35.5618 0 33.622 0 31.1528V4.69849C0 2.22932 1.84119 0.289551 4.18524 0.289551H108.815C111.159 0.289551 113 2.22932 113 4.69849V31.1528C113 33.622 111.159 35.5618 108.815 35.5618Z" fill="black"/>
<path d="M108.815 0.994701C110.74 0.994701 112.33 2.66976 112.33 4.69847V31.1528C112.33 33.1815 110.74 34.8566 108.815 34.8566H4.18524C2.26 34.8566 0.669525 33.1815 0.669525 31.1528V4.69847C0.669525 2.66976 2.26 0.994701 4.18524 0.994701H108.815ZM108.815 0.288818H4.18524C1.84119 0.289524 0 2.31752 0 4.69917V31.1528C0 33.622 1.84119 35.5618 4.18524 35.5618H108.815C111.159 35.5618 113 33.622 113 31.1528V4.69847C113 2.31752 111.159 0.289524 108.815 0.289524V0.288818Z" fill="#A6A6A6"/>
<path d="M34.2006 9.75397V8.81303H36.9945V9.28385C36.9945 10.0624 36.7861 10.6871 36.3426 11.1304C35.7833 11.6895 35.1328 11.9591 34.3185 11.9591C33.5042 11.9591 32.853 11.6895 32.2937 11.1304C31.7343 10.5714 31.4653 9.92126 31.4653 9.10738C31.4653 8.2935 31.7343 7.64338 32.2937 7.08432C32.853 6.52526 33.5042 6.25562 34.3185 6.25562C34.69 6.25562 35.0608 6.34879 35.4294 6.53303C35.8433 6.73985 36.0933 6.92762 36.2692 7.1902L36.3228 7.27067L35.7204 7.87279L35.6378 7.76973C35.3164 7.36809 34.9167 7.19726 34.3185 7.19726C33.7733 7.19726 33.3036 7.38926 32.9985 7.76973L32.9901 7.78032L32.9802 7.78809C32.5917 8.09867 32.4067 8.57162 32.4067 9.19562C32.4067 9.81891 32.5924 10.2926 32.9802 10.6024C33.4865 11.0076 33.8785 11.194 34.3185 11.194C34.9096 11.194 35.3193 11.0267 35.7345 10.6116C35.9704 10.3759 36.1103 10.0879 36.1371 9.75397H34.2006ZM41.0533 10.93V11.8709H37.7297V6.34385H41.0533V7.19726H38.6711V8.63726H40.8767V9.48997H38.6711V10.93H41.0533ZM43.9645 11.8709H43.023V7.19726H41.5237V6.34385H45.4645V7.19726H43.9645V11.8702V11.8709ZM47.7874 6.34385H48.7288V11.8709H47.7874V6.34385ZM51.611 11.8709H50.7868V7.19726H49.2868V6.34385H53.1401V7.19726H51.64V11.753H51.6103V11.8709H51.611ZM60.0762 11.1304C59.5168 11.6895 58.8656 11.9591 58.0513 11.9591C57.237 11.9591 56.5866 11.6895 56.0272 11.1304C55.4679 10.5714 55.1988 9.92126 55.1988 9.10738C55.1988 8.2935 55.4679 7.64338 56.0272 7.08432C56.5866 6.52526 57.237 6.25562 58.0513 6.25562C58.8656 6.25562 59.5168 6.52526 60.0762 7.08432C60.6355 7.64338 60.9046 8.2935 60.9046 9.10738C60.9046 9.92126 60.6355 10.5714 60.0762 11.1304ZM56.7236 10.5234C57.0767 10.8763 57.5817 11.1057 58.0513 11.1057C58.5966 11.1057 59.0662 10.9137 59.3713 10.5333L59.3798 10.5234C59.7538 10.147 59.9635 9.63788 59.9632 9.10738C59.9632 8.48409 59.7774 8.01044 59.3897 7.70056L59.3798 7.69138C59.0267 7.33844 58.5217 7.10903 58.052 7.10903C57.5068 7.10903 57.0372 7.30103 56.7314 7.6815L56.7236 7.69138C56.3496 8.0678 56.1398 8.57688 56.1402 9.10738C56.1402 9.73067 56.3253 10.2043 56.7137 10.5142L56.7236 10.5234ZM62.4929 11.8709H61.6391V6.34385H62.6172L64.9924 10.1909V6.34385H65.9338V11.8709H65.0453L62.4929 7.8382V11.8709ZM55.1402 19.5128C53.0228 19.5128 51.3462 21.1003 51.3462 23.3048C51.3424 23.8038 51.438 24.2986 51.6273 24.7604C51.8167 25.2221 52.096 25.6416 52.449 25.9945C52.8021 26.3474 53.2218 26.6266 53.6838 26.8158C54.1458 27.005 54.6409 27.1006 55.1402 27.0968C57.2575 27.0968 58.9341 25.5093 58.9341 23.3048C58.9341 21.0121 57.2575 19.5128 55.1402 19.5128ZM55.1402 25.5093C53.9932 25.5093 53.0228 24.5394 53.0228 23.2166C53.0228 21.8937 53.9932 20.9239 55.1402 20.9239C56.2871 20.9239 57.2575 21.8062 57.2575 23.2166C57.2575 24.5394 56.2871 25.5093 55.1402 25.5093ZM46.935 19.5128C44.8176 19.5128 43.141 21.1003 43.141 23.3048C43.1372 23.8038 43.2328 24.2986 43.4221 24.7604C43.6115 25.2221 43.8908 25.6416 44.2438 25.9945C44.5969 26.3474 45.0166 26.6266 45.4786 26.8158C45.9406 27.005 46.4357 27.1006 46.935 27.0968C49.0523 27.0968 50.7289 25.5093 50.7289 23.3048C50.7289 21.0121 49.0523 19.5128 46.935 19.5128ZM46.935 25.5093C45.788 25.5093 44.8176 24.5394 44.8176 23.2166C44.8176 21.8937 45.788 20.9239 46.935 20.9239C48.0819 20.9239 49.0523 21.8062 49.0523 23.2166C49.0523 24.5394 48.0819 25.5093 46.935 25.5093ZM37.1414 20.6598V22.2467H40.9354C40.8471 23.129 40.494 23.8335 40.0526 24.2747C39.5236 24.8041 38.6415 25.421 37.1414 25.421C34.7592 25.421 32.995 23.5695 32.995 21.1886C32.995 18.8076 34.8475 16.9554 37.1414 16.9554C38.3773 16.9554 39.347 17.4848 40.0533 18.1017L41.2002 16.9554C40.2298 16.0737 38.9946 15.3686 37.2297 15.3686C34.0537 15.3686 31.3184 18.0135 31.3184 21.1886C31.3184 24.3629 34.0537 27.0086 37.2297 27.0086C38.9946 27.0086 40.2298 26.4791 41.2885 25.3328C42.3472 24.2747 42.6996 22.7754 42.6996 21.629C42.6996 21.2761 42.6996 20.9231 42.612 20.6591L37.1414 20.6598ZM77.1971 21.8937C76.8439 21.0114 75.9618 19.5128 74.0211 19.5128C72.0796 19.5128 70.4919 21.0121 70.4919 23.3048C70.4919 25.421 72.0796 27.0968 74.1976 27.0968C75.8736 27.0968 76.9322 26.038 77.2853 25.421L76.0501 24.5387C75.6087 25.1563 75.0797 25.5975 74.1976 25.5975C73.3148 25.5975 72.7851 25.2446 72.3444 24.4511L77.3736 22.3349L77.1971 21.8937ZM72.0796 23.129C72.0796 21.7173 73.2265 20.9239 74.0211 20.9239C74.6383 20.9239 75.2563 21.2768 75.4329 21.7173L72.0796 23.129ZM67.9332 26.7439H69.6098V15.7208H67.9332V26.7439ZM65.2862 20.3062C64.8455 19.8657 64.1392 19.4246 63.2571 19.4246C61.4046 19.4246 59.6397 21.1003 59.6397 23.2166C59.6397 25.3328 61.3163 26.9203 63.2571 26.9203C64.1399 26.9203 64.8455 26.4791 65.1979 26.038H65.2862V26.5674C65.2862 27.9784 64.4923 28.7719 63.2571 28.7719C62.2867 28.7719 61.5805 28.066 61.4046 27.449L59.9921 28.0667C60.4335 29.0366 61.4922 30.2711 63.3454 30.2711C65.2862 30.2711 66.8745 29.1248 66.8745 26.3909V19.6893H65.2862V20.3062ZM63.3454 25.5093C62.1984 25.5093 61.228 24.5394 61.228 23.2166C61.228 21.8937 62.1984 20.9239 63.3454 20.9239C64.4923 20.9239 65.3744 21.8937 65.3744 23.2166C65.3744 24.5394 64.4916 25.5093 63.3454 25.5093ZM84.8733 15.7208H80.9028V26.7439H82.5794V22.5996H84.8733C86.7258 22.5996 88.49 21.2768 88.49 19.1598C88.49 17.0436 86.7258 15.7208 84.8733 15.7208ZM84.9609 21.0121H82.5794V17.2201H84.9609C86.1968 17.2201 86.9024 18.2789 86.9024 19.0723C86.8141 20.0422 86.1085 21.0121 84.9609 21.0121ZM95.1076 19.4246C93.8716 19.4246 92.6371 19.954 92.1957 21.1003L93.6958 21.7173C94.0489 21.1003 94.5786 20.9239 95.1958 20.9239C96.0779 20.9239 96.8718 21.4533 96.9601 22.3349V22.4231C96.6959 22.2467 95.9897 21.982 95.2841 21.982C93.6958 21.982 92.1074 22.8643 92.1074 24.4511C92.1074 25.9504 93.4309 26.9203 94.8427 26.9203C95.9897 26.9203 96.5194 26.3909 96.9601 25.8615H97.0483V26.7439H98.6367V22.5114C98.4601 20.5709 96.9601 19.4246 95.1076 19.4246ZM94.931 25.5093C94.4013 25.5093 93.6075 25.2446 93.6075 24.5394C93.6075 23.657 94.5779 23.393 95.3724 23.393C96.0779 23.393 96.4311 23.5695 96.8718 23.746C96.6952 24.8041 95.8131 25.5093 94.931 25.5093ZM104.195 19.6893L102.342 24.4511H102.254L100.313 19.6893H98.5484L101.46 26.3909L99.7836 30.0947H101.46L105.96 19.6893H104.195ZM89.3728 26.7439H91.0487V15.7208H89.3728V26.7439Z" fill="white"/>
<path fill-rule="evenodd" clip-rule="evenodd" d="M7.05723 6.90305C6.79238 7.16705 6.7041 7.60823 6.7041 8.13764V27.6256C6.7041 28.155 6.88066 28.5955 7.14551 28.8602L7.23379 28.9485L18.1736 18.0143V17.8379L7.05723 6.90234V6.90305Z" fill="url(#paint0_linear_1008_1569)"/>
<path fill-rule="evenodd" clip-rule="evenodd" d="M21.7024 21.7172L18.085 18.1017V17.837L21.7024 14.2214L21.7907 14.3097L26.1136 16.7788C27.3495 17.4847 27.3495 18.6311 26.1136 19.3363L21.7024 21.7172Z" fill="url(#paint1_linear_1008_1569)"/>
<path fill-rule="evenodd" clip-rule="evenodd" d="M21.7904 21.6291L18.0847 17.9253L7.05664 28.9484C7.49734 29.3888 8.11531 29.3888 8.90913 29.0366L21.7911 21.6291" fill="url(#paint2_linear_1008_1569)"/>
<path fill-rule="evenodd" clip-rule="evenodd" d="M21.7904 14.2214L8.90913 6.90284C8.11602 6.46167 7.49734 6.5499 7.05664 6.99108L18.0847 17.9252L21.7904 14.2214Z" fill="url(#paint3_linear_1008_1569)"/>
<path opacity="0.2" fill-rule="evenodd" clip-rule="evenodd" d="M21.7029 21.5408L8.90984 28.7718C8.20359 29.213 7.58633 29.1248 7.14492 28.7718L7.05664 28.8601L7.14492 28.9483C7.58633 29.3012 8.2043 29.3895 8.90984 28.9483L21.7029 21.5408Z" fill="black"/>
<path opacity="0.12" d="M7.05723 28.7719C6.79238 28.5072 6.7041 28.066 6.7041 27.5373V27.6255C6.7041 28.1549 6.88066 28.5954 7.14551 28.8608V28.7719H7.05723ZM26.1147 19.0724L21.7034 21.5408L21.7917 21.6291L26.1147 19.1599C26.7319 18.8069 26.9975 18.3665 26.9975 17.9253C26.9975 18.3665 26.6444 18.7194 26.1147 19.0724Z" fill="black"/>
<path opacity="0.25" fill-rule="evenodd" clip-rule="evenodd" d="M8.91043 6.9904L26.1147 16.7789C26.6444 17.1318 26.9975 17.4848 26.9975 17.9252C26.9975 17.4848 26.7319 17.0436 26.1147 16.6913L8.91043 6.90287C7.67449 6.19699 6.7041 6.7264 6.7041 8.13746V8.2257C6.7041 6.90287 7.6752 6.28523 8.91043 6.9904Z" fill="white"/>
</g>
<defs>
<linearGradient id="paint0_linear_1008_1569" x1="13.7032" y1="7.96938" x2="4.30257" y2="17.3739" gradientUnits="userSpaceOnUse">
<stop stop-color="#00A0FF"/>
<stop offset="0.007" stop-color="#00A1FF"/>
<stop offset="0.26" stop-color="#00BEFF"/>
<stop offset="0.512" stop-color="#00D2FF"/>
<stop offset="0.76" stop-color="#00DFFF"/>
<stop offset="1" stop-color="#00E3FF"/>
</linearGradient>
<linearGradient id="paint1_linear_1008_1569" x1="27.7323" y1="17.9261" x2="6.38268" y2="17.9261" gradientUnits="userSpaceOnUse">
<stop stop-color="#FFE000"/>
<stop offset="0.409" stop-color="#FFBD00"/>
<stop offset="0.775" stop-color="#FFA500"/>
<stop offset="1" stop-color="#FF9C00"/>
</linearGradient>
<linearGradient id="paint2_linear_1008_1569" x1="19.7856" y1="21.4291" x2="3.77481" y2="37.4488" gradientUnits="userSpaceOnUse">
<stop stop-color="#FF3A44"/>
<stop offset="1" stop-color="#C31162"/>
</linearGradient>
<linearGradient id="paint3_linear_1008_1569" x1="4.31896" y1="5.29116" x2="11.444" y2="12.42" gradientUnits="userSpaceOnUse">
<stop stop-color="#32A071"/>
<stop offset="0.069" stop-color="#2DA771"/>
<stop offset="0.476" stop-color="#15CF74"/>
<stop offset="0.801" stop-color="#06E775"/>
<stop offset="1" stop-color="#00F076"/>
</linearGradient>
<clipPath id="clip0_1008_1569">
<rect width="113" height="36" fill="white" transform="translate(0 0.00927734)"/>
</clipPath>
</defs>
</svg>
