<svg width="478" height="137" viewBox="0 0 478 137" fill="none" xmlns="http://www.w3.org/2000/svg">
<path d="M5.2445 28.3265C7.92375 28.3265 9.61491 26.5213 9.61491 24.5641C9.61491 22.1129 7.48671 21.0108 5.64353 20.2697C4.10439 19.6427 3.40132 19.0346 3.40132 18.1415C3.40132 17.4195 3.99038 16.8114 5.07348 16.8114C6.11858 16.8114 6.89765 17.3435 7.71473 17.8565C7.94275 18.0085 8.22778 17.8565 8.37979 17.6285L9.10186 16.5454C9.23487 16.3554 9.17787 16.0323 8.98785 15.9183C8.60781 15.6333 7.12567 14.6452 5.18749 14.6452C2.1662 14.6452 0.912086 16.6024 0.912086 18.2935C0.912086 20.5358 2.69826 21.6759 4.48442 22.3979C6.08058 23.044 6.89765 23.7091 6.89765 24.6781C6.89765 25.4952 6.15658 26.1413 5.16849 26.1413C3.93337 26.1413 3.07829 25.5522 2.29922 24.9632C2.1282 24.8302 1.80517 24.8302 1.65316 25.0962L0.969092 26.2743C0.798076 26.5783 0.874083 26.6923 1.0641 26.8444C1.61515 27.3194 2.85027 28.3265 5.2445 28.3265ZM10.9626 25.3432C10.9626 27.2244 12.1787 28.3455 13.9268 28.3455C15.295 28.3455 16.169 27.7374 16.6821 27.2434L16.9291 27.8324C17.0431 28.0795 17.1571 28.1365 17.3092 28.1365H17.9552C18.1832 28.1365 18.3733 27.9465 18.3733 27.7184V22.987C18.3733 20.5928 17.8032 19.1676 15.0669 19.1676C13.6418 19.1676 12.2547 19.5287 12.0647 19.6047C11.8746 19.6617 11.7036 19.8137 11.7796 20.1367L11.9696 21.1248C12.0077 21.3908 12.1787 21.5999 12.4637 21.5048C12.9767 21.3528 14.1359 21.1818 14.9339 21.1818C15.865 21.1818 16.188 21.7139 16.15 22.835C16.15 22.835 15.352 22.5879 14.4589 22.5879C12.2357 22.5879 10.9626 23.7851 10.9626 25.3432ZM13.2428 25.3432C13.2428 24.5641 13.7938 24.0891 14.8009 24.0891C15.504 24.0891 16.093 24.3551 16.093 24.3551V25.6472C15.979 25.9703 15.295 26.5783 14.5159 26.5783C13.6988 26.5783 13.2428 26.0843 13.2428 25.3432ZM21.3853 27.7184C21.3853 27.9465 21.5754 28.1365 21.8034 28.1365H23.3425C23.5705 28.1365 23.7606 27.9465 23.7606 27.7184V21.4858H26.1548C26.4018 21.4858 26.5728 21.2768 26.5728 21.0678V19.7757C26.5728 19.5287 26.4018 19.3576 26.1548 19.3576H23.7606V18.3125C23.7606 17.4005 23.9506 16.8114 25.0527 16.8114C25.5277 16.8114 26.1358 17.0774 26.4208 17.2674C26.6108 17.3815 26.8579 17.3245 26.9529 17.1534L27.6179 15.9943C27.7129 15.8423 27.6749 15.5953 27.5229 15.5003C27.1239 15.1392 26.0978 14.6452 24.9387 14.6452C22.6205 14.6452 21.3853 15.9753 21.3853 18.3125V19.3576H20.4732C20.2262 19.3576 20.0552 19.5287 20.0552 19.7757V21.0678C20.0552 21.2768 20.2262 21.4858 20.4732 21.4858H21.3853V27.7184ZM27.4796 23.7471C27.4796 26.2553 29.3037 28.3455 31.926 28.3455C33.3511 28.3455 34.4342 27.7944 35.1943 27.1484C35.4033 26.9584 35.3843 26.7493 35.2323 26.5783L34.4912 25.5902C34.3582 25.4002 34.1302 25.4192 33.9212 25.5902C33.5221 25.9133 32.9141 26.2363 32.04 26.2363C30.7669 26.2363 29.8738 25.2862 29.8548 24.2031H35.4793C35.6693 24.2031 35.8784 24.0321 35.8974 23.8041C35.9164 23.6711 35.9354 23.367 35.9354 23.234C35.9354 20.8588 34.1872 19.1676 31.907 19.1676C29.3037 19.1676 27.4796 21.2768 27.4796 23.7471ZM29.9878 22.645C30.1018 21.7709 30.7859 21.1248 31.85 21.1248C32.8191 21.1248 33.5031 21.7899 33.5411 22.645H29.9878ZM38.3057 25.5142C38.3057 27.0344 38.7997 28.3455 40.7569 28.3455C41.669 28.3455 42.9231 27.9465 43.2272 27.7754C43.4362 27.6614 43.5312 27.4904 43.4742 27.2624L43.2272 26.1033C43.1892 25.8943 42.9801 25.7803 42.7331 25.8753C42.5051 25.9513 41.783 26.1603 41.403 26.1603C40.9659 26.1603 40.6809 26.0273 40.6809 25.4382V21.4858H42.7331C42.9611 21.4858 43.1512 21.2768 43.1512 21.0678V19.7757C43.1512 19.5287 42.9611 19.3576 42.7331 19.3576H40.6809V16.9254C40.6809 16.6974 40.5099 16.5074 40.2819 16.5074H38.7237C38.5147 16.5074 38.3057 16.6974 38.3057 16.9254V19.3576H37.4506C37.2226 19.3576 37.0516 19.5287 37.0516 19.7757V21.0678C37.0516 21.2768 37.2226 21.4858 37.4506 21.4858H38.3057V25.5142ZM47.0398 27.6234L45.2727 32.0698C45.1397 32.3739 45.3107 32.6589 45.6527 32.6589H47.4769C47.6479 32.6589 47.7999 32.5259 47.8569 32.3929L53.0254 19.9277C53.1584 19.6427 52.9874 19.3576 52.6454 19.3576H51.0302C50.7642 19.3576 50.6122 19.3766 50.4792 19.6047L48.484 24.8492H48.446L46.8688 19.6047C46.8308 19.4527 46.6978 19.3576 46.5078 19.3576H44.6836C44.3416 19.3576 44.1896 19.6237 44.3036 19.9277L47.0398 27.6234ZM58.3425 21.5048C58.3425 25.3052 61.3828 28.3075 65.1641 28.3075C67.9194 28.3075 69.8766 27.0724 69.8766 27.0724C69.9526 27.0154 70.0286 26.9204 70.0286 26.7683V21.9039C70.0286 21.7139 69.8766 21.5429 69.6866 21.5429H66.0382C65.8292 21.5429 65.6772 21.6949 65.6772 21.9039V23.405C65.6772 23.595 65.8292 23.7471 66.0382 23.7471H67.5584V25.3622C67.1783 25.5142 66.3613 25.8373 65.2972 25.8373C62.9029 25.8373 61.0217 23.8421 61.0217 21.4858C61.0217 19.1106 62.9029 17.0774 65.2782 17.0774C66.3233 17.0774 67.3303 17.4575 68.1474 18.1795C68.3184 18.3315 68.4895 18.3315 68.6415 18.1795L69.8196 16.9444C69.9716 16.7924 69.9526 16.5644 69.8006 16.4124C68.5085 15.3103 66.8743 14.6452 65.1641 14.6452C61.3828 14.6452 58.3425 17.7045 58.3425 21.5048ZM72.0809 24.4311C72.0809 26.6543 72.67 28.3455 75.3873 28.3455C76.7364 28.3455 77.6485 27.5474 78.1045 27.0724L78.3515 27.8134C78.4085 27.9845 78.5606 28.1365 78.7696 28.1365H79.4536C79.6817 28.1365 79.8717 27.9465 79.8717 27.7184V19.7757C79.8717 19.5287 79.6817 19.3576 79.4536 19.3576H77.9715C77.6105 19.3576 77.4965 19.4337 77.4965 19.7757V24.5451C77.3634 25.3052 76.9074 26.1793 75.9383 26.1793C74.8552 26.1793 74.4562 25.5902 74.4562 24.4311V19.7757C74.4562 19.5287 74.2662 19.3576 74.0381 19.3576H72.499C72.271 19.3576 72.0809 19.5287 72.0809 19.7757V24.4311ZM82.3078 27.7184C82.3078 27.9465 82.5168 28.1365 82.7258 28.1365H84.265C84.474 28.1365 84.683 27.9465 84.683 27.7184V19.7757C84.683 19.5287 84.474 19.3576 84.265 19.3576H82.7258C82.5168 19.3576 82.3078 19.5287 82.3078 19.7757V27.7184ZM83.4669 17.8565C84.322 17.8565 84.987 17.1724 84.987 16.3364C84.987 15.5003 84.322 14.8352 83.4669 14.8352C82.6118 14.8352 81.9657 15.5003 81.9657 16.3364C81.9657 17.1724 82.6118 17.8565 83.4669 17.8565ZM86.5818 23.7471C86.5818 26.4073 88.387 28.3455 90.7812 28.3455C92.6434 28.3455 93.6505 27.0344 93.6505 27.0344L93.8785 27.7184C93.9545 27.9655 94.0875 28.1365 94.2966 28.1365H94.9996C95.2277 28.1365 95.4177 27.9465 95.4177 27.7184V15.2533C95.4177 15.0442 95.2277 14.8352 94.9996 14.8352H93.4605C93.2515 14.8352 93.0424 15.0442 93.0424 15.2533V19.5287C92.6434 19.3766 91.8073 19.1676 90.9333 19.1676C88.311 19.1676 86.5818 21.1818 86.5818 23.7471ZM93.0424 24.9632C92.8524 25.4572 92.2444 26.1793 91.1043 26.1793C89.7361 26.1793 89.0331 24.9822 89.0331 23.7471C89.0331 22.5119 89.7741 21.3338 91.2183 21.3338C92.3204 21.3338 93.0424 21.8279 93.0424 21.8279V24.9632ZM97.326 23.7471C97.326 26.2553 99.1502 28.3455 101.772 28.3455C103.198 28.3455 104.281 27.7944 105.041 27.1484C105.25 26.9584 105.231 26.7493 105.079 26.5783L104.338 25.5902C104.205 25.4002 103.977 25.4192 103.768 25.5902C103.369 25.9133 102.761 26.2363 101.886 26.2363C100.613 26.2363 99.7202 25.2862 99.7012 24.2031H105.326C105.516 24.2031 105.725 24.0321 105.744 23.8041C105.763 23.6711 105.782 23.367 105.782 23.234C105.782 20.8588 104.034 19.1676 101.753 19.1676C99.1502 19.1676 97.326 21.2768 97.326 23.7471ZM99.8343 22.645C99.9483 21.7709 100.632 21.1248 101.696 21.1248C102.666 21.1248 103.35 21.7899 103.388 22.645H99.8343ZM107.582 27.7184C107.582 27.9465 107.791 28.1365 108 28.1365H109.539C109.748 28.1365 109.957 27.9465 109.957 27.7184V15.2533C109.957 15.0442 109.748 14.8352 109.539 14.8352H108C107.791 14.8352 107.582 15.0442 107.582 15.2533V27.7184ZM112.406 27.7184C112.406 27.9465 112.615 28.1365 112.824 28.1365H114.364C114.573 28.1365 114.782 27.9465 114.782 27.7184V19.7757C114.782 19.5287 114.573 19.3576 114.364 19.3576H112.824C112.615 19.3576 112.406 19.5287 112.406 19.7757V27.7184ZM113.565 17.8565C114.421 17.8565 115.086 17.1724 115.086 16.3364C115.086 15.5003 114.421 14.8352 113.565 14.8352C112.71 14.8352 112.064 15.5003 112.064 16.3364C112.064 17.1724 112.71 17.8565 113.565 17.8565ZM117.212 27.7184C117.212 27.9465 117.421 28.1365 117.63 28.1365H119.037C119.455 28.1365 119.588 28.0415 119.588 27.7184V22.702C119.797 22.0939 120.348 21.3338 121.488 21.3338C122.552 21.3338 123.008 22.0369 123.008 23.177V27.7184C123.008 27.9465 123.198 28.1365 123.426 28.1365H124.965C125.174 28.1365 125.383 27.9465 125.383 27.7184V23.177C125.383 21.0488 124.661 19.1676 121.868 19.1676C120.177 19.1676 119.36 20.0797 119.037 20.4407L118.714 19.6237C118.657 19.4527 118.562 19.3576 118.353 19.3576H117.63C117.421 19.3576 117.212 19.5287 117.212 19.7757V27.7184ZM127.183 23.7471C127.183 26.2553 129.008 28.3455 131.63 28.3455C133.055 28.3455 134.138 27.7944 134.898 27.1484C135.107 26.9584 135.088 26.7493 134.936 26.5783L134.195 25.5902C134.062 25.4002 133.834 25.4192 133.625 25.5902C133.226 25.9133 132.618 26.2363 131.744 26.2363C130.471 26.2363 129.578 25.2862 129.559 24.2031H135.183C135.373 24.2031 135.582 24.0321 135.601 23.8041C135.62 23.6711 135.639 23.367 135.639 23.234C135.639 20.8588 133.891 19.1676 131.611 19.1676C129.008 19.1676 127.183 21.2768 127.183 23.7471ZM129.692 22.645C129.806 21.7709 130.49 21.1248 131.554 21.1248C132.523 21.1248 133.207 21.7899 133.245 22.645H129.692ZM140.024 28.3455C142.228 28.3455 143.406 27.1104 143.406 25.7232C143.406 23.9751 142.19 23.367 140.499 22.683C139.682 22.3409 139.245 22.1319 139.245 21.7329C139.245 21.4478 139.492 21.1628 140.081 21.1628C140.803 21.1628 141.411 21.4098 141.829 21.5999C142.019 21.6759 142.247 21.6379 142.38 21.4288L142.874 20.4217C142.988 20.1937 142.874 19.9657 142.684 19.8137C142.209 19.5097 141.373 19.1676 140.081 19.1676C137.933 19.1676 136.926 20.4027 136.926 21.7329C136.926 23.063 137.686 23.8611 139.378 24.5071C140.537 24.9632 141.031 25.3242 141.031 25.7232C141.031 26.1033 140.727 26.3503 140.062 26.3503C139.15 26.3503 138.523 26.0273 138.123 25.7803C137.914 25.6472 137.705 25.7232 137.61 25.9323L137.04 27.0724C136.945 27.2624 137.04 27.4714 137.154 27.5474C137.648 27.8895 138.561 28.3455 140.024 28.3455Z" fill="black"/>
<path d="M0 80.3628C0 75.9445 3.58172 72.3628 8 72.3628H215.907C220.325 72.3628 223.907 75.9445 223.907 80.3628V128.032C223.907 132.451 220.325 136.032 215.907 136.032H8C3.58172 136.032 0 132.451 0 128.032V80.3628Z" fill="#FFEDDF"/>
<path d="M22.9261 91.8813C22.5528 91.8813 22.1948 92.0296 21.9308 92.2936C21.6668 92.5576 21.5186 92.9156 21.5186 93.2889V98.919H28.5563V91.8813H22.9261ZM26.7968 97.1596H23.278V93.6408H26.7968V97.1596Z" fill="black"/>
<path d="M21.5186 115.105C21.5186 115.479 21.6668 115.837 21.9308 116.101C22.1948 116.365 22.5528 116.513 22.9261 116.513H28.5563V109.475H21.5186V115.105ZM23.278 111.235H26.7968V114.753H23.278V111.235Z" fill="black"/>
<path d="M39.1133 116.513H44.7434C45.1167 116.513 45.4748 116.365 45.7387 116.101C46.0027 115.837 46.151 115.479 46.151 115.105V109.475H39.1133V116.513ZM40.8727 111.235H44.3916V114.753H40.8727V111.235Z" fill="black"/>
<path d="M44.7434 91.8813H39.1133V98.919H46.151V93.2889C46.151 92.9156 46.0027 92.5576 45.7387 92.2936C45.4748 92.0296 45.1167 91.8813 44.7434 91.8813ZM44.3916 97.1596H40.8727V93.6408H44.3916V97.1596Z" fill="black"/>
<path d="M35.5945 97.1591V95.3997H32.0757V98.9185H33.8351V97.1591H35.5945Z" fill="black"/>
<path d="M28.5562 98.9202H30.3156V100.68H28.5562V98.9202Z" fill="black"/>
<path d="M30.3164 100.679H33.8353V102.439H30.3164V100.679Z" fill="black"/>
<path d="M35.5947 93.6408V95.4002H37.3541V91.8813H30.3164V95.4002H32.0758V93.6408H35.5947Z" fill="black"/>
<path d="M21.5186 100.679H23.278V104.198H21.5186V100.679Z" fill="black"/>
<path d="M28.5563 102.439V104.198H26.7968V100.679H25.0374V104.198H23.278V105.957H21.5186V107.717H25.0374V105.957H26.7968V107.717H28.5563V105.957H30.3157V102.439H28.5563Z" fill="black"/>
<path d="M35.5944 102.439H37.3538V104.198H39.1132V102.439H40.8727V100.679H37.3538V97.1606H35.5944V98.9201H33.835V100.679H35.5944V102.439Z" fill="black"/>
<path d="M33.8353 114.755H30.3164V116.514H37.3541V114.755H35.5947V112.996H33.8353V114.755Z" fill="black"/>
<path d="M37.354 105.958V104.198H35.5945V102.439H33.8351V104.198H32.0757V105.958H33.8351V107.717H35.5945V105.958H37.354Z" fill="black"/>
<path d="M44.3911 105.957H46.1505V107.716H44.3911V105.957Z" fill="black"/>
<path d="M37.3535 105.957H42.6318V107.716H37.3535V105.957Z" fill="black"/>
<path d="M44.3914 100.679H42.632V102.439H40.8726V104.198H42.632V105.957H44.3914V104.198H46.1508V102.439H44.3914V100.679Z" fill="black"/>
<path d="M35.5942 107.716H37.3537V112.994H35.5942V107.716Z" fill="black"/>
<path d="M30.3164 112.994H32.0758V111.235H33.8353V109.475H32.0758V105.957H30.3164V112.994Z" fill="black"/>
<path d="M69.2954 94.1748C69.2954 96.5748 71.2274 98.4828 73.6274 98.4828C74.6954 98.4828 75.6914 98.0388 76.4834 97.3188C76.5674 97.2348 76.5914 97.0668 76.4954 96.9948L76.2194 96.7188C76.1234 96.6228 76.0274 96.6108 75.9074 96.7068C75.2714 97.2468 74.6594 97.6068 73.6154 97.6068C71.7194 97.6068 70.2674 96.0108 70.2674 94.1628C70.2674 92.3028 71.7194 90.7068 73.6154 90.7068C74.4914 90.7068 75.2834 91.0668 75.9074 91.6068C76.0274 91.7268 76.1234 91.7388 76.2194 91.6188L76.5434 91.2948C76.6394 91.1988 76.6274 91.0548 76.5314 90.9588C75.7154 90.2628 74.8394 89.8428 73.6274 89.8428C71.2274 89.8428 69.2954 91.7748 69.2954 94.1748ZM77.638 95.5788C77.638 97.1628 78.886 98.4948 80.422 98.4948C81.958 98.4948 83.206 97.1628 83.206 95.5788C83.206 94.0188 81.958 92.6988 80.422 92.6988C78.886 92.6988 77.638 94.0188 77.638 95.5788ZM78.514 95.5788C78.514 94.4508 79.33 93.5028 80.422 93.5028C81.514 93.5028 82.318 94.4508 82.318 95.5788C82.318 96.7308 81.514 97.6908 80.422 97.6908C79.33 97.6908 78.514 96.7308 78.514 95.5788ZM84.7129 98.0988C84.7129 98.2428 84.8329 98.3628 84.9769 98.3628H85.3369C85.4689 98.3628 85.6009 98.2428 85.6009 98.0988V94.2708C85.6009 94.2708 86.2609 93.5028 87.3049 93.5028C88.1209 93.5028 88.4809 93.9948 88.4809 95.0508V98.0988C88.4809 98.2428 88.6009 98.3628 88.7449 98.3628H89.1049C89.2369 98.3628 89.3689 98.2428 89.3689 98.0988V95.1708C89.3689 93.7428 88.9729 92.6988 87.3649 92.6988C86.2129 92.6988 85.5049 93.4068 85.5049 93.4068L85.3849 92.9868C85.3609 92.8668 85.2889 92.8188 85.1689 92.8188H84.9769C84.8329 92.8188 84.7129 92.9508 84.7129 93.0828V98.0988ZM91.483 93.5868V96.9588C91.483 97.8228 91.699 98.4948 92.755 98.4948C93.499 98.4948 94.075 98.2188 94.315 98.0508C94.459 97.9548 94.483 97.8708 94.411 97.6908L94.303 97.4388C94.243 97.3068 94.171 97.1988 93.955 97.3308C93.727 97.4748 93.379 97.6908 92.863 97.6908C92.551 97.6908 92.371 97.4748 92.371 96.8988V93.5868H94.003C94.159 93.5868 94.279 93.4668 94.279 93.3228V93.0828C94.279 92.9268 94.159 92.8188 94.003 92.8188H92.371V91.2588C92.371 91.1148 92.263 90.9828 92.119 90.9948L91.747 91.0188C91.615 91.0308 91.483 91.1388 91.483 91.2828V92.8188H90.751C90.583 92.8188 90.475 92.9268 90.475 93.0828V93.3228C90.475 93.4668 90.583 93.5868 90.751 93.5868H91.483ZM95.2379 96.6828C95.2379 97.7988 95.9819 98.4948 96.9539 98.4948C97.8059 98.4948 98.3819 98.0748 98.6699 97.7868L98.7779 98.1588C98.8139 98.2788 98.8619 98.3628 99.0059 98.3628H99.2339C99.3779 98.3628 99.4979 98.2428 99.4979 98.0988V95.0268C99.4979 93.3948 99.1979 92.6988 97.7819 92.6988C96.8699 92.6988 96.1499 92.9388 95.8739 93.0588C95.7419 93.1188 95.6579 93.1908 95.7059 93.3588L95.8259 93.6828C95.8739 93.8148 95.9459 93.8868 96.0899 93.8268C96.3419 93.7428 96.9779 93.5028 97.7339 93.5028C98.5259 93.5028 98.6579 94.0068 98.6459 95.0268C98.6459 95.0268 98.0459 94.8468 97.4579 94.8468C96.0299 94.8468 95.2379 95.6268 95.2379 96.6828ZM96.1139 96.6828C96.1139 95.9748 96.6899 95.6028 97.4579 95.6028C98.0099 95.6028 98.4539 95.7228 98.6339 95.8188V96.9468C98.3939 97.3068 97.7939 97.6908 97.1099 97.6908C96.4979 97.6908 96.1139 97.2468 96.1139 96.6828ZM100.958 95.6028C100.958 97.2708 102.11 98.4948 103.754 98.4948C104.678 98.4948 105.422 97.9908 105.842 97.3788C105.938 97.2348 105.89 97.1148 105.77 96.9948L105.698 96.9228C105.542 96.7668 105.386 96.7188 105.23 96.8988C104.918 97.2588 104.558 97.6908 103.718 97.6908C102.686 97.6908 101.858 96.7668 101.858 95.5908C101.858 94.4388 102.698 93.5028 103.754 93.5028C104.318 93.5028 104.762 93.6708 105.146 94.1028C105.254 94.2228 105.362 94.3428 105.542 94.1868L105.734 94.0068C105.866 93.8988 105.89 93.7428 105.782 93.6108C105.266 93.0228 104.594 92.6988 103.766 92.6988C102.158 92.6988 100.958 93.9708 100.958 95.6028ZM107.678 93.5868V96.9588C107.678 97.8228 107.894 98.4948 108.95 98.4948C109.694 98.4948 110.27 98.2188 110.51 98.0508C110.654 97.9548 110.678 97.8708 110.606 97.6908L110.498 97.4388C110.438 97.3068 110.366 97.1988 110.15 97.3308C109.922 97.4748 109.574 97.6908 109.058 97.6908C108.746 97.6908 108.566 97.4748 108.566 96.8988V93.5868H110.198C110.354 93.5868 110.474 93.4668 110.474 93.3228V93.0828C110.474 92.9268 110.354 92.8188 110.198 92.8188H108.566V91.2588C108.566 91.1148 108.458 90.9828 108.314 90.9948L107.942 91.0188C107.81 91.0308 107.678 91.1388 107.678 91.2828V92.8188H106.946C106.778 92.8188 106.67 92.9268 106.67 93.0828V93.3228C106.67 93.4668 106.778 93.5868 106.946 93.5868H107.678ZM114.808 98.0988C114.808 98.2428 114.928 98.3628 115.072 98.3628H115.432C115.564 98.3628 115.696 98.2428 115.696 98.0988V90.2268C115.696 90.0948 115.564 89.9628 115.432 89.9628H115.072C114.928 89.9628 114.808 90.0948 114.808 90.2268V98.0988ZM117.283 95.5908C117.283 97.1748 118.291 98.4948 119.971 98.4948C120.931 98.4948 121.663 98.1228 121.999 97.8588C122.203 97.7028 122.155 97.6428 122.047 97.4748L121.903 97.2708C121.759 97.0548 121.675 97.1028 121.483 97.2348C121.171 97.4388 120.715 97.6908 119.983 97.6908C118.975 97.6908 118.195 96.7188 118.171 95.7948H122.203C122.323 95.7948 122.443 95.6988 122.455 95.5548C122.467 95.4588 122.479 95.3148 122.479 95.2188C122.479 93.7668 121.423 92.6988 119.971 92.6988C118.291 92.6988 117.283 94.0308 117.283 95.5908ZM118.183 95.0868C118.291 94.2228 119.035 93.5028 119.971 93.5028C120.919 93.5028 121.567 94.2708 121.591 95.0868H118.183ZM125.484 98.4948C126.612 98.4948 127.368 97.7868 127.368 96.9108C127.368 95.9028 126.54 95.5428 125.58 95.0988C124.908 94.7868 124.524 94.6068 124.524 94.1148C124.524 93.8508 124.728 93.5028 125.34 93.5028C125.856 93.5028 126.24 93.6828 126.48 93.8268C126.6 93.8988 126.78 93.8868 126.864 93.7308L126.984 93.5028C127.068 93.3468 127.044 93.2268 126.924 93.1308C126.66 92.9388 126.06 92.6988 125.34 92.6988C124.056 92.6988 123.624 93.5748 123.624 94.1508C123.624 95.0988 124.464 95.4948 125.196 95.8548C126 96.2508 126.432 96.4668 126.432 96.9948C126.432 97.4268 126.048 97.6908 125.484 97.6908C124.776 97.6908 124.296 97.3428 124.104 97.1988C123.948 97.0908 123.852 97.1388 123.78 97.2708L123.612 97.5828C123.564 97.6788 123.588 97.7628 123.648 97.8228C123.936 98.0868 124.56 98.4948 125.484 98.4948ZM130.359 98.4948C131.487 98.4948 132.243 97.7868 132.243 96.9108C132.243 95.9028 131.415 95.5428 130.455 95.0988C129.783 94.7868 129.399 94.6068 129.399 94.1148C129.399 93.8508 129.603 93.5028 130.215 93.5028C130.731 93.5028 131.115 93.6828 131.355 93.8268C131.475 93.8988 131.655 93.8868 131.739 93.7308L131.859 93.5028C131.943 93.3468 131.919 93.2268 131.799 93.1308C131.535 92.9388 130.935 92.6988 130.215 92.6988C128.931 92.6988 128.499 93.5748 128.499 94.1508C128.499 95.0988 129.339 95.4948 130.071 95.8548C130.875 96.2508 131.307 96.4668 131.307 96.9948C131.307 97.4268 130.923 97.6908 130.359 97.6908C129.651 97.6908 129.171 97.3428 128.979 97.1988C128.823 97.0908 128.727 97.1388 128.655 97.2708L128.487 97.5828C128.439 97.6788 128.463 97.7628 128.523 97.8228C128.811 98.0868 129.435 98.4948 130.359 98.4948ZM69.1754 116.683C69.1754 117.799 69.9194 118.495 70.8914 118.495C71.7434 118.495 72.3194 118.075 72.6074 117.787L72.7154 118.159C72.7514 118.279 72.7994 118.363 72.9434 118.363H73.1714C73.3154 118.363 73.4354 118.243 73.4354 118.099V115.027C73.4354 113.395 73.1354 112.699 71.7194 112.699C70.8074 112.699 70.0874 112.939 69.8114 113.059C69.6794 113.119 69.5954 113.191 69.6434 113.359L69.7634 113.683C69.8114 113.815 69.8834 113.887 70.0274 113.827C70.2794 113.743 70.9154 113.503 71.6714 113.503C72.4634 113.503 72.5954 114.007 72.5834 115.027C72.5834 115.027 71.9834 114.847 71.3954 114.847C69.9674 114.847 69.1754 115.627 69.1754 116.683ZM70.0514 116.683C70.0514 115.975 70.6274 115.603 71.3954 115.603C71.9474 115.603 72.3914 115.723 72.5714 115.819V116.947C72.3314 117.307 71.7314 117.691 71.0474 117.691C70.4354 117.691 70.0514 117.247 70.0514 116.683ZM75.6158 113.587V116.959C75.6158 117.823 75.8318 118.495 76.8878 118.495C77.6318 118.495 78.2078 118.219 78.4478 118.051C78.5918 117.955 78.6158 117.871 78.5438 117.691L78.4358 117.439C78.3758 117.307 78.3038 117.199 78.0878 117.331C77.8598 117.475 77.5118 117.691 76.9958 117.691C76.6838 117.691 76.5038 117.475 76.5038 116.899V113.587H78.1358C78.2918 113.587 78.4118 113.467 78.4118 113.323V113.083C78.4118 112.927 78.2918 112.819 78.1358 112.819H76.5038V111.259C76.5038 111.115 76.3958 110.983 76.2518 110.995L75.8798 111.019C75.7478 111.031 75.6158 111.139 75.6158 111.283V112.819H74.8838C74.7158 112.819 74.6078 112.927 74.6078 113.083V113.323C74.6078 113.467 74.7158 113.587 74.8838 113.587H75.6158ZM80.1627 113.587V116.959C80.1627 117.823 80.3787 118.495 81.4347 118.495C82.1787 118.495 82.7547 118.219 82.9947 118.051C83.1387 117.955 83.1627 117.871 83.0907 117.691L82.9827 117.439C82.9227 117.307 82.8507 117.199 82.6347 117.331C82.4067 117.475 82.0587 117.691 81.5427 117.691C81.2307 117.691 81.0507 117.475 81.0507 116.899V113.587H82.6827C82.8387 113.587 82.9587 113.467 82.9587 113.323V113.083C82.9587 112.927 82.8387 112.819 82.6827 112.819H81.0507V111.259C81.0507 111.115 80.9427 110.983 80.7987 110.995L80.4267 111.019C80.2947 111.031 80.1627 111.139 80.1627 111.283V112.819H79.4307C79.2627 112.819 79.1547 112.927 79.1547 113.083V113.323C79.1547 113.467 79.2627 113.587 79.4307 113.587H80.1627ZM84.0016 115.591C84.0016 117.175 85.0096 118.495 86.6896 118.495C87.6496 118.495 88.3816 118.123 88.7176 117.859C88.9216 117.703 88.8736 117.643 88.7656 117.475L88.6216 117.271C88.4776 117.055 88.3936 117.103 88.2016 117.235C87.8896 117.439 87.4336 117.691 86.7016 117.691C85.6936 117.691 84.9136 116.719 84.8896 115.795H88.9216C89.0416 115.795 89.1616 115.699 89.1736 115.555C89.1856 115.459 89.1976 115.315 89.1976 115.219C89.1976 113.767 88.1416 112.699 86.6896 112.699C85.0096 112.699 84.0016 114.031 84.0016 115.591ZM84.9016 115.087C85.0096 114.223 85.7536 113.503 86.6896 113.503C87.6376 113.503 88.2856 114.271 88.3096 115.087H84.9016ZM90.6543 118.099C90.6543 118.243 90.7743 118.363 90.9183 118.363H91.2783C91.4103 118.363 91.5423 118.243 91.5423 118.099V114.271C91.5423 114.271 92.2023 113.503 93.2463 113.503C94.0623 113.503 94.4223 113.995 94.4223 115.051V118.099C94.4223 118.243 94.5423 118.363 94.6863 118.363H95.0463C95.1783 118.363 95.3103 118.243 95.3103 118.099V115.171C95.3103 113.743 94.9143 112.699 93.3063 112.699C92.1543 112.699 91.4463 113.407 91.4463 113.407L91.3263 112.987C91.3023 112.867 91.2303 112.819 91.1103 112.819H90.9183C90.7743 112.819 90.6543 112.951 90.6543 113.083V118.099ZM96.775 115.579C96.775 117.163 97.855 118.495 99.259 118.495C100.303 118.495 101.011 117.775 101.011 117.775L101.083 118.135C101.131 118.267 101.203 118.363 101.323 118.363H101.539C101.683 118.363 101.815 118.243 101.815 118.099V110.227C101.815 110.095 101.683 109.963 101.539 109.963H101.203C101.059 109.963 100.939 110.095 100.939 110.227V113.047C100.939 113.047 100.315 112.699 99.403 112.699C97.735 112.699 96.775 113.959 96.775 115.579ZM97.675 115.591C97.675 114.487 98.335 113.503 99.523 113.503C100.291 113.503 100.939 113.815 100.939 113.815V116.803C100.939 116.803 100.363 117.691 99.367 117.691C98.359 117.691 97.675 116.671 97.675 115.591ZM103.254 116.683C103.254 117.799 103.998 118.495 104.97 118.495C105.822 118.495 106.398 118.075 106.686 117.787L106.794 118.159C106.83 118.279 106.878 118.363 107.022 118.363H107.25C107.394 118.363 107.514 118.243 107.514 118.099V115.027C107.514 113.395 107.214 112.699 105.798 112.699C104.886 112.699 104.166 112.939 103.89 113.059C103.758 113.119 103.674 113.191 103.722 113.359L103.842 113.683C103.89 113.815 103.962 113.887 104.106 113.827C104.358 113.743 104.994 113.503 105.75 113.503C106.542 113.503 106.674 114.007 106.662 115.027C106.662 115.027 106.062 114.847 105.474 114.847C104.046 114.847 103.254 115.627 103.254 116.683ZM104.13 116.683C104.13 115.975 104.706 115.603 105.474 115.603C106.026 115.603 106.47 115.723 106.65 115.819V116.947C106.41 117.307 105.81 117.691 105.126 117.691C104.514 117.691 104.13 117.247 104.13 116.683ZM109.334 118.099C109.334 118.243 109.454 118.363 109.598 118.363H109.958C110.09 118.363 110.222 118.243 110.222 118.099V114.271C110.222 114.271 110.882 113.503 111.926 113.503C112.742 113.503 113.102 113.995 113.102 115.051V118.099C113.102 118.243 113.222 118.363 113.366 118.363H113.726C113.858 118.363 113.99 118.243 113.99 118.099V115.171C113.99 113.743 113.594 112.699 111.986 112.699C110.834 112.699 110.126 113.407 110.126 113.407L110.006 112.987C109.982 112.867 109.91 112.819 109.79 112.819H109.598C109.454 112.819 109.334 112.951 109.334 113.083V118.099ZM115.443 115.603C115.443 117.271 116.595 118.495 118.239 118.495C119.163 118.495 119.907 117.991 120.327 117.379C120.423 117.235 120.375 117.115 120.255 116.995L120.183 116.923C120.027 116.767 119.871 116.719 119.715 116.899C119.403 117.259 119.043 117.691 118.203 117.691C117.171 117.691 116.343 116.767 116.343 115.591C116.343 114.439 117.183 113.503 118.239 113.503C118.803 113.503 119.247 113.671 119.631 114.103C119.739 114.223 119.847 114.343 120.027 114.187L120.219 114.007C120.351 113.899 120.375 113.743 120.267 113.611C119.751 113.023 119.079 112.699 118.251 112.699C116.643 112.699 115.443 113.971 115.443 115.603ZM121.396 115.591C121.396 117.175 122.404 118.495 124.084 118.495C125.044 118.495 125.776 118.123 126.112 117.859C126.316 117.703 126.268 117.643 126.16 117.475L126.016 117.271C125.872 117.055 125.788 117.103 125.596 117.235C125.284 117.439 124.828 117.691 124.096 117.691C123.088 117.691 122.308 116.719 122.284 115.795H126.316C126.436 115.795 126.556 115.699 126.568 115.555C126.58 115.459 126.592 115.315 126.592 115.219C126.592 113.767 125.536 112.699 124.084 112.699C122.404 112.699 121.396 114.031 121.396 115.591ZM122.296 115.087C122.404 114.223 123.148 113.503 124.084 113.503C125.032 113.503 125.68 114.271 125.704 115.087H122.296Z" fill="black"/>
<path d="M186.337 97.6001C186.092 97.8473 185.954 98.1818 185.954 98.5304C185.954 98.879 186.092 99.2134 186.337 99.4607L191.009 104.198L186.337 108.869C186.092 109.116 185.954 109.451 185.954 109.799C185.954 110.148 186.092 110.483 186.337 110.73C186.46 110.853 186.606 110.952 186.767 111.019C186.928 111.086 187.1 111.12 187.274 111.12C187.448 111.12 187.621 111.086 187.782 111.019C187.943 110.952 188.088 110.853 188.211 110.73L193.806 105.135C193.93 105.012 194.028 104.866 194.095 104.705C194.162 104.545 194.196 104.372 194.196 104.198C194.196 104.024 194.162 103.851 194.095 103.69C194.028 103.53 193.93 103.384 193.806 103.261L188.211 97.6001C188.088 97.4764 187.943 97.3782 187.782 97.3112C187.621 97.2442 187.448 97.2097 187.274 97.2097C187.1 97.2097 186.928 97.2442 186.767 97.3112C186.606 97.3782 186.46 97.4764 186.337 97.6001Z" fill="#FF3278"/>
<path d="M253.907 80.3628C253.907 75.9445 257.488 72.3628 261.907 72.3628H469.813C474.232 72.3628 477.813 75.9445 477.813 80.3628V128.032C477.813 132.451 474.232 136.032 469.813 136.032H261.907C257.488 136.032 253.907 132.451 253.907 128.032V80.3628Z" fill="#FFEDDF"/>
<path d="M285.909 105.244H279.814C279.54 105.244 279.319 105.022 279.319 104.749V102.289C279.319 102.016 279.54 101.794 279.814 101.794H295.27C295.543 101.794 295.764 102.016 295.764 102.289V104.749C295.764 105.022 295.543 105.244 295.27 105.244H289.359" stroke="black" stroke-width="1.73193" stroke-linecap="round"/>
<path d="M281.105 109.432L279.688 112.327" stroke="black" stroke-width="1.73193" stroke-linecap="round"/>
<path d="M294.224 109.432L295.641 112.327" stroke="black" stroke-width="1.73193" stroke-linecap="round"/>
<path d="M278.272 115.345L276.855 118.24" stroke="black" stroke-width="1.73193" stroke-linecap="round"/>
<path d="M297.057 115.345L298.474 118.24" stroke="black" stroke-width="1.73193" stroke-linecap="round"/>
<path d="M287.634 109.309V112.512" stroke="black" stroke-width="1.73193" stroke-linecap="round"/>
<path d="M287.572 89.3525L287.572 93.4177" stroke="black" stroke-width="1.73193" stroke-linecap="round"/>
<path d="M287.634 115.345V118.548" stroke="black" stroke-width="1.73193" stroke-linecap="round"/>
<path d="M294.717 101.671C294.717 97.6573 291.518 94.4033 287.572 94.4033C283.626 94.4033 280.427 97.6573 280.427 101.671" stroke="black" stroke-width="1.73193"/>
<path d="M323.202 94.1748C323.202 96.5748 325.134 98.4828 327.534 98.4828C328.602 98.4828 329.598 98.0388 330.39 97.3188C330.474 97.2348 330.498 97.0668 330.402 96.9948L330.126 96.7188C330.03 96.6228 329.934 96.6108 329.814 96.7068C329.178 97.2468 328.566 97.6068 327.522 97.6068C325.626 97.6068 324.174 96.0108 324.174 94.1628C324.174 92.3028 325.626 90.7068 327.522 90.7068C328.398 90.7068 329.19 91.0668 329.814 91.6068C329.934 91.7268 330.03 91.7388 330.126 91.6188L330.45 91.2948C330.546 91.1988 330.534 91.0548 330.438 90.9588C329.622 90.2628 328.746 89.8428 327.534 89.8428C325.134 89.8428 323.202 91.7748 323.202 94.1748ZM331.987 98.0988C331.987 98.2428 332.107 98.3628 332.251 98.3628H332.611C332.743 98.3628 332.875 98.2428 332.875 98.0988V94.2948C332.875 94.2948 333.523 93.5028 334.579 93.5028C335.431 93.5028 335.743 94.1148 335.743 95.1708V98.0988C335.743 98.2428 335.863 98.3628 336.007 98.3628H336.379C336.511 98.3628 336.643 98.2428 336.643 98.0988V95.1708C336.643 93.5508 336.019 92.6988 334.639 92.6988C333.523 92.6988 332.875 93.4068 332.875 93.4068V90.2268C332.875 90.0948 332.743 89.9628 332.611 89.9628H332.251C332.107 89.9628 331.987 90.0948 331.987 90.2268V98.0988ZM338.024 96.6828C338.024 97.7988 338.768 98.4948 339.74 98.4948C340.592 98.4948 341.168 98.0748 341.456 97.7868L341.564 98.1588C341.6 98.2788 341.648 98.3628 341.792 98.3628H342.02C342.164 98.3628 342.284 98.2428 342.284 98.0988V95.0268C342.284 93.3948 341.984 92.6988 340.568 92.6988C339.656 92.6988 338.936 92.9388 338.66 93.0588C338.528 93.1188 338.444 93.1908 338.492 93.3588L338.612 93.6828C338.66 93.8148 338.732 93.8868 338.876 93.8268C339.128 93.7428 339.764 93.5028 340.52 93.5028C341.312 93.5028 341.444 94.0068 341.432 95.0268C341.432 95.0268 340.832 94.8468 340.244 94.8468C338.816 94.8468 338.024 95.6268 338.024 96.6828ZM338.9 96.6828C338.9 95.9748 339.476 95.6028 340.244 95.6028C340.796 95.6028 341.24 95.7228 341.42 95.8188V96.9468C341.18 97.3068 340.58 97.6908 339.896 97.6908C339.284 97.6908 338.9 97.2468 338.9 96.6828ZM344.104 98.0988C344.104 98.2428 344.224 98.3628 344.368 98.3628H344.728C344.86 98.3628 344.992 98.2428 344.992 98.0988V94.2708C344.992 94.2708 345.652 93.5028 346.696 93.5028C347.512 93.5028 347.872 93.9948 347.872 95.0508V98.0988C347.872 98.2428 347.992 98.3628 348.136 98.3628H348.496C348.628 98.3628 348.76 98.2428 348.76 98.0988V95.1708C348.76 93.7428 348.364 92.6988 346.756 92.6988C345.604 92.6988 344.896 93.4068 344.896 93.4068L344.776 92.9868C344.752 92.8668 344.68 92.8188 344.56 92.8188H344.368C344.224 92.8188 344.104 92.9508 344.104 93.0828V98.0988ZM351.125 95.5788C351.125 94.4988 351.809 93.5148 352.913 93.5148C353.813 93.5148 354.377 94.1868 354.377 94.1868V97.2228C354.377 97.2228 353.741 97.6788 352.973 97.6788C351.917 97.6788 351.125 96.7788 351.125 95.5788ZM355.265 93.0828C355.265 92.9508 355.133 92.8188 354.989 92.8188H354.821C354.677 92.8188 354.617 92.9028 354.557 93.0108L354.473 93.2628C354.473 93.2628 353.813 92.6988 352.817 92.6988C351.305 92.6988 350.225 94.0068 350.225 95.5908C350.225 97.2108 351.329 98.4948 352.853 98.4948C353.765 98.4948 354.389 98.0028 354.389 98.0028V98.3988C354.389 99.6948 353.717 100.175 352.841 100.175C352.229 100.175 351.749 99.8388 351.449 99.5868C351.317 99.4668 351.173 99.4668 351.089 99.5988L350.849 99.9468C350.789 100.031 350.813 100.187 350.909 100.271C351.197 100.535 351.965 100.991 352.841 100.991C354.101 100.991 355.265 100.295 355.265 98.3988V93.0828ZM356.787 95.5908C356.787 97.1748 357.795 98.4948 359.475 98.4948C360.435 98.4948 361.167 98.1228 361.503 97.8588C361.707 97.7028 361.659 97.6428 361.551 97.4748L361.407 97.2708C361.263 97.0548 361.179 97.1028 360.987 97.2348C360.675 97.4388 360.219 97.6908 359.487 97.6908C358.479 97.6908 357.699 96.7188 357.675 95.7948H361.707C361.827 95.7948 361.947 95.6988 361.959 95.5548C361.971 95.4588 361.983 95.3148 361.983 95.2188C361.983 93.7668 360.927 92.6988 359.475 92.6988C357.795 92.6988 356.787 94.0308 356.787 95.5908ZM357.687 95.0868C357.795 94.2228 358.539 93.5028 359.475 93.5028C360.423 93.5028 361.071 94.2708 361.095 95.0868H357.687ZM364.988 98.4948C366.116 98.4948 366.872 97.7868 366.872 96.9108C366.872 95.9028 366.044 95.5428 365.084 95.0988C364.412 94.7868 364.028 94.6068 364.028 94.1148C364.028 93.8508 364.232 93.5028 364.844 93.5028C365.36 93.5028 365.744 93.6828 365.984 93.8268C366.104 93.8988 366.284 93.8868 366.368 93.7308L366.488 93.5028C366.572 93.3468 366.548 93.2268 366.428 93.1308C366.164 92.9388 365.564 92.6988 364.844 92.6988C363.56 92.6988 363.128 93.5748 363.128 94.1508C363.128 95.0988 363.968 95.4948 364.7 95.8548C365.504 96.2508 365.936 96.4668 365.936 96.9948C365.936 97.4268 365.552 97.6908 364.988 97.6908C364.28 97.6908 363.8 97.3428 363.608 97.1988C363.452 97.0908 363.356 97.1388 363.284 97.2708L363.116 97.5828C363.068 97.6788 363.092 97.7628 363.152 97.8228C363.44 98.0868 364.064 98.4948 364.988 98.4948ZM370.766 96.6828C370.766 97.7988 371.51 98.4948 372.482 98.4948C373.334 98.4948 373.91 98.0748 374.198 97.7868L374.306 98.1588C374.342 98.2788 374.39 98.3628 374.534 98.3628H374.762C374.906 98.3628 375.026 98.2428 375.026 98.0988V95.0268C375.026 93.3948 374.726 92.6988 373.31 92.6988C372.398 92.6988 371.678 92.9388 371.402 93.0588C371.27 93.1188 371.186 93.1908 371.234 93.3588L371.354 93.6828C371.402 93.8148 371.474 93.8868 371.618 93.8268C371.87 93.7428 372.506 93.5028 373.262 93.5028C374.054 93.5028 374.186 94.0068 374.174 95.0268C374.174 95.0268 373.574 94.8468 372.986 94.8468C371.558 94.8468 370.766 95.6268 370.766 96.6828ZM371.642 96.6828C371.642 95.9748 372.218 95.6028 372.986 95.6028C373.538 95.6028 373.982 95.7228 374.162 95.8188V96.9468C373.922 97.3068 373.322 97.6908 372.638 97.6908C372.026 97.6908 371.642 97.2468 371.642 96.6828ZM377.206 93.5868V96.9588C377.206 97.8228 377.422 98.4948 378.478 98.4948C379.222 98.4948 379.798 98.2188 380.038 98.0508C380.182 97.9548 380.206 97.8708 380.134 97.6908L380.026 97.4388C379.966 97.3068 379.894 97.1988 379.678 97.3308C379.45 97.4748 379.102 97.6908 378.586 97.6908C378.274 97.6908 378.094 97.4748 378.094 96.8988V93.5868H379.726C379.882 93.5868 380.002 93.4668 380.002 93.3228V93.0828C380.002 92.9268 379.882 92.8188 379.726 92.8188H378.094V91.2588C378.094 91.1148 377.986 90.9828 377.842 90.9948L377.47 91.0188C377.338 91.0308 377.206 91.1388 377.206 91.2828V92.8188H376.474C376.306 92.8188 376.198 92.9268 376.198 93.0828V93.3228C376.198 93.4668 376.306 93.5868 376.474 93.5868H377.206ZM384.448 93.5868V96.9588C384.448 97.8228 384.664 98.4948 385.72 98.4948C386.464 98.4948 387.04 98.2188 387.28 98.0508C387.424 97.9548 387.448 97.8708 387.376 97.6908L387.268 97.4388C387.208 97.3068 387.136 97.1988 386.92 97.3308C386.692 97.4748 386.344 97.6908 385.828 97.6908C385.516 97.6908 385.336 97.4748 385.336 96.8988V93.5868H386.968C387.124 93.5868 387.244 93.4668 387.244 93.3228V93.0828C387.244 92.9268 387.124 92.8188 386.968 92.8188H385.336V91.2588C385.336 91.1148 385.228 90.9828 385.084 90.9948L384.712 91.0188C384.58 91.0308 384.448 91.1388 384.448 91.2828V92.8188H383.716C383.548 92.8188 383.44 92.9268 383.44 93.0828V93.3228C383.44 93.4668 383.548 93.5868 383.716 93.5868H384.448ZM388.635 98.0988C388.635 98.2428 388.755 98.3628 388.899 98.3628H389.259C389.391 98.3628 389.523 98.2428 389.523 98.0988V94.2948C389.523 94.2948 390.171 93.5028 391.227 93.5028C392.079 93.5028 392.391 94.1148 392.391 95.1708V98.0988C392.391 98.2428 392.511 98.3628 392.655 98.3628H393.027C393.159 98.3628 393.291 98.2428 393.291 98.0988V95.1708C393.291 93.5508 392.667 92.6988 391.287 92.6988C390.171 92.6988 389.523 93.4068 389.523 93.4068V90.2268C389.523 90.0948 389.391 89.9628 389.259 89.9628H388.899C388.755 89.9628 388.635 90.0948 388.635 90.2268V98.0988ZM394.756 95.5908C394.756 97.1748 395.764 98.4948 397.444 98.4948C398.404 98.4948 399.136 98.1228 399.472 97.8588C399.676 97.7028 399.628 97.6428 399.52 97.4748L399.376 97.2708C399.232 97.0548 399.148 97.1028 398.956 97.2348C398.644 97.4388 398.188 97.6908 397.456 97.6908C396.448 97.6908 395.668 96.7188 395.644 95.7948H399.676C399.796 95.7948 399.916 95.6988 399.928 95.5548C399.94 95.4588 399.952 95.3148 399.952 95.2188C399.952 93.7668 398.896 92.6988 397.444 92.6988C395.764 92.6988 394.756 94.0308 394.756 95.5908ZM395.656 95.0868C395.764 94.2228 396.508 93.5028 397.444 93.5028C398.392 93.5028 399.04 94.2708 399.064 95.0868H395.656ZM323.154 115.603C323.154 117.271 324.306 118.495 325.95 118.495C326.874 118.495 327.618 117.991 328.038 117.379C328.134 117.235 328.086 117.115 327.966 116.995L327.894 116.923C327.738 116.767 327.582 116.719 327.426 116.899C327.114 117.259 326.754 117.691 325.914 117.691C324.882 117.691 324.054 116.767 324.054 115.591C324.054 114.439 324.894 113.503 325.95 113.503C326.514 113.503 326.958 113.671 327.342 114.103C327.45 114.223 327.558 114.343 327.738 114.187L327.93 114.007C328.062 113.899 328.086 113.743 327.978 113.611C327.462 113.023 326.79 112.699 325.962 112.699C324.354 112.699 323.154 113.971 323.154 115.603ZM329.108 115.591C329.108 117.175 330.116 118.495 331.796 118.495C332.756 118.495 333.488 118.123 333.824 117.859C334.028 117.703 333.98 117.643 333.872 117.475L333.728 117.271C333.584 117.055 333.5 117.103 333.308 117.235C332.996 117.439 332.54 117.691 331.808 117.691C330.8 117.691 330.02 116.719 329.996 115.795H334.028C334.148 115.795 334.268 115.699 334.28 115.555C334.292 115.459 334.304 115.315 334.304 115.219C334.304 113.767 333.248 112.699 331.796 112.699C330.116 112.699 329.108 114.031 329.108 115.591ZM330.008 115.087C330.116 114.223 330.86 113.503 331.796 113.503C332.744 113.503 333.392 114.271 333.416 115.087H330.008ZM335.76 118.099C335.76 118.243 335.88 118.363 336.024 118.363H336.384C336.516 118.363 336.648 118.243 336.648 118.099V114.271C336.648 114.271 337.308 113.503 338.352 113.503C339.168 113.503 339.528 113.995 339.528 115.051V118.099C339.528 118.243 339.648 118.363 339.792 118.363H340.152C340.284 118.363 340.416 118.243 340.416 118.099V115.171C340.416 113.743 340.02 112.699 338.412 112.699C337.26 112.699 336.552 113.407 336.552 113.407L336.432 112.987C336.408 112.867 336.336 112.819 336.216 112.819H336.024C335.88 112.819 335.76 112.951 335.76 113.083V118.099ZM342.53 113.587V116.959C342.53 117.823 342.746 118.495 343.802 118.495C344.546 118.495 345.122 118.219 345.362 118.051C345.506 117.955 345.53 117.871 345.458 117.691L345.35 117.439C345.29 117.307 345.218 117.199 345.002 117.331C344.774 117.475 344.426 117.691 343.91 117.691C343.598 117.691 343.418 117.475 343.418 116.899V113.587H345.05C345.206 113.587 345.326 113.467 345.326 113.323V113.083C345.326 112.927 345.206 112.819 345.05 112.819H343.418V111.259C343.418 111.115 343.31 110.983 343.166 110.995L342.794 111.019C342.662 111.031 342.53 111.139 342.53 111.283V112.819H341.798C341.63 112.819 341.522 112.927 341.522 113.083V113.323C341.522 113.467 341.63 113.587 341.798 113.587H342.53ZM346.369 115.591C346.369 117.175 347.377 118.495 349.057 118.495C350.017 118.495 350.749 118.123 351.085 117.859C351.289 117.703 351.241 117.643 351.133 117.475L350.989 117.271C350.845 117.055 350.761 117.103 350.569 117.235C350.257 117.439 349.801 117.691 349.069 117.691C348.061 117.691 347.281 116.719 347.257 115.795H351.289C351.409 115.795 351.529 115.699 351.541 115.555C351.553 115.459 351.565 115.315 351.565 115.219C351.565 113.767 350.509 112.699 349.057 112.699C347.377 112.699 346.369 114.031 346.369 115.591ZM347.269 115.087C347.377 114.223 348.121 113.503 349.057 113.503C350.005 113.503 350.653 114.271 350.677 115.087H347.269ZM353.022 118.099C353.022 118.243 353.142 118.363 353.286 118.363H353.646C353.778 118.363 353.91 118.243 353.91 118.099V114.259C353.91 114.259 354.342 113.551 355.41 113.551C355.674 113.551 355.878 113.647 356.01 113.707C356.142 113.767 356.274 113.755 356.334 113.575L356.49 113.143C356.622 112.759 355.938 112.699 355.518 112.699C354.366 112.699 353.814 113.407 353.814 113.407L353.718 113.011C353.682 112.879 353.586 112.819 353.478 112.819H353.286C353.142 112.819 353.022 112.951 353.022 113.083V118.099Z" fill="black"/>
<path d="M440.244 97.6001C439.998 97.8473 439.86 98.1818 439.86 98.5304C439.86 98.879 439.998 99.2134 440.244 99.4607L444.915 104.198L440.244 108.869C439.998 109.116 439.86 109.451 439.86 109.799C439.86 110.148 439.998 110.483 440.244 110.73C440.367 110.853 440.513 110.952 440.673 111.019C440.834 111.086 441.007 111.12 441.181 111.12C441.355 111.12 441.528 111.086 441.688 111.019C441.849 110.952 441.995 110.853 442.118 110.73L447.713 105.135C447.837 105.012 447.935 104.866 448.002 104.705C448.069 104.545 448.103 104.372 448.103 104.198C448.103 104.024 448.069 103.851 448.002 103.69C447.935 103.53 447.837 103.384 447.713 103.261L442.118 97.6001C441.995 97.4764 441.849 97.3782 441.688 97.3112C441.528 97.2442 441.355 97.2097 441.181 97.2097C441.007 97.2097 440.834 97.2442 440.673 97.3112C440.513 97.3782 440.367 97.4764 440.244 97.6001Z" fill="#FF3278"/>
</svg>
