<svg width="64" height="64" viewBox="0 0 64 64" fill="none" xmlns="http://www.w3.org/2000/svg">
<path d="M17.6318 32.7395V56.1671C17.6318 58.2872 19.434 61.9975 32.7908 61.9975" stroke="black" stroke-width="3"/>
<path d="M47.209 32.7395V56.1671C47.209 58.2872 45.4069 61.9975 32.05 61.9975" stroke="black" stroke-width="3"/>
<rect x="26.1299" y="5.83618" width="12.9011" height="7.60071" rx="3.80035" stroke="black" stroke-width="3"/>
<path d="M29.7183 2.00342H35.2306" stroke="black" stroke-width="3" stroke-linecap="round"/>
<path d="M17.319 20.7634L20.9232 23.9436V30.9401L17.001 34.0143" stroke="black" stroke-width="3"/>
<path d="M17.8495 21.7176C17.2488 19.1735 17.9555 13.2371 26.436 13.2371C31.1004 13.2371 31.9837 13.2371 31.8424 13.2371" stroke="black" stroke-width="3"/>
<path d="M47.4349 20.7634L43.8307 23.9436V30.9401L47.7529 34.0143" stroke="black" stroke-width="3"/>
<path d="M46.9044 21.7176C47.5051 19.1735 46.7984 13.2371 38.3179 13.2371C33.6536 13.2371 29.7175 13.2371 32.9115 13.2371" stroke="black" stroke-width="3"/>
</svg>
