<svg width="24" height="24" viewBox="0 0 24 24" fill="none" xmlns="http://www.w3.org/2000/svg">
<path d="M19.501 3.99805H16.501V2.49805C16.501 2.36544 16.4483 2.23826 16.3545 2.14449C16.2608 2.05073 16.1336 1.99805 16.001 1.99805C15.8684 1.99805 15.7412 2.05073 15.6474 2.14449C15.5537 2.23826 15.501 2.36544 15.501 2.49805V3.99805H8.50098V2.49805C8.50098 2.36544 8.4483 2.23826 8.35453 2.14449C8.26076 2.05073 8.13358 1.99805 8.00098 1.99805C7.86837 1.99805 7.74119 2.05073 7.64742 2.14449C7.55366 2.23826 7.50098 2.36544 7.50098 2.49805V3.99805H4.50098C3.83818 3.99884 3.20276 4.26249 2.73409 4.73116C2.26542 5.19983 2.00177 5.83525 2.00098 6.49805V19.498C2.00177 20.1608 2.26542 20.7963 2.73409 21.2649C3.20276 21.7336 3.83818 21.9973 4.50098 21.998H19.501C20.1639 21.9975 20.7994 21.734 21.2682 21.2652C21.7369 20.7965 22.0004 20.1609 22.001 19.498V6.49805C22.0004 5.83517 21.7369 5.19959 21.2682 4.73087C20.7994 4.26214 20.1639 3.99858 19.501 3.99805ZM21.001 19.498C21.001 20.326 20.329 20.998 19.501 20.998H4.50098C3.67098 20.998 3.00098 20.326 3.00098 19.498V10.998H21.001V19.498ZM21.001 9.99805H3.00098V6.49805C3.00098 5.67005 3.67098 4.99805 4.50098 4.99805H7.50098V6.49805C7.50098 6.63066 7.55366 6.75783 7.64742 6.8516C7.74119 6.94537 7.86837 6.99805 8.00098 6.99805C8.13358 6.99805 8.26076 6.94537 8.35453 6.8516C8.4483 6.75783 8.50098 6.63066 8.50098 6.49805V4.99805H15.501V6.49805C15.501 6.63066 15.5537 6.75783 15.6474 6.8516C15.7412 6.94537 15.8684 6.99805 16.001 6.99805C16.1336 6.99805 16.2608 6.94537 16.3545 6.8516C16.4483 6.75783 16.501 6.63066 16.501 6.49805V4.99805H19.501C20.329 4.99805 21.001 5.67005 21.001 6.49805V9.99805Z" fill="black"/>
<path d="M8.15294 15.0585L10.0941 17.7938L14.9176 12.9997" stroke="#FF3278" stroke-linecap="round"/>
</svg>
