<svg width="25" height="24" viewBox="0 0 25 24" fill="none" xmlns="http://www.w3.org/2000/svg">
<path d="M4.32477 8.77071C4.36576 8.22029 4.5976 7.70671 4.97413 7.33224C5.35067 6.95777 5.84426 6.74989 6.3566 6.75H18.6434C19.1557 6.74989 19.6493 6.95777 20.0259 7.33224C20.4024 7.70671 20.6342 8.22029 20.6752 8.77071L21.4935 19.7529C21.516 20.0551 21.4802 20.359 21.3883 20.6456C21.2965 20.9322 21.1506 21.1952 20.9598 21.418C20.7691 21.6409 20.5376 21.8187 20.2799 21.9404C20.0222 22.062 19.744 22.1249 19.4627 22.125H5.53735C5.25603 22.1249 4.97778 22.062 4.72011 21.9404C4.46244 21.8187 4.23093 21.6409 4.04016 21.418C3.8494 21.1952 3.7035 20.9322 3.61166 20.6456C3.51982 20.359 3.48403 20.0551 3.50653 19.7529L4.32477 8.77071V8.77071Z" stroke="black" stroke-linecap="round" stroke-linejoin="round"/>
<path d="M16.25 9.375V4.79167C16.25 3.81921 15.8549 2.88658 15.1517 2.19894C14.4484 1.51131 13.4946 1.125 12.5 1.125C11.5054 1.125 10.5516 1.51131 9.84835 2.19894C9.14509 2.88658 8.75 3.81921 8.75 4.79167V9.375" stroke="black" stroke-linecap="round" stroke-linejoin="round"/>
</svg>
