<svg width="25" height="24" viewBox="0 0 25 24" fill="none" xmlns="http://www.w3.org/2000/svg">
<path d="M7.3188 15.1126C7.92359 17.8259 9.629 19.2578 12.5591 19.1789C15.4341 19.1016 16.9492 17.6574 17.2714 15.0434C17.2967 14.8382 17.1179 14.6525 16.8818 14.6536L7.69993 14.6956C7.45184 14.6967 7.27191 14.9022 7.3188 15.1126ZM18.6196 15.4814C18.2016 18.5949 16.1003 20.4453 12.3826 20.5371C8.62528 20.6299 6.31235 18.8438 5.53994 15.6627C5.30603 14.6995 6.12942 13.793 7.22915 13.7885L16.8877 13.748C17.9293 13.7434 18.7443 14.5541 18.6196 15.4814ZM9.45899 11.0932C9.58541 11.4361 9.3584 11.8005 8.95195 11.9071C8.5455 12.0137 8.11352 11.8223 7.9871 11.4794L7.45435 10.0339C7.09403 8.96542 7.42484 7.82126 8.3312 6.99687C8.99345 6.39448 9.12786 5.53191 8.67188 4.81913L8.04478 3.83886C7.84264 3.52288 7.98245 3.1285 8.35704 2.95799C8.73164 2.78748 9.19918 2.90541 9.40131 3.22139L10.0284 4.20167C10.7982 5.40491 10.5717 6.87104 9.46143 7.881C8.92202 8.37163 8.72366 9.04566 8.9316 9.66296L9.45899 11.0932ZM12.6288 11.0932C12.7553 11.4361 12.5283 11.8005 12.1218 11.9071C11.7154 12.0137 11.2834 11.8223 11.157 11.4794L10.6242 10.0339C10.2639 8.96542 10.5947 7.82126 11.5011 6.99687C12.1633 6.39448 12.2977 5.53191 11.8417 4.81913L11.2146 3.83886C11.0125 3.52288 11.1523 3.1285 11.5269 2.95799C11.9015 2.78748 12.369 2.90541 12.5712 3.22139L13.1983 4.20167C13.968 5.40491 13.7416 6.87104 12.6313 7.881C12.0919 8.37163 11.8935 9.04566 12.1015 9.66296L12.6288 11.0932ZM15.7987 11.0932C15.9251 11.4361 15.6981 11.8005 15.2917 11.9071C14.8852 12.0137 14.4532 11.8223 14.3268 11.4794L13.7941 10.0339C13.4337 8.96542 13.7646 7.82126 14.6709 6.99687C15.3332 6.39448 15.4676 5.53191 15.0116 4.81913L14.3845 3.83886C14.1824 3.52288 14.3222 3.1285 14.6968 2.95799C15.0714 2.78748 15.5389 2.90541 15.741 3.22139L16.3681 4.20167C17.1379 5.40491 16.9115 6.87104 15.8011 7.881C15.2617 8.37163 15.0634 9.04566 15.2713 9.66296L15.7987 11.0932Z" fill="black"/>
<path fill-rule="evenodd" clip-rule="evenodd" d="M6.8588 15.1056H17.9533V14.2H7.53805L6.8588 15.1056Z" fill="black"/>
</svg>
