<svg width="25" height="24" viewBox="0 0 25 24" fill="none" xmlns="http://www.w3.org/2000/svg">
<path d="M15.0712 15.0034L15.9292 16.8484C15.9292 16.8484 19.7862 17.6674 19.7862 19.6154C19.7862 20.9994 18.0702 20.9994 18.0702 20.9994H13.5002L11.2502 19.7494" stroke="black" stroke-width="1.075" stroke-linecap="round" stroke-linejoin="round"/>
<path d="M9.92887 15.0034L9.07187 16.8484C9.07187 16.8484 5.21387 17.6674 5.21387 19.6154C5.21387 20.9994 6.92987 20.9994 6.92987 20.9994H8.99987L11.2499 19.7494L13.9999 17.9994" stroke="black" stroke-width="1.075" stroke-linecap="round" stroke-linejoin="round"/>
<path d="M3.5 15.9262C3.5 15.9262 5.643 15.4652 6.929 15.0042C8.214 8.5462 12.07 9.0072 12.5 9.0072C12.929 9.0072 16.786 8.5462 18.071 15.0042C19.357 15.4642 21.5 15.9262 21.5 15.9262" stroke="black" stroke-width="1.075" stroke-linecap="round" stroke-linejoin="round"/>
<path d="M12.5002 7C13.0307 7 13.5394 6.78929 13.9145 6.41421C14.2895 6.03914 14.5002 5.53043 14.5002 5C14.5002 4.46957 14.2895 3.96086 13.9145 3.58579C13.5394 3.21071 13.0307 3 12.5002 3C11.9698 3 11.4611 3.21071 11.086 3.58579C10.711 3.96086 10.5002 4.46957 10.5002 5C10.5002 5.53043 10.711 6.03914 11.086 6.41421C11.4611 6.78929 11.9698 7 12.5002 7Z" stroke="black" stroke-width="1.075" stroke-linecap="round" stroke-linejoin="round"/>
</svg>
