<svg width="25" height="24" viewBox="0 0 25 24" fill="none" xmlns="http://www.w3.org/2000/svg">
<path d="M14.7499 8.25C15.3433 8.25 15.9233 8.07405 16.4166 7.74441C16.91 7.41477 17.2945 6.94623 17.5216 6.39805C17.7486 5.84987 17.808 5.24667 17.6923 4.66473C17.5765 4.08279 17.2908 3.54824 16.8712 3.12868C16.4517 2.70912 15.9171 2.4234 15.3352 2.30765C14.7532 2.19189 14.1501 2.2513 13.6019 2.47836C13.0537 2.70543 12.5852 3.08994 12.2555 3.58329C11.9259 4.07664 11.7499 4.65666 11.7499 5.25C11.7508 6.04538 12.0672 6.80792 12.6296 7.37033C13.192 7.93275 13.9545 8.24911 14.7499 8.25ZM14.7499 3.75C15.0466 3.75 15.3366 3.83797 15.5833 4.0028C15.83 4.16762 16.0222 4.40189 16.1357 4.67598C16.2493 4.95007 16.279 5.25167 16.2211 5.54264C16.1632 5.83361 16.0204 6.10088 15.8106 6.31066C15.6008 6.52044 15.3335 6.6633 15.0426 6.72118C14.7516 6.77906 14.45 6.74935 14.1759 6.63582C13.9018 6.52229 13.6675 6.33003 13.5027 6.08336C13.3379 5.83668 13.2499 5.54667 13.2499 5.25C13.2504 4.85231 13.4085 4.47104 13.6898 4.18983C13.971 3.90863 14.3522 3.75045 14.7499 3.75ZM21.098 13.1844L21.0982 13.1846C21.0397 13.2153 20.38 13.5457 19.2155 13.5458C17.921 13.5458 16.0024 13.1372 13.5911 11.4551C13.212 12.5761 12.706 13.6501 12.0831 14.6562C13.1377 14.9812 14.1297 15.4823 15.0171 16.1382C16.8049 17.4982 17.7499 19.4388 17.7499 21.75C17.7499 21.9489 17.6709 22.1397 17.5303 22.2803C17.3896 22.421 17.1988 22.5 16.9999 22.5C16.801 22.5 16.6102 22.421 16.4696 22.2803C16.3289 22.1397 16.2499 21.9489 16.2499 21.75C16.2499 17.8397 12.9969 16.4325 11.1736 15.9516C9.62067 17.9053 7.37555 19.5413 4.31611 19.5413C4.0263 19.5413 3.72936 19.5263 3.4253 19.4963C3.32667 19.4872 3.2308 19.4588 3.14323 19.4126C3.05565 19.3663 2.9781 19.3032 2.91506 19.2268C2.85202 19.1504 2.80472 19.0623 2.77591 18.9675C2.7471 18.8728 2.73734 18.7733 2.74719 18.6747C2.75705 18.5762 2.78632 18.4806 2.83333 18.3934C2.88033 18.3062 2.94413 18.2292 3.02105 18.1668C3.09798 18.1045 3.18649 18.0579 3.28149 18.0299C3.37649 18.0019 3.47609 17.993 3.57455 18.0038C6.09042 18.2549 8.26364 17.2367 10.0339 14.9762C10.1096 14.8792 10.1838 14.781 10.2563 14.6816L10.2641 14.671C11.1729 13.4073 11.865 12.001 12.3118 10.5098C8.67539 7.97991 6.35545 9.98485 6.25448 10.0753C6.18187 10.1419 6.09686 10.1934 6.00431 10.2271C5.91176 10.2608 5.81348 10.276 5.71508 10.2717C5.61669 10.2674 5.5201 10.2437 5.43083 10.2021C5.34156 10.1605 5.26137 10.1017 5.19483 10.0291C5.12828 9.95648 5.07669 9.87147 5.043 9.77892C5.00931 9.68637 4.99418 9.58809 4.99848 9.48969C5.00277 9.3913 5.0264 9.29471 5.06802 9.20544C5.10964 9.11618 5.16843 9.03598 5.24105 8.96944C5.33386 8.88366 6.19092 8.12344 7.67067 7.83881C10.1173 7.368 12.3064 8.5801 13.712 9.67969C15.9413 11.4237 17.657 11.9172 18.7037 12.0241C19.8042 12.1369 20.4066 11.8535 20.4125 11.8507L20.4016 11.8562L20.4018 11.8564C20.489 11.8107 20.5844 11.7826 20.6824 11.7737C20.7805 11.7649 20.8793 11.7754 20.9733 11.8047C21.0673 11.8341 21.1546 11.8816 21.2302 11.9447C21.3058 12.0078 21.3682 12.0851 21.414 12.1723C21.4597 12.2595 21.4878 12.3549 21.4966 12.4529C21.5055 12.551 21.4949 12.6498 21.4656 12.7438C21.4363 12.8378 21.3887 12.9251 21.3256 13.0007C21.2626 13.0763 21.1852 13.1387 21.098 13.1844Z" fill="black"/>
</svg>
