<svg width="24" height="25" viewBox="0 0 24 25" fill="none" xmlns="http://www.w3.org/2000/svg">
<path d="M8.62516 22.8343C9.15158 22.8343 9.57833 22.4008 9.57833 21.866C9.57833 21.3312 9.15158 20.8977 8.62516 20.8977C8.09874 20.8977 7.672 21.3312 7.672 21.866C7.672 22.4008 8.09874 22.8343 8.62516 22.8343Z" stroke="black" stroke-width="1.45244" stroke-linecap="round" stroke-linejoin="round"/>
<path d="M19.1106 22.8343C19.637 22.8343 20.0637 22.4008 20.0637 21.866C20.0637 21.3312 19.637 20.8977 19.1106 20.8977C18.5842 20.8977 18.1574 21.3312 18.1574 21.866C18.1574 22.4008 18.5842 22.8343 19.1106 22.8343Z" stroke="black" stroke-width="1.45244" stroke-linecap="round" stroke-linejoin="round"/>
<path d="M1 2.5H4.81267L7.36715 15.4655C7.45431 15.9113 7.69305 16.3117 8.04156 16.5967C8.39008 16.8818 8.82616 17.0332 9.27349 17.0244H18.5383C18.9856 17.0332 19.4217 16.8818 19.7702 16.5967C20.1187 16.3117 20.3574 15.9113 20.4446 15.4655L21.9697 7.34148H5.76583" stroke="black" stroke-width="1.45244" stroke-linecap="round" stroke-linejoin="round"/>
</svg>
