<svg width="16" height="16" viewBox="0 0 16 16" fill="none" xmlns="http://www.w3.org/2000/svg">
<path d="M7.71254 0.666748C6.93835 0.666748 6.18155 0.899965 5.53783 1.33691C4.89412 1.77385 4.39241 2.39489 4.09614 3.1215C3.79987 3.84811 3.72235 4.64765 3.87339 5.41902C4.02443 6.19038 4.39723 6.89893 4.94467 7.45505C5.4921 8.01117 6.18957 8.38989 6.94888 8.54333C7.70819 8.69676 8.49524 8.61801 9.2105 8.31704C9.92575 8.01607 10.5371 7.50639 10.9672 6.85246C11.3973 6.19853 11.6269 5.42972 11.6269 4.64324C11.6269 3.58861 11.2145 2.57717 10.4804 1.83144C9.74632 1.0857 8.75069 0.666748 7.71254 0.666748ZM7.71254 7.02914C7.24802 7.02914 6.79394 6.88921 6.40772 6.62704C6.02149 6.36488 5.72046 5.99225 5.5427 5.55628C5.36494 5.12032 5.31843 4.6406 5.40905 4.17778C5.49967 3.71496 5.72335 3.28983 6.05181 2.95616C6.38027 2.62248 6.79876 2.39525 7.25434 2.30319C7.70993 2.21113 8.18216 2.25838 8.61131 2.43896C9.04047 2.61954 9.40727 2.92535 9.66534 3.31771C9.92341 3.71007 10.0612 4.17136 10.0612 4.64324C10.0612 5.27602 9.81371 5.88288 9.37326 6.33033C8.93281 6.77777 8.33543 7.02914 7.71254 7.02914ZM14.7584 15.7774V14.9821C14.7584 13.5056 14.181 12.0896 13.1533 11.0456C12.1256 10.0016 10.7317 9.41503 9.27828 9.41503H6.14679C4.69338 9.41503 3.29949 10.0016 2.27177 11.0456C1.24405 12.0896 0.666687 13.5056 0.666687 14.9821V15.7774H2.23243V14.9821C2.23243 13.9275 2.64484 12.9161 3.37892 12.1703C4.11301 11.4246 5.10864 11.0056 6.14679 11.0056H9.27828C10.3164 11.0056 11.3121 11.4246 12.0462 12.1703C12.7802 12.9161 13.1926 13.9275 13.1926 14.9821V15.7774H14.7584Z" fill="black"/>
</svg>
