<svg width="25" height="24" viewBox="0 0 25 24" fill="none" xmlns="http://www.w3.org/2000/svg">
<path d="M22.6245 7.2125C22.6264 6.96666 22.5587 6.72519 22.429 6.51536C22.2993 6.30553 22.1128 6.13568 21.8905 6.025C21.6798 5.91326 21.4414 5.86276 21.2028 5.87935C20.9643 5.89594 20.7354 5.97895 20.5426 6.11875L17.5622 8V5.75C17.5622 5.41848 17.4288 5.10054 17.1915 4.86612C16.9541 4.6317 16.6322 4.5 16.2966 4.5H4.90619C4.23488 4.5 3.59106 4.76339 3.11637 5.23223C2.64168 5.70107 2.375 6.33696 2.375 7V17C2.375 17.663 2.64168 18.2989 3.11637 18.7678C3.59106 19.2366 4.23488 19.5 4.90619 19.5H16.2966C16.6322 19.5 16.9541 19.3683 17.1915 19.1339C17.4288 18.8995 17.5622 18.5815 17.5622 18.25V16L20.4983 17.875C20.6948 18.0236 20.9297 18.1141 21.1761 18.1363C21.4225 18.1584 21.6702 18.1111 21.8905 18C22.1167 17.8875 22.3058 17.7137 22.4358 17.499C22.5657 17.2843 22.6312 17.0376 22.6245 16.7875V7.2125ZM21.3146 16.8563C21.2767 16.8563 21.245 16.8562 21.1944 16.8187L16.2966 13.7313V18.25H4.90619C4.57054 18.25 4.24863 18.1183 4.01128 17.8839C3.77394 17.6495 3.6406 17.3315 3.6406 17V7C3.6406 6.66848 3.77394 6.35054 4.01128 6.11612C4.24863 5.8817 4.57054 5.75 4.90619 5.75H16.2966V10.2687L21.2324 7.14375C21.2443 7.13512 21.2587 7.13046 21.2735 7.13046C21.2883 7.13046 21.3027 7.13512 21.3146 7.14375C21.3285 7.14905 21.3402 7.15858 21.3482 7.17094C21.3562 7.18331 21.3599 7.19787 21.3589 7.2125V16.7875C21.3599 16.8021 21.3562 16.8167 21.3482 16.8291C21.3402 16.8414 21.3285 16.851 21.3146 16.8563Z" fill="black"/>
<circle cx="10.25" cy="12" r="2.5625" stroke="black" stroke-width="0.875"/>
</svg>
