<svg width="63" height="64" viewBox="0 0 63 64" fill="none" xmlns="http://www.w3.org/2000/svg">
<path d="M24.0911 18.6671C23.6109 19.1668 23.3413 19.8426 23.3413 20.5471C23.3413 21.2516 23.6109 21.9275 24.0911 22.4271L33.219 32.0005L24.0911 41.4405C23.6109 41.9401 23.3413 42.616 23.3413 43.3205C23.3413 44.025 23.6109 44.7008 24.0911 45.2005C24.3308 45.4504 24.616 45.6488 24.9302 45.7842C25.2444 45.9196 25.5815 45.9893 25.9218 45.9893C26.2622 45.9893 26.5993 45.9196 26.9135 45.7842C27.2277 45.6488 27.5129 45.4504 27.7526 45.2005L38.6854 33.8938C38.9271 33.6459 39.1189 33.351 39.2498 33.026C39.3807 32.701 39.4481 32.3525 39.4481 32.0005C39.4481 31.6484 39.3807 31.2999 39.2498 30.9749C39.1189 30.65 38.9271 30.355 38.6854 30.1071L27.7526 18.6671C27.5129 18.4172 27.2277 18.2188 26.9135 18.0834C26.5993 17.948 26.2622 17.8783 25.9218 17.8783C25.5815 17.8783 25.2444 17.948 24.9302 18.0834C24.616 18.2188 24.3308 18.4172 24.0911 18.6671Z" fill="#FF3278"/>
</svg>
