<svg width="17" height="16" viewBox="0 0 17 16" fill="none" xmlns="http://www.w3.org/2000/svg">
<path d="M2.45837 1C2.19316 1 1.9388 1.10536 1.75127 1.29289C1.56373 1.48043 1.45837 1.73478 1.45837 2V6.586C1.45843 6.85119 1.56382 7.10551 1.75137 7.293L8.75137 14.293C8.9389 14.4805 9.19321 14.5858 9.45837 14.5858C9.72354 14.5858 9.97785 14.4805 10.1654 14.293L14.7514 9.707C14.9388 9.51947 15.0442 9.26516 15.0442 9C15.0442 8.73484 14.9388 8.48053 14.7514 8.293L7.75137 1.293C7.56388 1.10545 7.30957 1.00006 7.04437 1H2.45837ZM6.45837 4.5C6.45837 4.89782 6.30034 5.27936 6.01903 5.56066C5.73773 5.84196 5.3562 6 4.95837 6C4.56055 6 4.17902 5.84196 3.89771 5.56066C3.61641 5.27936 3.45837 4.89782 3.45837 4.5C3.45837 4.10218 3.61641 3.72064 3.89771 3.43934C4.17902 3.15804 4.56055 3 4.95837 3C5.3562 3 5.73773 3.15804 6.01903 3.43934C6.30034 3.72064 6.45837 4.10218 6.45837 4.5Z" fill="black"/>
</svg>
