<svg width="140" height="48" viewBox="0 0 140 48" fill="none" xmlns="http://www.w3.org/2000/svg">
<path d="M8.22956 24.74C12.1896 24.74 14.4696 21.5 14.4696 16.1C14.4696 10.676 12.1896 7.46 8.22956 7.46C4.29356 7.46 2.01356 10.676 2.01356 16.1C2.01356 21.5 4.29356 24.74 8.22956 24.74ZM8.22956 21.908C6.33356 21.908 5.13356 19.772 5.13356 16.1C5.13356 12.428 6.33356 10.316 8.22956 10.316C10.1496 10.316 11.3496 12.428 11.3496 16.1C11.3496 19.772 10.1496 21.908 8.22956 21.908ZM19.5486 24.02C19.5486 24.284 19.7406 24.5 20.0286 24.5H22.1406C22.4046 24.5 22.5966 24.284 22.5966 24.02V8.156C22.5966 7.916 22.4046 7.7 22.1406 7.7H20.8926C20.5566 7.7 20.2926 7.796 20.0526 8.012L16.9806 10.604C16.7646 10.772 16.7166 10.868 16.7406 11.132L16.8846 12.332C16.9086 12.572 17.1486 12.716 17.3886 12.668L19.5486 12.188V24.02Z" fill="black"/>
<path d="M7.20156 43.272C7.20156 43.392 7.30956 43.5 7.42956 43.5H7.89756C8.02956 43.5 8.12556 43.392 8.12556 43.272V39.636H12.9976V43.272C12.9976 43.392 13.0936 43.5 13.2256 43.5H13.6936C13.8136 43.5 13.9216 43.392 13.9216 43.272V35.328C13.9216 35.208 13.8136 35.1 13.6936 35.1H13.2256C13.0936 35.1 12.9976 35.208 12.9976 35.328V38.832H8.12556V35.328C8.12556 35.208 8.02956 35.1 7.89756 35.1H7.42956C7.30956 35.1 7.20156 35.208 7.20156 35.328V43.272ZM15.927 43.236C15.927 43.38 16.047 43.5 16.191 43.5H16.551C16.683 43.5 16.815 43.38 16.815 43.236V39.396C16.815 39.396 17.247 38.688 18.315 38.688C18.579 38.688 18.783 38.784 18.915 38.844C19.047 38.904 19.179 38.892 19.239 38.712L19.395 38.28C19.527 37.896 18.843 37.836 18.423 37.836C17.271 37.836 16.719 38.544 16.719 38.544L16.623 38.148C16.587 38.016 16.491 37.956 16.383 37.956H16.191C16.047 37.956 15.927 38.088 15.927 38.22V43.236Z" fill="#A2A2A2"/>
<path d="M40.9336 18.132C42.0616 18.132 42.9496 17.268 42.9496 16.14C42.9496 15.036 42.0616 14.172 40.9336 14.172C39.8296 14.172 38.9416 15.036 38.9416 16.14C38.9416 17.268 39.8296 18.132 40.9336 18.132ZM38.9416 23.772C38.9416 24.876 39.8296 25.764 40.9336 25.764C42.0616 25.764 42.9496 24.876 42.9496 23.772C42.9496 22.644 42.0616 21.78 40.9336 21.78C39.8296 21.78 38.9416 22.644 38.9416 23.772Z" fill="#A2A2A2"/>
<path d="M58.2296 22.7C58.8296 23.444 60.4376 24.74 63.1016 24.74C66.5096 24.74 69.0776 22.172 69.0776 19.076C69.0776 15.86 66.9176 13.604 63.4136 13.604H61.2776V10.316H66.7736C67.0376 10.316 67.2536 10.1 67.2536 9.836V8.156C67.2536 7.916 67.0376 7.7 66.7736 7.7H58.9736C58.6856 7.7 58.4936 7.916 58.4936 8.156V15.452C58.4936 15.86 58.7576 16.316 59.2616 16.316H63.0776C65.0216 16.316 66.0536 17.564 66.0536 19.076C66.0536 20.636 64.8776 22.004 63.1976 22.004C61.7096 22.004 60.7016 21.188 60.0056 20.612C59.8136 20.444 59.5736 20.492 59.4056 20.636L58.1816 21.86C57.8696 22.148 57.8936 22.316 58.2296 22.7ZM76.0479 21.812C77.3439 20.156 79.2159 17.852 80.2479 16.364C81.2079 14.972 81.9039 13.988 81.9039 12.38C81.9039 9.716 79.9359 7.46 76.3839 7.46C73.4559 7.46 71.5119 9.884 71.5119 9.884C71.3439 10.076 71.3919 10.388 71.5359 10.532L72.7359 11.708C72.9279 11.924 73.1919 11.924 73.4079 11.708C73.9599 11.108 74.9919 10.268 76.1679 10.268C77.9439 10.268 78.7839 11.396 78.7839 12.5C78.7839 13.34 78.3039 14.3 77.5359 15.236C75.9519 17.324 72.9999 21.164 71.3199 23.228C71.2479 23.324 71.1279 23.516 71.1279 23.78V24.02C71.1279 24.284 71.3199 24.5 71.5839 24.5H81.3279C81.5919 24.5 81.8079 24.284 81.8079 24.02V22.316C81.8079 22.076 81.5919 21.86 81.3279 21.86H76.0479V21.812Z" fill="black"/>
<path d="M60.6736 43.212C60.6376 43.38 60.7096 43.5 60.8896 43.5H61.3696C61.4656 43.5 61.5736 43.416 61.5856 43.332L62.6296 37.152C62.6416 37.152 62.6656 37.152 62.6776 37.152L64.9096 43.488C64.9336 43.56 65.0416 43.62 65.1136 43.62H65.3296C65.4016 43.62 65.5096 43.56 65.5336 43.488L67.7416 37.152C67.7536 37.152 67.7776 37.152 67.7896 37.152L68.8576 43.332C68.8816 43.416 68.9776 43.5 69.0736 43.5H69.5536C69.7336 43.5 69.8056 43.38 69.7696 43.212L68.2216 35.148C68.1976 35.052 68.1016 34.98 68.0056 34.98H67.8136C67.7296 34.98 67.6336 35.04 67.6096 35.112L65.2696 41.724C65.2456 41.724 65.2336 41.724 65.2096 41.724L62.8336 35.112C62.8096 35.04 62.7136 34.98 62.6296 34.98H62.4376C62.3416 34.98 62.2456 35.052 62.2216 35.148L60.6736 43.212ZM71.6829 36.528C72.0549 36.528 72.3429 36.228 72.3429 35.88C72.3429 35.496 72.0549 35.208 71.6829 35.208C71.3229 35.208 71.0349 35.496 71.0349 35.88C71.0349 36.228 71.3229 36.528 71.6829 36.528ZM71.2629 43.236C71.2629 43.38 71.3829 43.5 71.5269 43.5H71.8869C72.0189 43.5 72.1509 43.38 72.1509 43.236V38.22C72.1509 38.088 72.0189 37.956 71.8869 37.956H71.5269C71.3829 37.956 71.2629 38.088 71.2629 38.22V43.236ZM74.0285 43.236C74.0285 43.38 74.1485 43.5 74.2925 43.5H74.6525C74.7845 43.5 74.9165 43.38 74.9165 43.236V39.408C74.9165 39.408 75.5765 38.64 76.6205 38.64C77.4365 38.64 77.7965 39.132 77.7965 40.188V43.236C77.7965 43.38 77.9165 43.5 78.0605 43.5H78.4205C78.5525 43.5 78.6845 43.38 78.6845 43.236V40.308C78.6845 38.88 78.2885 37.836 76.6805 37.836C75.5285 37.836 74.8205 38.544 74.8205 38.544L74.7005 38.124C74.6765 38.004 74.6045 37.956 74.4845 37.956H74.2925C74.1485 37.956 74.0285 38.088 74.0285 38.22V43.236Z" fill="#A2A2A2"/>
<path d="M98.9336 18.132C100.062 18.132 100.95 17.268 100.95 16.14C100.95 15.036 100.062 14.172 98.9336 14.172C97.8296 14.172 96.9416 15.036 96.9416 16.14C96.9416 17.268 97.8296 18.132 98.9336 18.132ZM96.9416 23.772C96.9416 24.876 97.8296 25.764 98.9336 25.764C100.062 25.764 100.95 24.876 100.95 23.772C100.95 22.644 100.062 21.78 98.9336 21.78C97.8296 21.78 96.9416 22.644 96.9416 23.772Z" fill="#A2A2A2"/>
<path d="M118.174 24.02C118.174 24.284 118.366 24.5 118.654 24.5H120.766C121.03 24.5 121.222 24.284 121.222 24.02V8.156C121.222 7.916 121.03 7.7 120.766 7.7H119.518C119.182 7.7 118.918 7.796 118.678 8.012L115.606 10.604C115.39 10.772 115.342 10.868 115.366 11.132L115.51 12.332C115.534 12.572 115.774 12.716 116.014 12.668L118.174 12.188V24.02ZM131.183 24.74C135.143 24.74 137.423 21.5 137.423 16.1C137.423 10.676 135.143 7.46 131.183 7.46C127.247 7.46 124.967 10.676 124.967 16.1C124.967 21.5 127.247 24.74 131.183 24.74ZM131.183 21.908C129.287 21.908 128.087 19.772 128.087 16.1C128.087 12.428 129.287 10.316 131.183 10.316C133.103 10.316 134.303 12.428 134.303 16.1C134.303 19.772 133.103 21.908 131.183 21.908Z" fill="black"/>
<path d="M118.306 42.648C118.462 42.792 119.422 43.62 120.838 43.62C122.242 43.62 123.43 42.66 123.43 41.412C123.43 40.02 122.386 39.408 120.766 38.748C119.758 38.328 119.146 37.956 119.146 37.104C119.146 36.6 119.53 35.784 120.802 35.784C121.474 35.784 121.894 35.964 122.398 36.264C122.59 36.372 122.722 36.372 122.818 36.204L122.938 36C123.07 35.772 122.938 35.628 122.866 35.592C122.866 35.592 121.99 34.98 120.814 34.98C118.906 34.98 118.258 36.3 118.258 37.116C118.258 38.484 119.05 38.988 120.37 39.552C121.75 40.14 122.47 40.62 122.47 41.448C122.47 42.204 121.834 42.816 120.862 42.816C119.794 42.816 118.882 42.012 118.798 41.94C118.63 41.796 118.534 41.856 118.414 42.012L118.234 42.24C118.066 42.456 118.21 42.564 118.306 42.648ZM124.524 40.728C124.524 42.312 125.532 43.632 127.212 43.632C128.172 43.632 128.904 43.26 129.24 42.996C129.444 42.84 129.396 42.78 129.288 42.612L129.144 42.408C129 42.192 128.916 42.24 128.724 42.372C128.412 42.576 127.956 42.828 127.224 42.828C126.216 42.828 125.436 41.856 125.412 40.932H129.444C129.564 40.932 129.684 40.836 129.696 40.692C129.708 40.596 129.72 40.452 129.72 40.356C129.72 38.904 128.664 37.836 127.212 37.836C125.532 37.836 124.524 39.168 124.524 40.728ZM125.424 40.224C125.532 39.36 126.276 38.64 127.212 38.64C128.16 38.64 128.808 39.408 128.832 40.224H125.424ZM130.817 40.74C130.817 42.408 131.969 43.632 133.613 43.632C134.537 43.632 135.281 43.128 135.701 42.516C135.797 42.372 135.749 42.252 135.629 42.132L135.557 42.06C135.401 41.904 135.245 41.856 135.089 42.036C134.777 42.396 134.417 42.828 133.577 42.828C132.545 42.828 131.717 41.904 131.717 40.728C131.717 39.576 132.557 38.64 133.613 38.64C134.177 38.64 134.621 38.808 135.005 39.24C135.113 39.36 135.221 39.48 135.401 39.324L135.593 39.144C135.725 39.036 135.749 38.88 135.641 38.748C135.125 38.16 134.453 37.836 133.625 37.836C132.017 37.836 130.817 39.108 130.817 40.74Z" fill="#A2A2A2"/>
</svg>
