<svg width="16" height="23" viewBox="0 0 16 23" fill="none" xmlns="http://www.w3.org/2000/svg">
<path d="M1.44926 17.3536C1.43766 17.4504 1.40749 17.5439 1.36047 17.6287C1.31346 17.7136 1.25052 17.7881 1.17526 17.8482C1.09999 17.9082 1.01387 17.9526 0.921809 17.9786C0.829749 18.0047 0.733554 18.0121 0.638716 18.0002C0.543878 17.9884 0.452254 17.9576 0.369075 17.9097C0.285897 17.8617 0.212793 17.7975 0.153937 17.7207C0.0950818 17.6439 0.0516274 17.5561 0.0260551 17.4621C0.000482857 17.3682 -0.00670648 17.2701 0.0048976 17.1733L0.799807 10.539C1.00126 8.85773 2.37799 7.59051 4.01508 7.59051H11.8842C13.5205 7.59051 14.8973 8.85848 15.0987 10.539L15.8936 17.1733C15.9066 17.2707 15.9005 17.3698 15.8757 17.4647C15.8508 17.5597 15.8078 17.6486 15.7489 17.7265C15.6901 17.8043 15.6167 17.8694 15.533 17.9181C15.4493 17.9667 15.357 17.9979 15.2614 18.0098C15.1658 18.0218 15.0688 18.0142 14.976 17.9876C14.8833 17.961 14.7967 17.9159 14.7212 17.8548C14.6457 17.7938 14.5829 17.718 14.5363 17.632C14.4897 17.5459 14.4604 17.4513 14.45 17.3536L13.6551 10.7192C13.5416 9.77699 12.7802 9.07438 11.8834 9.07438H4.01508C3.11835 9.07438 2.3569 9.77625 2.24344 10.7192L1.44926 17.3536ZM9.19181 3.42009C9.19181 2.90631 8.99174 2.41358 8.63563 2.05029C8.27952 1.68699 7.79652 1.48289 7.2929 1.48289C6.78928 1.48289 6.30628 1.68699 5.95017 2.05029C5.59405 2.41358 5.39399 2.90631 5.39399 3.42009C5.39399 3.93386 5.59405 4.4266 5.95017 4.78989C6.30628 5.15318 6.78928 5.35728 7.2929 5.35728C7.79652 5.35728 8.27952 5.15318 8.63563 4.78989C8.99174 4.4266 9.19181 3.93386 9.19181 3.42009ZM10.6464 3.42009C10.6464 4.32741 10.293 5.19757 9.66415 5.83915C9.03525 6.48072 8.18229 6.84115 7.2929 6.84115C6.40351 6.84115 5.55054 6.48072 4.92165 5.83915C4.29275 5.19757 3.93944 4.32741 3.93944 3.42009C3.93944 2.51277 4.29275 1.6426 4.92165 1.00103C5.55054 0.359456 6.40351 -0.000976562 7.2929 -0.000976562C8.18229 -0.000976562 9.03525 0.359456 9.66415 1.00103C10.293 1.6426 10.6464 2.51277 10.6464 3.42009ZM3.06381 12.3515C3.06381 12.1547 3.14043 11.966 3.27682 11.8269C3.41321 11.6877 3.59819 11.6096 3.79108 11.6096C3.98396 11.6096 4.16895 11.6877 4.30534 11.8269C4.44173 11.966 4.51835 12.1547 4.51835 12.3515V22.1747C4.51835 22.3715 4.44173 22.5602 4.30534 22.6994C4.16895 22.8385 3.98396 22.9167 3.79108 22.9167C3.59819 22.9167 3.41321 22.8385 3.27682 22.6994C3.14043 22.5602 3.06381 22.3715 3.06381 22.1747V12.3515ZM11.3802 12.3515C11.3802 12.1547 11.4568 11.966 11.5932 11.8269C11.7296 11.6877 11.9146 11.6096 12.1074 11.6096C12.3003 11.6096 12.4853 11.6877 12.6217 11.8269C12.7581 11.966 12.8347 12.1547 12.8347 12.3515V22.1747C12.8347 22.3715 12.7581 22.5602 12.6217 22.6994C12.4853 22.8385 12.3003 22.9167 12.1074 22.9167C11.9146 22.9167 11.7296 22.8385 11.5932 22.6994C11.4568 22.5602 11.3802 22.3715 11.3802 22.1747V12.3515Z" fill="black"/>
</svg>
