<svg width="22" height="20" viewBox="0 0 22 20" fill="none" xmlns="http://www.w3.org/2000/svg">
<path d="M10.014 15.267C11.188 15.267 12.134 16.211 12.134 17.383C12.1343 17.6613 12.0796 17.9368 11.9732 18.1939C11.8668 18.451 11.7107 18.6846 11.5138 18.8812C11.317 19.0779 11.0833 19.2338 10.8261 19.34C10.5689 19.4461 10.2933 19.5005 10.015 19.5C9.73658 19.5008 9.46075 19.4466 9.20332 19.3405C8.94589 19.2345 8.71194 19.0786 8.51488 18.882C8.31782 18.6853 8.16154 18.4516 8.05499 18.1944C7.94845 17.9372 7.89374 17.6614 7.894 17.383C7.894 16.211 8.84 15.267 10.014 15.267ZM10.014 18.296C10.2552 18.2926 10.4856 18.1954 10.6562 18.0249C10.8269 17.8545 10.9244 17.6242 10.928 17.383C10.9241 17.142 10.8265 16.912 10.6559 16.7417C10.4853 16.5714 10.255 16.4743 10.014 16.471C9.77281 16.4741 9.54231 16.5711 9.37147 16.7414C9.20063 16.9116 9.10288 17.1418 9.099 17.383C9.099 17.877 9.519 18.296 10.014 18.296ZM16.92 15.266C18.094 15.266 19.04 16.211 19.04 17.383C19.0403 17.6613 18.9856 17.937 18.8791 18.1941C18.7726 18.4513 18.6164 18.6849 18.4195 18.8816C18.2225 19.0783 17.9887 19.2341 17.7314 19.3403C17.4741 19.4464 17.1983 19.5007 16.92 19.5C16.6416 19.5008 16.3657 19.4466 16.1083 19.3405C15.8509 19.2345 15.6169 19.0786 15.4199 18.882C15.2228 18.6853 15.0665 18.4516 14.96 18.1944C14.8534 17.9372 14.7987 17.6614 14.799 17.383C14.799 16.211 15.745 15.267 16.919 15.267L16.92 15.266ZM16.92 18.296C17.0402 18.2969 17.1594 18.274 17.2706 18.2284C17.3819 18.1829 17.483 18.1157 17.568 18.0307C17.6531 17.9458 17.7204 17.8448 17.766 17.7336C17.8117 17.6224 17.8348 17.5032 17.834 17.383C17.8301 17.142 17.7325 16.912 17.5619 16.7417C17.3913 16.5714 17.161 16.4743 16.92 16.471C16.6788 16.4741 16.4483 16.5711 16.2775 16.7414C16.1066 16.9116 16.0089 17.1418 16.005 17.383C16.005 17.877 16.425 18.296 16.92 18.296ZM21.972 5.443L21.117 9.319C21.036 9.669 20.681 9.941 20.314 9.941H7.353C7.227 9.941 7.15 10.037 7.168 10.142L7.432 11.322C7.548 11.91 8.105 12.345 8.734 12.345H19.591C19.961 12.345 20.265 12.626 20.265 12.969C20.265 13.306 19.967 13.593 19.624 13.593H8.767C7.512 13.593 6.432 12.75 6.188 11.573L5.794 9.793L4.609 4.426L4.085 2.023C4.06391 1.94547 4.01836 1.87683 3.95512 1.82728C3.89187 1.77773 3.81432 1.74992 3.734 1.748H0.64C0.298 1.748 0 1.461 0 1.124C0 0.787 0.298 0.5 0.641 0.5H3.734C4.502 0.5 5.182 1.032 5.326 1.759L5.688 3.381C5.706 3.466 5.773 3.517 5.872 3.517H20.314C20.704 3.517 21.087 3.637 21.361 3.867C21.857 4.245 22.083 4.836 21.972 5.443ZM20.625 4.93C20.5932 4.88669 20.5511 4.8519 20.5026 4.8287C20.4542 4.8055 20.4007 4.79461 20.347 4.797H6.201C6.075 4.797 5.999 4.892 6.017 4.997L6.642 7.763L6.807 8.557C6.824 8.642 6.891 8.693 6.991 8.693H19.755C19.855 8.693 19.922 8.643 19.94 8.555L20.696 5.19C20.714 5.101 20.688 5.022 20.626 4.93H20.625Z" fill="black"/>
</svg>
