<svg width="16" height="23" viewBox="0 0 16 23" fill="none" xmlns="http://www.w3.org/2000/svg">
<path d="M1.41241 17.328C1.34847 17.5059 1.21749 17.652 1.04733 17.7351C0.877165 17.8182 0.681236 17.8318 0.501195 17.7729C0.321155 17.7141 0.171204 17.5875 0.083223 17.4201C-0.00475829 17.2527 -0.0238306 17.0576 0.0300609 16.8764L2.35531 9.79373C2.54932 9.20167 2.92585 8.68593 3.43112 8.32018C3.93639 7.95442 4.54455 7.75737 5.16875 7.75715H10.7141C11.3313 7.75715 11.9331 7.94959 12.4353 8.30757C12.9375 8.66556 13.3151 9.17119 13.5152 9.7538L15.9605 16.8662C15.9916 16.9564 16.0045 17.0518 15.9986 17.147C15.9927 17.2422 15.9681 17.3353 15.9261 17.421C15.8842 17.5067 15.8257 17.5833 15.7541 17.6464C15.6825 17.7096 15.5991 17.758 15.5087 17.789C15.4183 17.82 15.3227 17.8329 15.2273 17.827C15.1319 17.8212 15.0386 17.7966 14.9528 17.7547C14.7794 17.6702 14.6467 17.5203 14.584 17.3381L12.1387 10.2257C12.0371 9.92925 11.8451 9.67188 11.5897 9.48962C11.3343 9.30737 11.0281 9.20934 10.7141 9.20926H5.16875C4.85122 9.20935 4.54184 9.30959 4.28482 9.49567C4.0278 9.68175 3.83629 9.94413 3.73766 10.2453L1.41314 17.328H1.41241ZM9.40965 3.31153C9.40892 2.28344 8.58388 1.45211 7.56894 1.45211C6.55401 1.45211 5.72824 2.28344 5.72824 3.31153C5.72824 4.34034 6.55401 5.17168 7.56894 5.17168C8.58388 5.17168 9.40965 4.34034 9.40965 3.31153ZM10.8647 3.31153C10.8647 5.139 9.39073 6.62378 7.56967 6.62378C5.74861 6.62378 4.27387 5.139 4.27387 3.31153C4.27387 1.48405 5.74861 0 7.56967 0C9.39146 0 10.8655 1.48405 10.8655 3.31153H10.8647ZM4.22221 13.4051C4.19594 13.3121 4.18856 13.2147 4.20051 13.1188C4.21245 13.0228 4.24347 12.9302 4.29176 12.8464C4.34004 12.7626 4.40462 12.6892 4.48169 12.6307C4.55876 12.5721 4.64678 12.5295 4.74058 12.5053C4.83438 12.4811 4.93207 12.4759 5.02793 12.4899C5.12379 12.5039 5.21588 12.5369 5.29879 12.5869C5.38171 12.6369 5.45378 12.7029 5.51079 12.7811C5.56779 12.8592 5.60857 12.948 5.63075 13.0421C5.64675 13.106 5.66713 13.2047 5.68459 13.3376C5.83592 14.4448 5.65403 15.8759 4.89883 17.5189C4.79188 17.7527 3.4983 20.3142 3.32732 20.8588C3.18532 21.2965 3.13335 21.7583 3.17454 22.2165C3.18208 22.3116 3.1708 22.4072 3.14132 22.4979C3.11184 22.5886 3.06474 22.6726 3.00272 22.7452C2.87747 22.8917 2.69902 22.9825 2.50664 22.9977C2.31426 23.0129 2.12371 22.9513 1.9769 22.8263C1.83009 22.7013 1.73904 22.5232 1.7238 22.3312C1.66788 21.6872 1.74109 21.0386 1.93915 20.4231C2.15233 19.7465 3.51794 17.0397 3.57614 16.9134C4.21202 15.531 4.35826 14.3773 4.24331 13.5336C4.23784 13.4905 4.23056 13.4476 4.22148 13.4051H4.22221ZM9.93712 13.0421C9.9593 12.948 10.0001 12.8592 10.0571 12.7811C10.1141 12.7029 10.1862 12.6369 10.2691 12.5869C10.352 12.5369 10.4441 12.5039 10.5399 12.4899C10.6358 12.4759 10.7335 12.4811 10.8273 12.5053C10.9211 12.5295 11.0091 12.5721 11.0862 12.6307C11.1633 12.6892 11.2278 12.7626 11.2761 12.8464C11.3244 12.9302 11.3554 13.0228 11.3674 13.1188C11.3793 13.2147 11.3719 13.3121 11.3457 13.4051C11.3366 13.4476 11.3293 13.4905 11.3238 13.5336C11.2089 14.3773 11.3558 15.531 11.991 16.9134C12.0492 17.0405 13.4155 19.7465 13.628 20.4231C13.8259 21.0483 13.8972 21.6524 13.8433 22.3312C13.8234 22.5195 13.7305 22.6925 13.5846 22.8134C13.4386 22.9344 13.2511 22.9936 13.062 22.9785C12.8729 22.9635 12.6971 22.8753 12.5722 22.7328C12.4473 22.5903 12.3831 22.4048 12.3933 22.2158C12.4345 21.7575 12.3826 21.2957 12.2405 20.8581C12.0688 20.3142 10.7753 17.7527 10.6683 17.5182C9.91311 15.8759 9.73123 14.4448 9.88256 13.3376C9.89524 13.2382 9.91345 13.1395 9.93712 13.0421Z" fill="black"/>
</svg>
