<svg width="30" height="31" viewBox="0 0 30 31" fill="none" xmlns="http://www.w3.org/2000/svg">
<path d="M13.2646 16.8833H7.49023C7.23135 16.8833 7.02148 16.6734 7.02148 16.4145V14.0846C7.02148 13.8257 7.23135 13.6159 7.49023 13.6159H22.1313C22.3901 13.6159 22.6 13.8257 22.6 14.0846V16.4145C22.6 16.6734 22.3901 16.8833 22.1313 16.8833H16.532" stroke="black" stroke-width="1.64062" stroke-linecap="round"/>
<path d="M8.71355 20.8508L7.37158 23.5931" stroke="black" stroke-width="1.64062" stroke-linecap="round"/>
<path d="M21.1414 20.8508L22.4834 23.5931" stroke="black" stroke-width="1.64062" stroke-linecap="round"/>
<path d="M6.02947 26.452L4.6875 29.1943" stroke="black" stroke-width="1.64062" stroke-linecap="round"/>
<path d="M23.825 26.452L25.167 29.1943" stroke="black" stroke-width="1.64062" stroke-linecap="round"/>
<path d="M14.8979 20.7341V23.7681" stroke="black" stroke-width="1.64062" stroke-linecap="round"/>
<path d="M14.8398 1.82983L14.8398 5.6807" stroke="black" stroke-width="1.64062" stroke-linecap="round"/>
<path d="M14.8979 26.452V29.486" stroke="black" stroke-width="1.64062" stroke-linecap="round"/>
<path d="M21.6082 13.4992C21.6082 9.69674 18.5779 6.61427 14.84 6.61427C11.102 6.61427 8.07178 9.69674 8.07178 13.4992" stroke="black" stroke-width="1.64062"/>
</svg>
