<svg width="64" height="65" viewBox="0 0 64 65" fill="none" xmlns="http://www.w3.org/2000/svg">
<path d="M17.6318 33.6319V57.0595C17.6318 59.1796 19.434 62.8899 32.7908 62.8899" stroke="black" stroke-width="3"/>
<path d="M47.209 33.6319V57.0595C47.209 59.1796 45.4069 62.8899 32.05 62.8899" stroke="black" stroke-width="3"/>
<rect x="26.1299" y="6.72861" width="12.9011" height="7.60071" rx="3.80035" stroke="black" stroke-width="3"/>
<path d="M29.7183 2.89584H35.2306" stroke="black" stroke-width="3" stroke-linecap="round"/>
<path d="M17.319 21.6559L20.9232 24.8361V31.8326L17.001 34.9068" stroke="black" stroke-width="3"/>
<path d="M17.8495 22.6101C17.2488 20.0659 17.9555 14.1295 26.436 14.1295C31.1004 14.1295 31.9837 14.1295 31.8424 14.1295" stroke="black" stroke-width="3"/>
<path d="M47.4349 21.6559L43.8307 24.8361V31.8326L47.7529 34.9068" stroke="black" stroke-width="3"/>
<path d="M46.9044 22.6101C47.5051 20.0659 46.7984 14.1295 38.3179 14.1295C33.6536 14.1295 29.7175 14.1295 32.9115 14.1295" stroke="black" stroke-width="3"/>
</svg>
