<svg width="64" height="65" viewBox="0 0 64 65" fill="none" xmlns="http://www.w3.org/2000/svg">
<g clip-path="url(#clip0_940_2135)">
<path fill-rule="evenodd" clip-rule="evenodd" d="M21.5052 15.6312C21.7184 15.4019 21.9938 15.2429 22.299 15.1729L42.9666 10.4404C43.2917 10.366 43.632 10.3977 43.9377 10.531C44.2433 10.6642 44.4982 10.892 44.6649 11.1808L45.4443 12.5308L46.7943 11.7513C48.5845 10.7178 50.712 10.4377 52.7087 10.9727C54.7054 11.5077 56.4078 12.814 57.4414 14.6042L60.5591 20.0042C61.5926 21.7944 61.8727 23.9219 61.3377 25.9186C60.8027 27.9153 59.4964 29.6177 57.7062 30.6513L54.3906 32.5656C54.2167 35.8465 52.8956 38.9621 50.6581 41.3679L42.4954 50.154C42.2826 50.3828 42.0061 50.5425 41.7016 50.6123L30.0112 53.2884C26.8089 54.0232 23.4502 53.6096 20.5219 52.1197L17.2063 54.0339C15.4161 55.0675 13.2886 55.3476 11.2919 54.8126C9.29516 54.2776 7.59276 52.9713 6.55919 51.181L3.4415 45.7811C2.40792 43.9909 2.12784 41.8634 2.66286 39.8667C3.19788 37.8699 4.50417 36.1675 6.29438 35.134L7.64438 34.3545L6.86496 33.0046C6.69818 32.7158 6.62838 32.3812 6.66581 32.0499C6.70324 31.7185 6.84594 31.4079 7.07293 31.1637L21.5052 15.6312ZM9.20322 37.0545L7.85322 37.834C6.7791 38.4541 5.99532 39.4755 5.67431 40.6736C5.3533 41.8716 5.52135 43.1481 6.14149 44.2222L9.25918 49.6222C9.87932 50.6963 10.9008 51.4801 12.0988 51.8011C13.2968 52.1221 14.5733 51.9541 15.6474 51.3339L17.6481 50.1788C16.4865 49.1638 15.5006 47.9638 14.7301 46.6274L9.20322 37.0545ZM52.53 24.8036L47.0031 15.2308L48.3531 14.4513C49.4272 13.8312 50.7037 13.6631 51.9018 13.9841C53.0998 14.3052 54.1212 15.0889 54.7414 16.1631L57.8591 21.563C58.4792 22.6372 58.6473 23.9137 58.3262 25.1117C58.0052 26.3097 57.2215 27.3312 56.1473 27.9513L54.1466 29.1064C53.8484 27.5929 53.3022 26.139 52.53 24.8036ZM10.1417 32.4447L17.4309 45.0699C18.5976 47.0906 20.3814 48.6841 22.5204 49.6164C24.6594 50.5488 27.041 50.7709 29.3155 50.2502L40.5388 47.6818L48.3756 39.2477C49.9639 37.5381 50.9624 35.3642 51.2243 33.0453C51.4862 30.7264 50.9978 28.3846 49.8308 26.3638L42.5409 13.7373L23.4625 18.1048L10.1409 32.4434L10.1417 32.4447ZM21.562 33.5192L20.0032 30.8192L36.2032 21.4661L37.762 24.1661L21.562 33.5192ZM26.2386 41.6191L42.4385 32.2661L40.8797 29.5661L24.6797 38.9192L26.2386 41.6191Z" fill="black"/>
</g>
<defs>
<clipPath id="clip0_940_2135">
<rect width="64" height="64" fill="white" transform="translate(0 0.892334)"/>
</clipPath>
</defs>
</svg>
