<svg width="64" height="65" viewBox="0 0 64 65" fill="none" xmlns="http://www.w3.org/2000/svg">
<path d="M28.9429 11.957L6.32951 34.5704C1.99929 39.0209 2.72099 44.3134 4.1644 47.5611C5.14144 49.7594 9.57718 55.8607 14.99 56.5824C19.3202 57.1598 22.8886 54.8984 24.1316 53.6956C31.108 46.6389 45.4219 32.1166 46.8653 30.4807C48.6695 28.4359 51.9172 22.4217 43.8582 14.3627C37.4109 7.91545 31.2283 10.0725 28.9429 11.957Z" stroke="black" stroke-width="3.04762"/>
<path d="M45.9049 33.1269H60.5327C61.4377 33.1269 61.891 34.2212 61.251 34.8611L40.0679 56.0442C39.8774 56.2347 39.619 56.3418 39.3496 56.3418H19.4424" stroke="black" stroke-width="3.04762" stroke-linecap="round"/>
<path d="M12.3491 28.7951C18.6039 27.913 31.1134 30.0701 31.1134 45.7551" stroke="black" stroke-width="3.04762" stroke-linecap="round"/>
<mask id="path-4-inside-1_940_2140" fill="white">
<path d="M12.1976 39.8642C12.9225 38.6806 14.0658 37.8127 15.4007 37.4327C16.7356 37.0526 18.1645 37.1881 19.4042 37.8122C20.6439 38.4364 21.6037 39.5037 22.0933 40.8024C22.5829 42.1011 22.5665 43.5364 22.0474 44.8236L19.2452 43.6936C19.4808 43.1093 19.4883 42.4578 19.266 41.8682C19.0438 41.2787 18.6081 40.7943 18.0454 40.5109C17.4827 40.2276 16.834 40.1661 16.2281 40.3386C15.6222 40.5111 15.1032 40.9051 14.7741 41.4424L12.1976 39.8642Z"/>
</mask>
<path d="M12.1976 39.8642C12.9225 38.6806 14.0658 37.8127 15.4007 37.4327C16.7356 37.0526 18.1645 37.1881 19.4042 37.8122C20.6439 38.4364 21.6037 39.5037 22.0933 40.8024C22.5829 42.1011 22.5665 43.5364 22.0474 44.8236L19.2452 43.6936C19.4808 43.1093 19.4883 42.4578 19.266 41.8682C19.0438 41.2787 18.6081 40.7943 18.0454 40.5109C17.4827 40.2276 16.834 40.1661 16.2281 40.3386C15.6222 40.5111 15.1032 40.9051 14.7741 41.4424L12.1976 39.8642Z" stroke="black" stroke-width="6.09524" mask="url(#path-4-inside-1_940_2140)"/>
<mask id="path-5-inside-2_940_2140" fill="white">
<path d="M10.7356 34.4579C12.411 33.2101 14.4248 32.4987 16.5121 32.4174C18.5995 32.3361 20.6626 32.8887 22.4299 34.0024C24.1971 35.1161 25.5858 36.7388 26.4132 38.6569C27.2406 40.575 27.4678 42.6987 27.0651 44.7484L24.0941 44.1647C24.3789 42.7149 24.2182 41.2128 23.633 39.8561C23.0478 38.4995 22.0656 37.3518 20.8156 36.564C19.5656 35.7763 18.1064 35.3855 16.63 35.443C15.1536 35.5005 13.7292 36.0036 12.5443 36.8862L10.7356 34.4579Z"/>
</mask>
<path d="M10.7356 34.4579C12.411 33.2101 14.4248 32.4987 16.5121 32.4174C18.5995 32.3361 20.6626 32.8887 22.4299 34.0024C24.1971 35.1161 25.5858 36.7388 26.4132 38.6569C27.2406 40.575 27.4678 42.6987 27.0651 44.7484L24.0941 44.1647C24.3789 42.7149 24.2182 41.2128 23.633 39.8561C23.0478 38.4995 22.0656 37.3518 20.8156 36.564C19.5656 35.7763 18.1064 35.3855 16.63 35.443C15.1536 35.5005 13.7292 36.0036 12.5443 36.8862L10.7356 34.4579Z" stroke="black" stroke-width="6.09524" mask="url(#path-5-inside-2_940_2140)"/>
<path d="M13.3928 41.1879C9.42344 48.6454 23.5817 54.3299 25.5188 44.7873" stroke="black" stroke-width="3.04762" stroke-linecap="square"/>
<path d="M11.983 35.4096C7.6178 38.2987 5.69323 45.2845 10.5046 49.7257C15.316 54.167 21.5358 55.5017 23.7359 54.2965" stroke="black" stroke-width="3.04762" stroke-linecap="round"/>
</svg>
