<svg width="1440" height="450" viewBox="0 0 1440 450" fill="none" xmlns="http://www.w3.org/2000/svg">
<rect width="1440" height="450" fill="url(#paint0_linear_599_5035)"/>
<g clip-path="url(#clip0_599_5035)">
<path d="M1290.1 411.67C1290.08 414.915 1243.54 417.288 1186.16 416.969C1128.77 416.65 1082.26 413.763 1082.28 410.518C1082.29 407.273 1128.83 404.902 1186.22 405.219C1243.61 405.538 1290.12 408.428 1290.1 411.67Z" fill="#B7B7B7"/>
<path d="M1084.86 225.102C1107.58 216.498 1118.79 231.725 1104.93 251.415L1101.33 246.696C1104.17 244.515 1106.48 241.592 1107.61 238.304C1111.62 226.993 1099.08 220.721 1087.91 229.109L1084.86 225.102Z" fill="black"/>
<path d="M1073.77 298.397L1030.59 241.793L1078.91 213.186L1115.67 261.367L1073.77 298.397Z" fill="#2B0549"/>
<path d="M1118.43 209.287C1115.21 211.676 1115.31 213.186 1113.33 213.735C1110.42 214.54 1105.07 215.036 1100.54 219.699C1096 224.364 1095.44 225.429 1100.29 230.12C1102.32 232.087 1103.48 233.572 1104.16 234.634C1104.94 235.871 1106.43 236.471 1107.84 236.083C1120.55 232.591 1109.48 229.274 1123.98 220.258C1124.73 219.791 1125.59 219.269 1126.53 218.705C1124.4 215.233 1121.71 212.044 1118.43 209.287Z" fill="#FC7575"/>
<path d="M1314.09 283.768L1329.13 272.089L1339 301.887L1326.55 287.14L1315.99 290.301L1314.09 283.768Z" fill="#241145"/>
<path d="M1244.24 224.461L1197.58 245.1L1141.38 307.104L1113.32 397.744L1126.57 402.885L1165.61 314.031L1248.8 233.764L1244.24 224.461Z" fill="#241145"/>
<path d="M1204.16 237.029L1234.02 332.456L1326.03 294.823L1314.35 280.053L1253.35 300.048L1248.8 233.763L1204.16 237.029Z" fill="#35115E"/>
<path d="M1114.76 397.744L1113.87 400.404L1084.89 403.061L1122.45 413.099L1125.43 401.231L1114.76 397.744Z" fill="#241145"/>
<path d="M1117.38 207.92L1114.46 213.186L1121.1 222.744L1128.22 218.666L1117.38 207.92Z" fill="#C2D6FF"/>
<path d="M1139.56 182.058C1154.42 155.464 1156.66 122.358 1165.59 114.471C1166.18 113.944 1166.78 113.686 1167.44 113.392C1170.84 112.445 1169.49 139.777 1169.54 143.732C1167.39 155.088 1170.57 192.52 1127.94 222.744C1126.13 220.32 1117.28 210.307 1115.68 207.765C1122.16 201.357 1131.22 196.994 1139.56 182.058Z" fill="#2B0549"/>
<path d="M1187.48 199.231C1176.32 157.484 1158.54 122.444 1166.19 114.79C1166.19 114.79 1178.34 107.57 1183.7 105.968C1191.71 103.579 1205.24 104.432 1218.1 125.704C1223.95 135.382 1220.97 159.707 1225.34 180.622C1229.71 201.536 1241.44 219.039 1245.14 234.767C1222.32 240.743 1219.63 241.27 1197.49 247.069C1195.2 239.872 1190.99 212.353 1187.48 199.231Z" fill="#C2D6FF"/>
<path d="M1165.59 114.47C1165.59 114.47 1160.69 120.773 1160.42 132.429C1160.26 139.066 1176.05 173.979 1183.23 204.898C1188.66 228.268 1185.79 250.303 1186.66 250.735C1188.68 251.739 1199.26 253.106 1199.26 253.106L1194.12 182.642L1171.71 133.106C1170.43 127.498 1170.14 120.26 1171.47 114.741C1172.14 111.972 1173.47 110.717 1174.78 108.144L1165.59 114.47Z" fill="#241145"/>
<path d="M1169.53 93.007L1171.38 114.018C1171.77 118.336 1174.71 121.514 1178.12 121.343C1178.98 121.3 1179.89 121.215 1180.8 121.075C1185.37 120.372 1189.66 116.336 1188.77 110.6C1187.62 103.242 1184.98 90.9988 1185.06 84.5477C1185.2 73.9858 1169.56 87.6187 1169.53 93.007Z" fill="#FC7575"/>
<path d="M1185.06 84.5451C1185.2 73.9857 1169.56 87.6186 1169.53 93.0069L1170.61 105.288C1172.19 105.023 1175.55 104.348 1178.61 103.035C1182.78 101.244 1183.08 95.761 1185.55 94.2281C1185.67 94.1515 1185.8 94.0493 1185.93 93.9292C1185.4 90.3523 1185.03 87.0233 1185.06 84.5451Z" fill="#FD5E5A"/>
<path d="M1149.72 58.1249C1154.21 61.1243 1163.02 65.4779 1166.32 61.1422C1163.37 66.1064 1153.62 62.7722 1148.54 60.2684L1149.72 58.1249Z" fill="#0F1D5B"/>
<path d="M1162.66 71.525C1162.66 71.525 1157.13 67.197 1158.05 70.968C1158.96 74.7416 1161.7 82.8508 1164.63 79.6725C1167.57 76.4968 1162.66 71.525 1162.66 71.525Z" fill="#FD5E5A"/>
<path d="M1174.08 53.2855C1173.33 54.0597 1165.1 53.4005 1162.36 62.2583C1159.62 71.1161 1162.6 91.4402 1167.81 96.9179C1173.01 102.396 1179.02 99.0027 1183.71 89.846C1188.4 80.6893 1197.49 68.9342 1190.91 60.1556C1187.41 55.4878 1174.08 53.2855 1174.08 53.2855Z" fill="#FC7575"/>
<path d="M1164.2 89.9105C1164.2 89.9105 1166.61 95.848 1164.19 98.3518C1161.78 100.856 1171.11 101.824 1174.24 100.963C1177.38 100.102 1181.38 99.2282 1182.65 98.265C1184.75 96.6733 1184.89 76.2035 1183.09 80.9888C1181.29 85.7741 1177.06 94.1797 1175.3 94.1695C1173.54 94.1593 1171.28 94.6217 1169.49 94.6115C1167.69 94.6064 1164.2 89.9105 1164.2 89.9105Z" fill="#0F1D5B"/>
<path d="M1172.78 57.2227C1172 61.8879 1167.51 68.2751 1156.93 61.2134C1146.34 54.1517 1148.48 45.2914 1148.48 45.2914C1148.48 45.2914 1153.83 52.6367 1157.13 51.0986C1160.43 49.5606 1158.09 40.8305 1158.09 40.8305C1158.09 40.8305 1170.06 39.9619 1172.31 39.9746C1174.55 39.9874 1176.8 47.3148 1176.8 47.3148C1176.8 47.3148 1175.28 44.0369 1187.11 43.0124C1198.94 41.9879 1191.91 60.3908 1193.22 66.778C1194.53 73.1678 1186.43 84.4118 1186.41 88.1471C1186.39 91.8823 1188.32 94.2277 1188.32 94.2277C1188.32 94.2277 1185.77 94.8358 1183.57 88.2876C1181.36 81.7369 1185.51 72.1177 1185.54 67.1382C1185.57 61.0857 1182.86 58.8987 1180.45 57.0157C1178.66 55.6131 1173.55 52.5575 1172.78 57.2227Z" fill="#0F1D5B"/>
<path d="M1185.15 73.3517C1185.15 73.3517 1180.78 81.6244 1183.84 80.9959C1186.91 80.3674 1192.96 76.1263 1191.67 70.2041C1190.37 64.2818 1185.15 73.3517 1185.15 73.3517Z" fill="#FC7575"/>
<path d="M1185.15 73.3518C1185.15 73.3518 1187.83 70.7228 1188.72 71.6528C1190.78 73.8244 1183.93 79.9562 1183.94 78.3108C1183.95 76.668 1185.15 73.3518 1185.15 73.3518Z" fill="#FD5E5A"/>
<path d="M1174.41 71.3645C1174.4 72.6317 1173.68 73.6562 1172.78 73.6536C1171.89 73.6485 1171.17 72.6164 1171.18 71.3491C1171.19 70.0793 1171.91 69.0574 1172.81 69.0599C1173.7 69.0651 1174.42 70.0972 1174.41 71.3645Z" fill="#18287D"/>
<path d="M1165 71.3133C1164.99 72.5805 1164.27 73.605 1163.37 73.5999C1162.48 73.5948 1161.76 72.5626 1161.77 71.2954C1161.78 70.0282 1162.51 69.0037 1163.4 69.0062C1164.29 69.0139 1165.01 70.0435 1165 71.3133Z" fill="#18287D"/>
<path d="M1172.84 63.4391L1172.34 64.903C1172.34 64.903 1174.73 64.0855 1176.35 66.1473C1176.35 66.1473 1174.8 63.1095 1172.84 63.4391Z" fill="#18287D"/>
<path d="M1161.8 66.6047C1161.8 66.6047 1163.53 65.4422 1164.72 65.4473L1164.09 64.3334C1164.09 64.3334 1161.8 65.3349 1161.8 66.6047Z" fill="#18287D"/>
<path d="M1162.68 67.1385L1157.63 67.1104C1156.01 67.1002 1154.68 68.5744 1154.67 70.4037L1154.65 74.3484C1154.64 76.1752 1155.95 77.6647 1157.58 77.6723L1162.63 77.7004C1164.25 77.7081 1165.58 76.2365 1165.59 74.4072L1165.61 70.4624C1165.62 68.6357 1164.31 67.1462 1162.68 67.1385ZM1164.23 74.3995C1164.22 75.3831 1163.5 76.1777 1162.63 76.1726L1157.58 76.1445C1156.71 76.1394 1156 75.3372 1156.01 74.3535L1156.03 70.4088C1156.03 69.4251 1156.75 68.6306 1157.62 68.6357L1162.67 68.6638C1163.55 68.6689 1164.25 69.4711 1164.25 70.4548L1164.23 74.3995Z" fill="#0F1D5B"/>
<path d="M1178.08 67.0954L1172.19 67.0622C1170.3 67.052 1168.76 68.5593 1168.75 70.4321L1168.73 74.4714C1168.71 76.3415 1170.24 77.8668 1172.13 77.877L1178.02 77.9102C1179.91 77.9205 1181.45 76.4131 1181.46 74.5403L1181.49 70.5011C1181.49 68.6309 1179.97 67.1056 1178.08 67.0954ZM1179.88 74.5327C1179.87 75.5393 1179.04 76.3518 1178.02 76.3466L1172.14 76.3134C1171.12 76.3083 1170.3 75.4857 1170.31 74.479L1170.33 70.4397C1170.33 69.4331 1171.17 68.6207 1172.18 68.6258L1178.06 68.659C1179.08 68.6641 1179.91 69.4868 1179.9 70.4934L1179.88 74.5327Z" fill="#0F1D5B"/>
<path d="M1165.91 84.5321C1165.92 84.4529 1163.79 78.0146 1166.57 67.9662C1166.7 67.468 1167.47 67.6724 1167.33 68.1731C1167.3 68.2625 1164.91 77.0744 1166.49 83.6149C1168.81 83.2623 1169.68 82.6568 1169.82 83.3262C1169.96 84.0083 1168.93 83.7733 1165.91 84.5321Z" fill="#18287D"/>
<path d="M1169.11 70.6348L1165.03 70.6123L1165.02 72.0456L1169.1 72.0681L1169.11 70.6348Z" fill="#0F1D5B"/>
<path d="M1167.75 33C1171.29 33.1558 1174.9 34.699 1176.54 37.839C1178.01 40.6315 1177.7 43.1276 1177.6 45.0489L1177.19 47.3764L1176.41 47.2435C1176.43 46.6201 1176.69 44.6452 1176.42 42.7495C1175.74 37.7342 1172.34 35.4987 1167.73 35.8002L1167.75 33Z" fill="#0F1D5B"/>
<path d="M1187.78 104.81L1188.89 183.588L1193.22 204.896L1222.27 246.372C1222.27 246.372 1247.66 240.294 1253.35 235.151C1253.35 235.151 1239.83 207.292 1231.99 180.622C1225.96 160.116 1225.47 140.31 1223.74 134.414C1219.75 120.842 1216.97 103.446 1187.78 104.81Z" fill="#35115E"/>
<path d="M1213.33 113.096C1192.21 103.666 1191.93 173.619 1191.93 178.34C1191.93 179.227 1190.76 179.306 1188.8 178.841L1188.89 183.588L1192.67 202.17C1195.76 202.604 1198.14 202.315 1199.39 200.989C1206.2 193.738 1218.38 140.622 1218.38 126.121C1218.38 122.071 1217.99 119.269 1217.42 117.329C1216.52 115.845 1215.49 114.432 1214.28 113.127C1213.72 112.981 1213.33 113.096 1213.33 113.096Z" fill="#241145"/>
<path d="M1168.72 89.4121C1168.3 89.4044 1168.31 88.7683 1168.73 88.781C1168.79 88.7836 1174.51 88.8475 1175.98 85.9017C1176.17 85.5287 1176.74 85.8097 1176.55 86.1853C1175.31 88.6558 1171.42 89.4402 1168.72 89.4121Z" fill="#18287D"/>
<path d="M1152.46 162.735C1144.22 160.203 1145.96 151.184 1142.95 148.177C1139.94 145.17 1129.95 143.43 1129.95 147.543C1129.95 151.657 1121.39 159.569 1124.88 163.052C1128.36 166.534 1141.05 170.647 1147.7 172.862C1148.39 173.092 1149.42 173.588 1150.71 174.283C1152.56 170.842 1154.47 167.444 1155.94 163.877C1154.58 163.417 1153.4 163.024 1152.46 162.735Z" fill="#FC7575"/>
<path d="M1151.36 160.729L1147.35 173.368L1158.86 180.621L1164.34 165.785L1151.36 160.729Z" fill="#C2D6FF"/>
<path d="M1210.16 109.882C1189.04 101.032 1187.34 166.848 1187.34 171.281C1187.34 175.205 1165.79 165.047 1155.29 161.468C1153.82 165.032 1150.57 174.669 1148.72 178.113C1159.94 184.14 1193.27 201.436 1199.38 195.335C1206.2 188.531 1218.38 138.686 1218.38 125.076C1218.38 111.463 1210.16 109.882 1210.16 109.882Z" fill="#371863"/>
<path d="M1210.16 109.882C1207.08 108.834 1204.3 109.138 1201.83 111.103C1191.47 119.458 1188.45 157.6 1187.34 171.281C1186.46 156.32 1189.3 113.901 1203.4 109.292C1205.08 108.607 1207.63 108.607 1210.16 109.882Z" fill="#8B93C9"/>
<path d="M1207.72 209.287L1226.08 238.05L1243.81 230.253L1226.71 236.201L1207.72 209.287Z" fill="#593A76"/>
<path d="M1248.8 350.312C1237.22 350.312 1225.89 338.655 1225.42 338.156C1225.24 337.967 1225.24 337.666 1225.43 337.484C1225.62 337.303 1225.93 337.311 1226.11 337.5C1226.22 337.62 1237.62 349.362 1248.8 349.362C1260.08 349.362 1306.5 326.261 1306.96 326.026C1307.2 325.911 1307.49 326.003 1307.6 326.238C1307.72 326.473 1307.62 326.756 1307.39 326.874C1305.47 327.832 1260.3 350.312 1248.8 350.312Z" fill="#35385F"/>
<path d="M1027.3 266.249C1027.16 266.249 1027.01 266.183 1026.92 266.057C1016.55 252.003 1012.92 241.834 1016.14 235.833C1019.15 230.207 1026.99 230.506 1027.33 230.524C1027.59 230.537 1027.79 230.756 1027.78 231.02C1027.77 231.283 1027.55 231.48 1027.28 231.472C1027.21 231.469 1019.7 231.186 1016.97 236.288C1013.99 241.86 1017.7 251.96 1027.69 265.498C1027.84 265.71 1027.8 266.006 1027.59 266.162C1027.5 266.218 1027.4 266.249 1027.3 266.249Z" fill="#35385F"/>
<path d="M1242.31 140.53C1242.28 140.53 1242.25 140.528 1242.23 140.522C1241.97 140.476 1241.8 140.231 1241.84 139.973C1243.95 128.108 1237.96 118.262 1232.56 112.092C1226.69 105.375 1220.23 101.44 1220.17 101.402C1219.94 101.267 1219.87 100.975 1220.01 100.75C1220.14 100.526 1220.43 100.454 1220.66 100.589C1220.73 100.63 1227.3 104.642 1233.28 111.466C1241.22 120.541 1244.5 130.454 1242.78 140.137C1242.74 140.369 1242.54 140.53 1242.31 140.53Z" fill="#35385F"/>
</g>
<path d="M105.76 74.04C105.76 82.04 112.2 88.4 120.2 88.4C123.76 88.4 127.2 87.16 129.92 84.52C130.2 84.24 130.28 83.72 129.96 83.44L127.48 80.88C127.24 80.64 126.8 80.6 126.48 80.88C124.8 82.24 122.76 83.16 120.36 83.16C115.24 83.16 111.4 78.92 111.4 73.92C111.4 68.88 115.2 64.6 120.32 64.6C122.56 64.6 124.8 65.48 126.48 66.96C126.8 67.28 127.2 67.28 127.48 66.96L129.92 64.44C130.24 64.12 130.24 63.64 129.88 63.32C127.16 60.88 124.24 59.6 120.2 59.6C112.2 59.6 105.76 66.04 105.76 74.04ZM132.299 88H135.779C136.419 88 136.779 87.6 136.939 87.2L138.899 82.88H150.859L152.819 87.2C153.099 87.76 153.379 88 153.979 88H157.459C158.059 88 158.379 87.48 158.139 86.96L145.819 60.04C145.699 59.8 145.539 59.6 145.139 59.6H144.739C144.379 59.6 144.179 59.8 144.059 60.04L131.619 86.96C131.379 87.48 131.699 88 132.299 88ZM140.859 78.44L144.779 69.64H144.899L148.899 78.44H140.859ZM161.658 87.24C161.658 87.64 161.978 88 162.418 88H166.098C166.498 88 166.858 87.64 166.858 87.24V77.04H171.298L176.618 87.64C176.698 87.8 176.898 88 177.258 88H181.458C182.138 88 182.418 87.36 182.138 86.84L176.658 76.68C180.138 75.28 182.578 72.28 182.578 68.6C182.578 63.84 178.658 60 173.858 60H162.418C161.978 60 161.658 60.36 161.658 60.76V87.24ZM166.898 72.76V64.8H173.418C175.538 64.8 177.378 66.56 177.378 68.68C177.378 70.92 175.538 72.76 173.418 72.76H166.898ZM188.064 87.24C188.064 87.64 188.384 88 188.824 88H205.104C205.544 88 205.864 87.64 205.864 87.24V83.96C205.864 83.56 205.544 83.2 205.104 83.2H193.264V76.2H203.144C203.544 76.2 203.904 75.88 203.904 75.44V72.12C203.904 71.72 203.544 71.36 203.144 71.36H193.264V64.8H205.104C205.544 64.8 205.864 64.44 205.864 64.04V60.76C205.864 60.36 205.544 60 205.104 60H188.824C188.384 60 188.064 60.36 188.064 60.76V87.24ZM211.111 87.24C211.111 87.64 211.431 88 211.871 88H228.151C228.591 88 228.911 87.64 228.911 87.24V83.96C228.911 83.56 228.591 83.2 228.151 83.2H216.311V76.2H226.191C226.591 76.2 226.951 75.88 226.951 75.44V72.12C226.951 71.72 226.591 71.36 226.191 71.36H216.311V64.8H228.151C228.591 64.8 228.911 64.44 228.911 64.04V60.76C228.911 60.36 228.591 60 228.151 60H211.871C211.431 60 211.111 60.36 211.111 60.76V87.24ZM234.158 87.24C234.158 87.64 234.478 88 234.918 88H238.598C238.998 88 239.358 87.64 239.358 87.24V77.04H243.798L249.118 87.64C249.198 87.8 249.398 88 249.758 88H253.958C254.638 88 254.918 87.36 254.638 86.84L249.158 76.68C252.638 75.28 255.078 72.28 255.078 68.6C255.078 63.84 251.158 60 246.358 60H234.918C234.478 60 234.158 60.36 234.158 60.76V87.24ZM239.398 72.76V64.8H245.918C248.038 64.8 249.878 66.56 249.878 68.68C249.878 70.92 248.038 72.76 245.918 72.76H239.398ZM268.204 88.4C273.844 88.4 277.404 84.6 277.404 80.48C277.404 75.32 272.924 73 269.044 71.44C265.804 70.12 264.324 68.84 264.324 66.96C264.324 65.44 265.564 64.16 267.844 64.16C270.044 64.16 271.684 65.28 273.404 66.36C273.884 66.68 274.484 66.36 274.804 65.88L276.324 63.6C276.604 63.2 276.484 62.52 276.084 62.28C275.284 61.68 272.164 59.6 268.084 59.6C261.724 59.6 259.084 63.72 259.084 67.28C259.084 72 262.844 74.4 266.604 75.92C269.964 77.28 271.684 78.68 271.684 80.72C271.684 82.44 270.124 83.8 268.044 83.8C265.444 83.8 263.644 82.56 262.004 81.32C261.644 81.04 260.964 81.04 260.644 81.6L259.204 84.08C258.844 84.72 259.004 84.96 259.404 85.28C260.564 86.28 263.164 88.4 268.204 88.4ZM289.33 88H292.81C293.45 88 293.81 87.6 293.97 87.2L295.93 82.88H307.89L309.85 87.2C310.13 87.76 310.41 88 311.01 88H314.49C315.09 88 315.41 87.48 315.17 86.96L302.85 60.04C302.73 59.8 302.57 59.6 302.17 59.6H301.77C301.41 59.6 301.21 59.8 301.09 60.04L288.65 86.96C288.41 87.48 288.73 88 289.33 88ZM297.89 78.44L301.81 69.64H301.93L305.93 78.44H297.89ZM321.412 87.24C321.412 87.64 321.772 88 322.172 88H325.892C326.292 88 326.652 87.64 326.652 87.24V64.8H332.772C333.212 64.8 333.532 64.44 333.532 64.04V60.76C333.532 60.36 333.212 60 332.772 60H315.292C314.852 60 314.532 60.36 314.532 60.76V64.04C314.532 64.44 314.852 64.8 315.292 64.8H321.412V87.24ZM345.955 74.04C345.955 82.04 352.395 88.4 360.395 88.4C363.955 88.4 367.395 87.16 370.115 84.52C370.395 84.24 370.475 83.72 370.155 83.44L367.675 80.88C367.435 80.64 366.995 80.6 366.675 80.88C364.995 82.24 362.955 83.16 360.555 83.16C355.435 83.16 351.595 78.92 351.595 73.92C351.595 68.88 355.395 64.6 360.515 64.6C362.755 64.6 364.995 65.48 366.675 66.96C366.995 67.28 367.395 67.28 367.675 66.96L370.115 64.44C370.435 64.12 370.435 63.64 370.075 63.32C367.355 60.88 364.435 59.6 360.395 59.6C352.395 59.6 345.955 66.04 345.955 74.04ZM374.854 77.72C374.854 83.8 379.694 88.4 385.974 88.4C392.294 88.4 397.134 83.8 397.134 77.72V60.76C397.134 60.36 396.774 60 396.374 60H392.574C392.134 60 391.814 60.36 391.814 60.76V77.48C391.814 80.84 389.454 83.2 385.974 83.2C382.494 83.2 380.174 80.84 380.174 77.44V60.76C380.174 60.36 379.854 60 379.414 60H375.614C375.214 60 374.854 60.36 374.854 60.76V77.72ZM403.65 87.24C403.65 87.64 403.97 88 404.41 88H419.05C419.49 88 419.81 87.64 419.81 87.24V83.96C419.81 83.56 419.49 83.2 419.05 83.2H408.85V60.76C408.85 60.36 408.49 60 408.09 60H404.41C403.97 60 403.65 60.36 403.65 60.76V87.24ZM426.803 87.24C426.803 87.64 427.163 88 427.563 88H431.283C431.683 88 432.043 87.64 432.043 87.24V64.8H438.163C438.603 64.8 438.923 64.44 438.923 64.04V60.76C438.923 60.36 438.603 60 438.163 60H420.683C420.243 60 419.923 60.36 419.923 60.76V64.04C419.923 64.44 420.243 64.8 420.683 64.8H426.803V87.24ZM439.701 84.64C439.701 86.68 441.421 88.44 443.501 88.44C445.581 88.44 447.341 86.68 447.341 84.64C447.341 82.56 445.581 80.8 443.501 80.8C441.421 80.8 439.701 82.56 439.701 84.64ZM452.283 87.24C452.283 87.64 452.603 88 453.043 88H456.723C457.123 88 457.483 87.64 457.483 87.24V77.12H467.363C467.763 77.12 468.123 76.76 468.123 76.36V73.08C468.123 72.68 467.763 72.32 467.363 72.32H457.483V64.8H469.323C469.763 64.8 470.083 64.44 470.083 64.04V60.76C470.083 60.36 469.763 60 469.323 60H453.043C452.603 60 452.283 60.36 452.283 60.76V87.24ZM474.548 87.24C474.548 87.64 474.908 88 475.308 88H479.028C479.428 88 479.788 87.64 479.788 87.24V60.76C479.788 60.36 479.428 60 479.028 60H475.308C474.908 60 474.548 60.36 474.548 60.76V87.24ZM491.1 87.24C491.1 87.64 491.46 88 491.86 88H495.58C495.98 88 496.34 87.64 496.34 87.24V64.8H502.46C502.9 64.8 503.22 64.44 503.22 64.04V60.76C503.22 60.36 502.9 60 502.46 60H484.98C484.54 60 484.22 60.36 484.22 60.76V64.04C484.22 64.44 484.54 64.8 484.98 64.8H491.1V87.24Z" fill="black"/>
<path d="M119.064 165.904C119.112 166.096 119.304 166.24 119.496 166.24H119.88C120.12 166.24 120.216 166.12 120.288 165.976L124.536 155.104H124.656L128.952 165.976C129 166.12 129.144 166.24 129.36 166.24H129.744C129.936 166.24 130.128 166.096 130.176 165.904L134.712 149.776C134.808 149.44 134.616 149.2 134.28 149.2H132.072C131.88 149.2 131.688 149.368 131.64 149.536L129.192 159.112H129.096L125.256 149.224C125.208 149.08 125.088 148.96 124.848 148.96H124.416C124.176 148.96 124.056 149.08 124.008 149.224L120.192 159.112H120.096L117.6 149.536C117.552 149.368 117.36 149.2 117.168 149.2H114.96C114.624 149.2 114.432 149.44 114.528 149.776L119.064 165.904ZM135.02 160.432C135.02 163.6 137.564 166.264 140.684 166.264C143.828 166.264 146.372 163.6 146.372 160.432C146.372 157.312 143.828 154.672 140.684 154.672C137.564 154.672 135.02 157.312 135.02 160.432ZM137.804 160.432C137.804 158.752 139.076 157.408 140.684 157.408C142.292 157.408 143.588 158.752 143.588 160.432C143.588 162.136 142.292 163.528 140.684 163.528C139.076 163.528 137.804 162.136 137.804 160.432ZM148.747 165.472C148.747 165.76 149.011 166 149.275 166H151.123C151.483 166 151.747 165.88 151.747 165.472V158.56C151.939 158.176 152.659 157.408 153.859 157.408C154.363 157.408 154.627 157.504 154.891 157.624C155.155 157.744 155.419 157.648 155.539 157.384L156.259 155.752C156.571 155.032 155.491 154.672 154.171 154.672C152.467 154.672 151.435 155.8 151.051 156.352L150.643 155.272C150.547 155.032 150.427 154.912 150.163 154.912H149.275C149.011 154.912 148.747 155.128 148.747 155.44V165.472ZM158.028 165.472C158.028 165.76 158.292 166 158.556 166H160.5C160.788 166 161.028 165.76 161.028 165.472V160.792L165.204 165.784C165.276 165.904 165.492 166 165.684 166H168.036C168.492 166 168.66 165.52 168.372 165.208L163.764 160.048L168.156 155.728C168.42 155.416 168.252 154.912 167.796 154.912H165.54C165.228 154.912 165.036 155.08 164.844 155.248L161.028 159.112V149.728C161.028 149.464 160.788 149.2 160.5 149.2H158.556C158.292 149.2 158.028 149.464 158.028 149.728V165.472ZM177.104 165.472C177.104 165.76 177.344 166 177.632 166H179.576C179.864 166 180.104 165.76 180.104 165.472V157.6H183.128C183.44 157.6 183.656 157.336 183.656 157.072V155.44C183.656 155.128 183.44 154.912 183.128 154.912H180.104V153.592C180.104 152.44 180.344 151.696 181.736 151.696C182.336 151.696 183.104 152.032 183.464 152.272C183.704 152.416 184.016 152.344 184.136 152.128L184.976 150.664C185.096 150.472 185.048 150.16 184.856 150.04C184.352 149.584 183.056 148.96 181.592 148.96C178.664 148.96 177.104 150.64 177.104 153.592V154.912H175.952C175.64 154.912 175.424 155.128 175.424 155.44V157.072C175.424 157.336 175.64 157.6 175.952 157.6H177.104V165.472ZM184.802 160.432C184.802 163.6 187.346 166.264 190.466 166.264C193.61 166.264 196.154 163.6 196.154 160.432C196.154 157.312 193.61 154.672 190.466 154.672C187.346 154.672 184.802 157.312 184.802 160.432ZM187.586 160.432C187.586 158.752 188.858 157.408 190.466 157.408C192.074 157.408 193.37 158.752 193.37 160.432C193.37 162.136 192.074 163.528 190.466 163.528C188.858 163.528 187.586 162.136 187.586 160.432ZM198.528 165.472C198.528 165.76 198.792 166 199.056 166H200.904C201.264 166 201.528 165.88 201.528 165.472V158.56C201.72 158.176 202.44 157.408 203.64 157.408C204.144 157.408 204.408 157.504 204.672 157.624C204.936 157.744 205.2 157.648 205.32 157.384L206.04 155.752C206.352 155.032 205.272 154.672 203.952 154.672C202.248 154.672 201.216 155.8 200.832 156.352L200.424 155.272C200.328 155.032 200.208 154.912 199.944 154.912H199.056C198.792 154.912 198.528 155.128 198.528 155.44V165.472ZM212.291 162.472C212.291 164.848 213.827 166.264 216.035 166.264C217.763 166.264 218.867 165.496 219.515 164.872L219.827 165.616C219.971 165.928 220.115 166 220.307 166H221.123C221.411 166 221.651 165.76 221.651 165.472V159.496C221.651 156.472 220.931 154.672 217.475 154.672C215.675 154.672 213.923 155.128 213.683 155.224C213.443 155.296 213.227 155.488 213.323 155.896L213.563 157.144C213.611 157.48 213.827 157.744 214.187 157.624C214.835 157.432 216.299 157.216 217.307 157.216C218.483 157.216 218.891 157.888 218.843 159.304C218.843 159.304 217.835 158.992 216.707 158.992C213.899 158.992 212.291 160.504 212.291 162.472ZM215.171 162.472C215.171 161.488 215.867 160.888 217.139 160.888C218.027 160.888 218.771 161.224 218.771 161.224V162.856C218.627 163.264 217.763 164.032 216.779 164.032C215.747 164.032 215.171 163.408 215.171 162.472ZM229.731 160.456C229.731 163.792 232.347 166.264 235.587 166.264C237.555 166.264 239.043 165.4 239.979 163.936C240.171 163.648 240.051 163.384 239.787 163.144L238.707 162.232C238.515 162.064 238.179 162.112 238.011 162.304C237.531 162.856 236.883 163.528 235.659 163.528C233.931 163.528 232.755 162.184 232.755 160.456C232.755 158.752 233.955 157.408 235.683 157.408C236.715 157.408 237.363 157.864 237.891 158.368C238.107 158.584 238.371 158.704 238.611 158.44L239.619 157.336C239.859 157.096 239.979 156.784 239.739 156.544C238.683 155.416 237.339 154.672 235.611 154.672C232.323 154.672 229.731 157.192 229.731 160.456ZM241.38 160.432C241.38 163.6 243.924 166.264 247.044 166.264C250.188 166.264 252.732 163.6 252.732 160.432C252.732 157.312 250.188 154.672 247.044 154.672C243.924 154.672 241.38 157.312 241.38 160.432ZM244.164 160.432C244.164 158.752 245.436 157.408 247.044 157.408C248.652 157.408 249.948 158.752 249.948 160.432C249.948 162.136 248.652 163.528 247.044 163.528C245.436 163.528 244.164 162.136 244.164 160.432ZM255.106 165.472C255.106 165.76 255.37 166 255.634 166H257.578C257.842 166 258.106 165.76 258.106 165.472V159.136C258.37 158.368 258.874 157.408 260.242 157.408C261.658 157.408 262.066 158.296 262.066 159.736V165.472C262.066 165.76 262.282 166 262.594 166H264.562C264.826 166 265.09 165.76 265.09 165.472V159.616C265.09 159.112 265.042 158.56 265.042 158.56C265.042 158.56 265.498 157.408 267.106 157.408C268.498 157.408 269.026 158.296 269.026 159.736V165.472C269.026 165.76 269.266 166 269.554 166H271.474C271.786 166 272.026 165.76 272.026 165.472V159.808C272.026 156.928 271.186 154.672 267.634 154.672C265.642 154.672 264.538 155.848 264.058 156.352C263.146 155.248 262.354 154.672 260.746 154.672C258.802 154.672 257.818 155.752 257.362 156.28L256.954 155.224C256.906 155.032 256.738 154.912 256.498 154.912H255.634C255.37 154.912 255.106 155.128 255.106 155.44V165.472ZM286.141 160.48C286.141 157.12 283.861 154.672 280.837 154.672C278.485 154.672 277.213 156.328 277.213 156.328L276.925 155.44C276.829 155.128 276.661 154.912 276.397 154.912H275.509C275.221 154.912 274.981 155.152 274.981 155.44V171.184C274.981 171.448 275.221 171.712 275.509 171.712H277.453C277.717 171.712 277.981 171.448 277.981 171.184V165.808C278.485 166 279.541 166.264 280.645 166.264C283.957 166.264 286.141 163.72 286.141 160.48ZM277.981 158.944C278.221 158.32 278.989 157.408 280.429 157.408C282.157 157.408 283.045 158.92 283.045 160.48C283.045 162.04 282.109 163.528 280.285 163.528C278.893 163.528 277.981 162.904 277.981 162.904V158.944ZM287.807 162.472C287.807 164.848 289.343 166.264 291.551 166.264C293.279 166.264 294.383 165.496 295.031 164.872L295.343 165.616C295.487 165.928 295.631 166 295.823 166H296.639C296.927 166 297.167 165.76 297.167 165.472V159.496C297.167 156.472 296.447 154.672 292.991 154.672C291.191 154.672 289.439 155.128 289.199 155.224C288.959 155.296 288.743 155.488 288.839 155.896L289.079 157.144C289.127 157.48 289.343 157.744 289.703 157.624C290.351 157.432 291.815 157.216 292.823 157.216C293.999 157.216 294.407 157.888 294.359 159.304C294.359 159.304 293.351 158.992 292.223 158.992C289.415 158.992 287.807 160.504 287.807 162.472ZM290.687 162.472C290.687 161.488 291.383 160.888 292.655 160.888C293.543 160.888 294.287 161.224 294.287 161.224V162.856C294.143 163.264 293.279 164.032 292.295 164.032C291.263 164.032 290.687 163.408 290.687 162.472ZM300.153 165.472C300.153 165.76 300.417 166 300.681 166H302.457C302.985 166 303.153 165.88 303.153 165.472V159.136C303.417 158.368 304.113 157.408 305.553 157.408C306.897 157.408 307.473 158.296 307.473 159.736V165.472C307.473 165.76 307.713 166 308.001 166H309.945C310.209 166 310.473 165.76 310.473 165.472V159.736C310.473 157.048 309.561 154.672 306.033 154.672C303.897 154.672 302.865 155.824 302.457 156.28L302.049 155.248C301.977 155.032 301.857 154.912 301.593 154.912H300.681C300.417 154.912 300.153 155.128 300.153 155.44V165.472ZM315.562 165.352L313.33 170.968C313.162 171.352 313.378 171.712 313.81 171.712H316.114C316.33 171.712 316.522 171.544 316.594 171.376L323.122 155.632C323.29 155.272 323.074 154.912 322.642 154.912H320.602C320.266 154.912 320.074 154.936 319.906 155.224L317.386 161.848H317.338L315.346 155.224C315.298 155.032 315.13 154.912 314.89 154.912H312.586C312.154 154.912 311.962 155.248 312.106 155.632L315.562 165.352ZM329.549 162.472C329.549 164.848 331.085 166.264 333.293 166.264C335.021 166.264 336.125 165.496 336.773 164.872L337.085 165.616C337.229 165.928 337.373 166 337.565 166H338.381C338.669 166 338.909 165.76 338.909 165.472V159.496C338.909 156.472 338.189 154.672 334.733 154.672C332.933 154.672 331.181 155.128 330.941 155.224C330.701 155.296 330.485 155.488 330.581 155.896L330.821 157.144C330.869 157.48 331.085 157.744 331.445 157.624C332.093 157.432 333.557 157.216 334.565 157.216C335.741 157.216 336.149 157.888 336.101 159.304C336.101 159.304 335.093 158.992 333.965 158.992C331.157 158.992 329.549 160.504 329.549 162.472ZM332.429 162.472C332.429 161.488 333.125 160.888 334.397 160.888C335.285 160.888 336.029 161.224 336.029 161.224V162.856C335.885 163.264 335.021 164.032 334.037 164.032C333.005 164.032 332.429 163.408 332.429 162.472ZM345.183 166.264C347.967 166.264 349.455 164.704 349.455 162.952C349.455 160.744 347.919 159.976 345.783 159.112C344.751 158.68 344.199 158.416 344.199 157.912C344.199 157.552 344.511 157.192 345.255 157.192C346.167 157.192 346.935 157.504 347.463 157.744C347.703 157.84 347.991 157.792 348.159 157.528L348.783 156.256C348.927 155.968 348.783 155.68 348.543 155.488C347.943 155.104 346.887 154.672 345.255 154.672C342.543 154.672 341.271 156.232 341.271 157.912C341.271 159.592 342.231 160.6 344.367 161.416C345.831 161.992 346.455 162.448 346.455 162.952C346.455 163.432 346.071 163.744 345.231 163.744C344.079 163.744 343.287 163.336 342.783 163.024C342.519 162.856 342.255 162.952 342.135 163.216L341.415 164.656C341.295 164.896 341.415 165.16 341.559 165.256C342.183 165.688 343.335 166.264 345.183 166.264ZM357.455 161.32C357.455 164.128 358.199 166.264 361.631 166.264C363.335 166.264 364.487 165.256 365.063 164.656L365.375 165.592C365.447 165.808 365.639 166 365.903 166H366.767C367.055 166 367.295 165.76 367.295 165.472V155.44C367.295 155.128 367.055 154.912 366.767 154.912H364.895C364.439 154.912 364.295 155.008 364.295 155.44V161.464C364.127 162.424 363.551 163.528 362.327 163.528C360.959 163.528 360.455 162.784 360.455 161.32V155.44C360.455 155.128 360.215 154.912 359.927 154.912H357.983C357.695 154.912 357.455 155.128 357.455 155.44V161.32ZM370.372 165.472C370.372 165.76 370.636 166 370.9 166H372.676C373.204 166 373.372 165.88 373.372 165.472V159.136C373.636 158.368 374.332 157.408 375.772 157.408C377.116 157.408 377.692 158.296 377.692 159.736V165.472C377.692 165.76 377.932 166 378.22 166H380.164C380.428 166 380.692 165.76 380.692 165.472V159.736C380.692 157.048 379.78 154.672 376.252 154.672C374.116 154.672 373.084 155.824 372.676 156.28L372.268 155.248C372.196 155.032 372.076 154.912 371.812 154.912H370.9C370.636 154.912 370.372 155.128 370.372 155.44V165.472ZM383.638 165.472C383.638 165.76 383.902 166 384.166 166H386.11C386.374 166 386.638 165.76 386.638 165.472V155.44C386.638 155.128 386.374 154.912 386.11 154.912H384.166C383.902 154.912 383.638 155.128 383.638 155.44V165.472ZM385.102 153.016C386.182 153.016 387.022 152.152 387.022 151.096C387.022 150.04 386.182 149.2 385.102 149.2C384.022 149.2 383.206 150.04 383.206 151.096C383.206 152.152 384.022 153.016 385.102 153.016ZM389.036 160.48C389.036 163.72 391.22 166.264 394.532 166.264C395.636 166.264 396.692 166 397.196 165.808V171.184C397.196 171.448 397.46 171.712 397.724 171.712H399.668C399.956 171.712 400.196 171.448 400.196 171.184V155.44C400.196 155.152 399.956 154.912 399.668 154.912H398.78C398.516 154.912 398.348 155.128 398.252 155.44L397.964 156.328C397.964 156.328 396.692 154.672 394.34 154.672C391.316 154.672 389.036 157.12 389.036 160.48ZM397.196 162.904C397.196 162.904 396.284 163.528 394.892 163.528C393.068 163.528 392.132 162.04 392.132 160.48C392.132 158.92 393.02 157.408 394.748 157.408C396.188 157.408 396.956 158.32 397.196 158.944V162.904ZM403.158 161.32C403.158 164.128 403.902 166.264 407.334 166.264C409.038 166.264 410.19 165.256 410.766 164.656L411.078 165.592C411.15 165.808 411.342 166 411.606 166H412.47C412.758 166 412.998 165.76 412.998 165.472V155.44C412.998 155.128 412.758 154.912 412.47 154.912H410.598C410.142 154.912 409.998 155.008 409.998 155.44V161.464C409.83 162.424 409.254 163.528 408.03 163.528C406.662 163.528 406.158 162.784 406.158 161.32V155.44C406.158 155.128 405.918 154.912 405.63 154.912H403.686C403.398 154.912 403.158 155.128 403.158 155.44V161.32ZM415.403 160.456C415.403 163.624 417.707 166.264 421.019 166.264C422.819 166.264 424.187 165.568 425.147 164.752C425.411 164.512 425.387 164.248 425.195 164.032L424.259 162.784C424.091 162.544 423.803 162.568 423.539 162.784C423.035 163.192 422.267 163.6 421.163 163.6C419.555 163.6 418.427 162.4 418.403 161.032H425.507C425.747 161.032 426.011 160.816 426.035 160.528C426.059 160.36 426.083 159.976 426.083 159.808C426.083 156.808 423.875 154.672 420.995 154.672C417.707 154.672 415.403 157.336 415.403 160.456ZM418.571 159.064C418.715 157.96 419.579 157.144 420.923 157.144C422.147 157.144 423.011 157.984 423.059 159.064H418.571ZM433.331 162.472C433.331 164.848 434.867 166.264 437.075 166.264C438.803 166.264 439.907 165.496 440.555 164.872L440.867 165.616C441.011 165.928 441.155 166 441.347 166H442.163C442.451 166 442.691 165.76 442.691 165.472V159.496C442.691 156.472 441.971 154.672 438.515 154.672C436.715 154.672 434.963 155.128 434.723 155.224C434.483 155.296 434.267 155.488 434.363 155.896L434.603 157.144C434.651 157.48 434.867 157.744 435.227 157.624C435.875 157.432 437.339 157.216 438.347 157.216C439.523 157.216 439.931 157.888 439.883 159.304C439.883 159.304 438.875 158.992 437.747 158.992C434.939 158.992 433.331 160.504 433.331 162.472ZM436.211 162.472C436.211 161.488 436.907 160.888 438.179 160.888C439.067 160.888 439.811 161.224 439.811 161.224V162.856C439.667 163.264 438.803 164.032 437.819 164.032C436.787 164.032 436.211 163.408 436.211 162.472ZM448.965 166.264C451.749 166.264 453.237 164.704 453.237 162.952C453.237 160.744 451.701 159.976 449.565 159.112C448.533 158.68 447.981 158.416 447.981 157.912C447.981 157.552 448.293 157.192 449.037 157.192C449.949 157.192 450.717 157.504 451.245 157.744C451.485 157.84 451.773 157.792 451.941 157.528L452.565 156.256C452.709 155.968 452.565 155.68 452.325 155.488C451.725 155.104 450.669 154.672 449.037 154.672C446.325 154.672 445.053 156.232 445.053 157.912C445.053 159.592 446.013 160.6 448.149 161.416C449.613 161.992 450.237 162.448 450.237 162.952C450.237 163.432 449.853 163.744 449.013 163.744C447.861 163.744 447.069 163.336 446.565 163.024C446.301 162.856 446.037 162.952 445.917 163.216L445.197 164.656C445.077 164.896 445.197 165.16 445.341 165.256C445.965 165.688 447.117 166.264 448.965 166.264ZM463.78 165.352L461.548 170.968C461.38 171.352 461.596 171.712 462.028 171.712H464.332C464.548 171.712 464.74 171.544 464.812 171.376L471.34 155.632C471.508 155.272 471.292 154.912 470.86 154.912H468.82C468.484 154.912 468.292 154.936 468.124 155.224L465.604 161.848H465.556L463.564 155.224C463.516 155.032 463.348 154.912 463.108 154.912H460.804C460.372 154.912 460.18 155.248 460.324 155.632L463.78 165.352ZM472.38 160.432C472.38 163.6 474.924 166.264 478.044 166.264C481.188 166.264 483.732 163.6 483.732 160.432C483.732 157.312 481.188 154.672 478.044 154.672C474.924 154.672 472.38 157.312 472.38 160.432ZM475.164 160.432C475.164 158.752 476.436 157.408 478.044 157.408C479.652 157.408 480.948 158.752 480.948 160.432C480.948 162.136 479.652 163.528 478.044 163.528C476.436 163.528 475.164 162.136 475.164 160.432ZM485.986 161.32C485.986 164.128 486.73 166.264 490.162 166.264C491.866 166.264 493.018 165.256 493.594 164.656L493.906 165.592C493.978 165.808 494.17 166 494.434 166H495.298C495.586 166 495.826 165.76 495.826 165.472V155.44C495.826 155.128 495.586 154.912 495.298 154.912H493.426C492.97 154.912 492.826 155.008 492.826 155.44V161.464C492.658 162.424 492.082 163.528 490.858 163.528C489.49 163.528 488.986 162.784 488.986 161.32V155.44C488.986 155.128 488.746 154.912 488.458 154.912H486.514C486.226 154.912 485.986 155.128 485.986 155.44V161.32ZM503.901 162.472C503.901 164.848 505.437 166.264 507.645 166.264C509.373 166.264 510.477 165.496 511.125 164.872L511.437 165.616C511.581 165.928 511.725 166 511.917 166H512.733C513.021 166 513.261 165.76 513.261 165.472V159.496C513.261 156.472 512.541 154.672 509.085 154.672C507.285 154.672 505.533 155.128 505.293 155.224C505.053 155.296 504.837 155.488 504.933 155.896L505.173 157.144C505.221 157.48 505.437 157.744 505.797 157.624C506.445 157.432 507.909 157.216 508.917 157.216C510.093 157.216 510.501 157.888 510.453 159.304C510.453 159.304 509.445 158.992 508.317 158.992C505.509 158.992 503.901 160.504 503.901 162.472ZM506.781 162.472C506.781 161.488 507.477 160.888 508.749 160.888C509.637 160.888 510.381 161.224 510.381 161.224V162.856C510.237 163.264 509.373 164.032 508.389 164.032C507.357 164.032 506.781 163.408 506.781 162.472ZM516.247 165.472C516.247 165.76 516.511 166 516.775 166H518.551C519.079 166 519.247 165.88 519.247 165.472V159.136C519.511 158.368 520.207 157.408 521.647 157.408C522.991 157.408 523.567 158.296 523.567 159.736V165.472C523.567 165.76 523.807 166 524.095 166H526.039C526.303 166 526.567 165.76 526.567 165.472V159.736C526.567 157.048 525.655 154.672 522.127 154.672C519.991 154.672 518.959 155.824 518.551 156.28L518.143 155.248C518.071 155.032 517.951 154.912 517.687 154.912H516.775C516.511 154.912 516.247 155.128 516.247 155.44V165.472ZM528.841 160.456C528.841 163.816 531.121 166.264 534.145 166.264C536.497 166.264 537.769 164.608 537.769 164.608L538.057 165.472C538.153 165.784 538.321 166 538.585 166H539.473C539.761 166 540.001 165.76 540.001 165.472V149.728C540.001 149.464 539.761 149.2 539.473 149.2H537.529C537.265 149.2 537.001 149.464 537.001 149.728V155.128C536.497 154.936 535.441 154.672 534.337 154.672C531.025 154.672 528.841 157.216 528.841 160.456ZM537.001 161.992C536.761 162.616 535.993 163.528 534.553 163.528C532.825 163.528 531.937 162.016 531.937 160.456C531.937 158.896 532.873 157.408 534.697 157.408C536.089 157.408 537.001 158.032 537.001 158.032V161.992ZM549.593 162.688C549.593 164.608 550.217 166.264 552.689 166.264C553.841 166.264 555.425 165.76 555.809 165.544C556.073 165.4 556.193 165.184 556.121 164.896L555.809 163.432C555.761 163.168 555.497 163.024 555.185 163.144C554.897 163.24 553.985 163.504 553.505 163.504C552.953 163.504 552.593 163.336 552.593 162.592V157.6H555.185C555.473 157.6 555.713 157.336 555.713 157.072V155.44C555.713 155.128 555.473 154.912 555.185 154.912H552.593V151.84C552.593 151.552 552.377 151.312 552.089 151.312H550.121C549.857 151.312 549.593 151.552 549.593 151.84V154.912H548.513C548.225 154.912 548.009 155.128 548.009 155.44V157.072C548.009 157.336 548.225 157.6 548.513 157.6H549.593V162.688ZM557.528 160.432C557.528 163.6 560.072 166.264 563.192 166.264C566.336 166.264 568.88 163.6 568.88 160.432C568.88 157.312 566.336 154.672 563.192 154.672C560.072 154.672 557.528 157.312 557.528 160.432ZM560.312 160.432C560.312 158.752 561.584 157.408 563.192 157.408C564.8 157.408 566.096 158.752 566.096 160.432C566.096 162.136 564.8 163.528 563.192 163.528C561.584 163.528 560.312 162.136 560.312 160.432ZM578.743 162.904C578.743 162.904 577.831 163.528 576.439 163.528C574.615 163.528 573.679 162.04 573.679 160.48C573.679 158.92 574.567 157.408 576.295 157.408C577.735 157.408 578.503 158.32 578.743 158.944V162.904ZM581.743 155.44C581.743 155.152 581.503 154.912 581.215 154.912H580.327C580.063 154.912 579.895 155.128 579.799 155.44L579.511 156.328C579.511 156.328 578.239 154.672 575.887 154.672C572.863 154.672 570.583 157.12 570.583 160.48C570.583 163.72 572.767 166.264 576.079 166.264C577.183 166.264 578.239 166 578.743 165.808V166.12C578.743 168.184 577.831 168.76 576.127 168.76C574.975 168.76 573.895 168.16 573.487 167.92C573.247 167.776 572.935 167.848 572.839 168.064L572.119 169.624C571.999 169.816 572.071 170.104 572.239 170.248C572.767 170.656 574.399 171.496 576.223 171.496C579.247 171.496 581.743 169.696 581.743 166.12V155.44ZM584.153 160.456C584.153 163.624 586.457 166.264 589.769 166.264C591.569 166.264 592.937 165.568 593.897 164.752C594.161 164.512 594.137 164.248 593.945 164.032L593.009 162.784C592.841 162.544 592.553 162.568 592.289 162.784C591.785 163.192 591.017 163.6 589.913 163.6C588.305 163.6 587.177 162.4 587.153 161.032H594.257C594.497 161.032 594.761 160.816 594.785 160.528C594.809 160.36 594.833 159.976 594.833 159.808C594.833 156.808 592.625 154.672 589.745 154.672C586.457 154.672 584.153 157.336 584.153 160.456ZM587.321 159.064C587.465 157.96 588.329 157.144 589.673 157.144C590.897 157.144 591.761 157.984 591.809 159.064H587.321ZM597.827 162.688C597.827 164.608 598.451 166.264 600.923 166.264C602.075 166.264 603.659 165.76 604.043 165.544C604.307 165.4 604.427 165.184 604.355 164.896L604.043 163.432C603.995 163.168 603.731 163.024 603.419 163.144C603.131 163.24 602.219 163.504 601.739 163.504C601.187 163.504 600.827 163.336 600.827 162.592V157.6H603.419C603.707 157.6 603.947 157.336 603.947 157.072V155.44C603.947 155.128 603.707 154.912 603.419 154.912H600.827V151.84C600.827 151.552 600.611 151.312 600.323 151.312H598.355C598.091 151.312 597.827 151.552 597.827 151.84V154.912H596.747C596.459 154.912 596.243 155.128 596.243 155.44V157.072C596.243 157.336 596.459 157.6 596.747 157.6H597.827V162.688ZM606.434 165.472C606.434 165.76 606.698 166 606.962 166H608.858C609.29 166 609.434 165.784 609.434 165.472V159.352C609.722 158.224 610.442 157.408 611.738 157.408C613.058 157.408 613.754 158.344 613.754 159.88V165.472C613.754 165.76 613.994 166 614.282 166H616.226C616.49 166 616.754 165.76 616.754 165.472V159.904C616.754 157.12 615.794 154.672 612.266 154.672C610.946 154.672 609.986 155.128 609.434 155.608V149.728C609.434 149.464 609.194 149.2 608.906 149.2H606.962C606.698 149.2 606.434 149.464 606.434 149.728V165.472ZM619.005 160.456C619.005 163.624 621.309 166.264 624.621 166.264C626.421 166.264 627.789 165.568 628.749 164.752C629.013 164.512 628.989 164.248 628.797 164.032L627.861 162.784C627.693 162.544 627.405 162.568 627.141 162.784C626.637 163.192 625.869 163.6 624.765 163.6C623.157 163.6 622.029 162.4 622.005 161.032H629.109C629.349 161.032 629.613 160.816 629.637 160.528C629.661 160.36 629.685 159.976 629.685 159.808C629.685 156.808 627.477 154.672 624.597 154.672C621.309 154.672 619.005 157.336 619.005 160.456ZM622.173 159.064C622.317 157.96 623.181 157.144 624.525 157.144C625.749 157.144 626.613 157.984 626.661 159.064H622.173ZM631.934 165.472C631.934 165.76 632.198 166 632.462 166H634.31C634.67 166 634.934 165.88 634.934 165.472V158.56C635.126 158.176 635.846 157.408 637.046 157.408C637.55 157.408 637.814 157.504 638.078 157.624C638.342 157.744 638.606 157.648 638.726 157.384L639.446 155.752C639.758 155.032 638.678 154.672 637.358 154.672C635.654 154.672 634.622 155.8 634.238 156.352L633.83 155.272C633.734 155.032 633.614 154.912 633.35 154.912H632.462C632.198 154.912 631.934 155.128 631.934 155.44V165.472Z" fill="black"/>
<path d="M118.008 206.952C118.056 207.12 118.224 207.264 118.488 207.264H118.632C118.824 207.264 118.992 207.144 119.064 207L122.544 200.328H122.568L126.048 207C126.144 207.144 126.264 207.264 126.504 207.264H126.6C126.864 207.264 127.056 207.12 127.104 206.952L130.512 196.536C130.632 196.2 130.392 195.912 130.008 195.912H128.328C128.04 195.912 127.8 195.936 127.704 196.248L126.048 201.528H126.024L123.144 195.912C123.072 195.768 122.952 195.672 122.688 195.672H122.472C122.208 195.672 122.088 195.792 122.04 195.912L119.136 201.528H119.112L117.432 196.248C117.384 196.032 117.096 195.912 116.952 195.912H115.08C114.696 195.912 114.456 196.2 114.624 196.536L118.008 206.952ZM131.739 201.456C131.739 204.624 134.043 207.264 137.355 207.264C139.155 207.264 140.523 206.568 141.483 205.752C141.747 205.512 141.723 205.248 141.531 205.032L140.595 203.784C140.427 203.544 140.139 203.568 139.875 203.784C139.371 204.192 138.603 204.6 137.499 204.6C135.891 204.6 134.763 203.4 134.739 202.032H141.843C142.083 202.032 142.347 201.816 142.371 201.528C142.395 201.36 142.419 200.976 142.419 200.808C142.419 197.808 140.211 195.672 137.331 195.672C134.043 195.672 131.739 198.336 131.739 201.456ZM134.907 200.064C135.051 198.96 135.915 198.144 137.259 198.144C138.483 198.144 139.347 198.984 139.395 200.064H134.907ZM143.877 191.712C143.877 192.648 144.405 193.392 145.365 193.392C145.677 193.392 145.965 193.296 146.181 193.152C146.205 193.296 146.229 193.416 146.229 193.608C146.229 194.616 145.677 195.696 145.029 196.536C144.885 196.728 144.813 196.944 145.005 197.088L145.677 197.568C145.869 197.688 146.037 197.736 146.181 197.544C147.045 196.392 147.909 194.88 147.909 192.816C147.909 190.944 146.925 189.96 145.749 189.96C144.669 189.96 143.877 190.704 143.877 191.712ZM150.388 206.472C150.388 206.76 150.652 207 150.916 207H152.86C153.124 207 153.388 206.76 153.388 206.472V190.728C153.388 190.464 153.124 190.2 152.86 190.2H150.916C150.652 190.2 150.388 190.464 150.388 190.728V206.472ZM156.505 206.472C156.505 206.76 156.769 207 157.033 207H158.977C159.241 207 159.505 206.76 159.505 206.472V190.728C159.505 190.464 159.241 190.2 158.977 190.2H157.033C156.769 190.2 156.505 190.464 156.505 190.728V206.472ZM168.364 206.472C168.364 206.76 168.628 207 168.892 207H170.836C171.1 207 171.364 206.76 171.364 206.472V200.136C171.628 199.368 172.132 198.408 173.5 198.408C174.916 198.408 175.324 199.296 175.324 200.736V206.472C175.324 206.76 175.54 207 175.852 207H177.82C178.084 207 178.348 206.76 178.348 206.472V200.616C178.348 200.112 178.3 199.56 178.3 199.56C178.3 199.56 178.756 198.408 180.364 198.408C181.756 198.408 182.284 199.296 182.284 200.736V206.472C182.284 206.76 182.524 207 182.812 207H184.732C185.044 207 185.284 206.76 185.284 206.472V200.808C185.284 197.928 184.444 195.672 180.892 195.672C178.9 195.672 177.796 196.848 177.316 197.352C176.404 196.248 175.612 195.672 174.004 195.672C172.06 195.672 171.076 196.752 170.62 197.28L170.212 196.224C170.164 196.032 169.996 195.912 169.756 195.912H168.892C168.628 195.912 168.364 196.128 168.364 196.44V206.472ZM187.471 203.472C187.471 205.848 189.007 207.264 191.215 207.264C192.943 207.264 194.047 206.496 194.695 205.872L195.007 206.616C195.151 206.928 195.295 207 195.487 207H196.303C196.591 207 196.831 206.76 196.831 206.472V200.496C196.831 197.472 196.111 195.672 192.655 195.672C190.855 195.672 189.103 196.128 188.863 196.224C188.623 196.296 188.407 196.488 188.503 196.896L188.743 198.144C188.791 198.48 189.007 198.744 189.367 198.624C190.015 198.432 191.479 198.216 192.487 198.216C193.663 198.216 194.071 198.888 194.023 200.304C194.023 200.304 193.015 199.992 191.887 199.992C189.079 199.992 187.471 201.504 187.471 203.472ZM190.351 203.472C190.351 202.488 191.047 201.888 192.319 201.888C193.207 201.888 193.951 202.224 193.951 202.224V203.856C193.807 204.264 192.943 205.032 191.959 205.032C190.927 205.032 190.351 204.408 190.351 203.472ZM199.817 206.472C199.817 206.76 200.081 207 200.345 207H202.289C202.577 207 202.817 206.76 202.817 206.472V201.792L206.993 206.784C207.065 206.904 207.281 207 207.473 207H209.825C210.281 207 210.449 206.52 210.161 206.208L205.553 201.048L209.945 196.728C210.209 196.416 210.041 195.912 209.585 195.912H207.329C207.017 195.912 206.825 196.08 206.633 196.248L202.817 200.112V190.728C202.817 190.464 202.577 190.2 202.289 190.2H200.345C200.081 190.2 199.817 190.464 199.817 190.728V206.472ZM210.981 201.456C210.981 204.624 213.285 207.264 216.597 207.264C218.397 207.264 219.765 206.568 220.725 205.752C220.989 205.512 220.965 205.248 220.773 205.032L219.837 203.784C219.669 203.544 219.381 203.568 219.117 203.784C218.613 204.192 217.845 204.6 216.741 204.6C215.133 204.6 214.005 203.4 213.981 202.032H221.085C221.325 202.032 221.589 201.816 221.613 201.528C221.637 201.36 221.661 200.976 221.661 200.808C221.661 197.808 219.453 195.672 216.573 195.672C213.285 195.672 210.981 198.336 210.981 201.456ZM214.149 200.064C214.293 198.96 215.157 198.144 216.501 198.144C217.725 198.144 218.589 198.984 218.637 200.064H214.149ZM230.421 203.688C230.421 205.608 231.045 207.264 233.517 207.264C234.669 207.264 236.253 206.76 236.637 206.544C236.901 206.4 237.021 206.184 236.949 205.896L236.637 204.432C236.589 204.168 236.325 204.024 236.013 204.144C235.725 204.24 234.813 204.504 234.333 204.504C233.781 204.504 233.421 204.336 233.421 203.592V198.6H236.013C236.301 198.6 236.541 198.336 236.541 198.072V196.44C236.541 196.128 236.301 195.912 236.013 195.912H233.421V192.84C233.421 192.552 233.205 192.312 232.917 192.312H230.949C230.685 192.312 230.421 192.552 230.421 192.84V195.912H229.341C229.053 195.912 228.837 196.128 228.837 196.44V198.072C228.837 198.336 229.053 198.6 229.341 198.6H230.421V203.688ZM239.028 206.472C239.028 206.76 239.292 207 239.556 207H241.452C241.884 207 242.028 206.784 242.028 206.472V200.352C242.316 199.224 243.036 198.408 244.332 198.408C245.652 198.408 246.348 199.344 246.348 200.88V206.472C246.348 206.76 246.588 207 246.876 207H248.82C249.084 207 249.348 206.76 249.348 206.472V200.904C249.348 198.12 248.388 195.672 244.86 195.672C243.54 195.672 242.58 196.128 242.028 196.608V190.728C242.028 190.464 241.788 190.2 241.5 190.2H239.556C239.292 190.2 239.028 190.464 239.028 190.728V206.472ZM252.27 206.472C252.27 206.76 252.534 207 252.798 207H254.742C255.006 207 255.27 206.76 255.27 206.472V196.44C255.27 196.128 255.006 195.912 254.742 195.912H252.798C252.534 195.912 252.27 196.128 252.27 196.44V206.472ZM253.734 194.016C254.814 194.016 255.654 193.152 255.654 192.096C255.654 191.04 254.814 190.2 253.734 190.2C252.654 190.2 251.838 191.04 251.838 192.096C251.838 193.152 252.654 194.016 253.734 194.016ZM261.629 207.264C264.413 207.264 265.901 205.704 265.901 203.952C265.901 201.744 264.365 200.976 262.229 200.112C261.197 199.68 260.645 199.416 260.645 198.912C260.645 198.552 260.957 198.192 261.701 198.192C262.613 198.192 263.381 198.504 263.909 198.744C264.149 198.84 264.437 198.792 264.605 198.528L265.229 197.256C265.373 196.968 265.229 196.68 264.989 196.488C264.389 196.104 263.333 195.672 261.701 195.672C258.989 195.672 257.717 197.232 257.717 198.912C257.717 200.592 258.677 201.6 260.813 202.416C262.277 202.992 262.901 203.448 262.901 203.952C262.901 204.432 262.517 204.744 261.677 204.744C260.525 204.744 259.733 204.336 259.229 204.024C258.965 203.856 258.701 203.952 258.581 204.216L257.861 205.656C257.741 205.896 257.861 206.16 258.005 206.256C258.629 206.688 259.781 207.264 261.629 207.264ZM276.492 206.952C276.54 207.12 276.708 207.264 276.972 207.264H277.116C277.308 207.264 277.476 207.144 277.548 207L281.028 200.328H281.052L284.532 207C284.628 207.144 284.748 207.264 284.988 207.264H285.084C285.348 207.264 285.54 207.12 285.588 206.952L288.996 196.536C289.116 196.2 288.876 195.912 288.492 195.912H286.812C286.524 195.912 286.284 195.936 286.188 196.248L284.532 201.528H284.508L281.628 195.912C281.556 195.768 281.436 195.672 281.172 195.672H280.956C280.692 195.672 280.572 195.792 280.524 195.912L277.62 201.528H277.596L275.916 196.248C275.868 196.032 275.58 195.912 275.436 195.912H273.564C273.18 195.912 272.94 196.2 273.108 196.536L276.492 206.952ZM290.223 201.432C290.223 204.6 292.767 207.264 295.887 207.264C299.031 207.264 301.575 204.6 301.575 201.432C301.575 198.312 299.031 195.672 295.887 195.672C292.767 195.672 290.223 198.312 290.223 201.432ZM293.007 201.432C293.007 199.752 294.279 198.408 295.887 198.408C297.495 198.408 298.791 199.752 298.791 201.432C298.791 203.136 297.495 204.528 295.887 204.528C294.279 204.528 293.007 203.136 293.007 201.432ZM303.95 206.472C303.95 206.76 304.214 207 304.478 207H306.326C306.686 207 306.95 206.88 306.95 206.472V199.56C307.142 199.176 307.862 198.408 309.062 198.408C309.566 198.408 309.83 198.504 310.094 198.624C310.358 198.744 310.622 198.648 310.742 198.384L311.462 196.752C311.774 196.032 310.694 195.672 309.374 195.672C307.67 195.672 306.638 196.8 306.254 197.352L305.846 196.272C305.75 196.032 305.63 195.912 305.366 195.912H304.478C304.214 195.912 303.95 196.128 303.95 196.44V206.472ZM313.255 206.472C313.255 206.76 313.519 207 313.783 207H315.727C315.991 207 316.255 206.76 316.255 206.472V190.728C316.255 190.464 315.991 190.2 315.727 190.2H313.783C313.519 190.2 313.255 190.464 313.255 190.728V206.472ZM318.677 201.456C318.677 204.816 320.957 207.264 323.98 207.264C326.333 207.264 327.605 205.608 327.605 205.608L327.893 206.472C327.989 206.784 328.157 207 328.421 207H329.309C329.597 207 329.837 206.76 329.837 206.472V190.728C329.837 190.464 329.597 190.2 329.309 190.2H327.365C327.101 190.2 326.837 190.464 326.837 190.728V196.128C326.333 195.936 325.277 195.672 324.173 195.672C320.861 195.672 318.677 198.216 318.677 201.456ZM326.837 202.992C326.597 203.616 325.829 204.528 324.389 204.528C322.661 204.528 321.773 203.016 321.773 201.456C321.773 199.896 322.709 198.408 324.533 198.408C325.925 198.408 326.837 199.032 326.837 199.032V202.992ZM337.916 203.472C337.916 205.848 339.452 207.264 341.66 207.264C343.388 207.264 344.492 206.496 345.14 205.872L345.452 206.616C345.596 206.928 345.74 207 345.932 207H346.748C347.036 207 347.276 206.76 347.276 206.472V200.496C347.276 197.472 346.556 195.672 343.1 195.672C341.3 195.672 339.548 196.128 339.308 196.224C339.068 196.296 338.852 196.488 338.948 196.896L339.188 198.144C339.236 198.48 339.452 198.744 339.812 198.624C340.46 198.432 341.924 198.216 342.932 198.216C344.108 198.216 344.516 198.888 344.468 200.304C344.468 200.304 343.46 199.992 342.332 199.992C339.524 199.992 337.916 201.504 337.916 203.472ZM340.796 203.472C340.796 202.488 341.492 201.888 342.764 201.888C343.652 201.888 344.396 202.224 344.396 202.224V203.856C344.252 204.264 343.388 205.032 342.404 205.032C341.372 205.032 340.796 204.408 340.796 203.472ZM356.028 206.472C356.028 206.76 356.292 207 356.556 207H358.452C358.884 207 359.028 206.784 359.028 206.472V200.352C359.316 199.224 360.036 198.408 361.332 198.408C362.652 198.408 363.348 199.344 363.348 200.88V206.472C363.348 206.76 363.588 207 363.876 207H365.82C366.084 207 366.348 206.76 366.348 206.472V200.904C366.348 198.12 365.388 195.672 361.86 195.672C360.54 195.672 359.58 196.128 359.028 196.608V190.728C359.028 190.464 358.788 190.2 358.5 190.2H356.556C356.292 190.2 356.028 190.464 356.028 190.728V206.472ZM368.598 201.456C368.598 204.624 370.902 207.264 374.214 207.264C376.014 207.264 377.382 206.568 378.342 205.752C378.606 205.512 378.582 205.248 378.39 205.032L377.454 203.784C377.286 203.544 376.998 203.568 376.734 203.784C376.23 204.192 375.462 204.6 374.358 204.6C372.75 204.6 371.622 203.4 371.598 202.032H378.702C378.942 202.032 379.206 201.816 379.23 201.528C379.254 201.36 379.278 200.976 379.278 200.808C379.278 197.808 377.07 195.672 374.19 195.672C370.902 195.672 368.598 198.336 368.598 201.456ZM371.766 200.064C371.91 198.96 372.774 198.144 374.118 198.144C375.342 198.144 376.206 198.984 376.254 200.064H371.766ZM380.76 203.472C380.76 205.848 382.296 207.264 384.504 207.264C386.232 207.264 387.336 206.496 387.984 205.872L388.296 206.616C388.44 206.928 388.584 207 388.776 207H389.592C389.88 207 390.12 206.76 390.12 206.472V200.496C390.12 197.472 389.4 195.672 385.944 195.672C384.144 195.672 382.392 196.128 382.152 196.224C381.912 196.296 381.696 196.488 381.792 196.896L382.032 198.144C382.08 198.48 382.296 198.744 382.656 198.624C383.304 198.432 384.768 198.216 385.776 198.216C386.952 198.216 387.36 198.888 387.312 200.304C387.312 200.304 386.304 199.992 385.176 199.992C382.368 199.992 380.76 201.504 380.76 203.472ZM383.64 203.472C383.64 202.488 384.336 201.888 385.608 201.888C386.496 201.888 387.24 202.224 387.24 202.224V203.856C387.096 204.264 386.232 205.032 385.248 205.032C384.216 205.032 383.64 204.408 383.64 203.472ZM393.13 206.472C393.13 206.76 393.394 207 393.658 207H395.602C395.866 207 396.13 206.76 396.13 206.472V190.728C396.13 190.464 395.866 190.2 395.602 190.2H393.658C393.394 190.2 393.13 190.464 393.13 190.728V206.472ZM399.968 203.688C399.968 205.608 400.592 207.264 403.064 207.264C404.216 207.264 405.8 206.76 406.184 206.544C406.448 206.4 406.568 206.184 406.496 205.896L406.184 204.432C406.136 204.168 405.872 204.024 405.56 204.144C405.272 204.24 404.36 204.504 403.88 204.504C403.328 204.504 402.968 204.336 402.968 203.592V198.6H405.56C405.848 198.6 406.088 198.336 406.088 198.072V196.44C406.088 196.128 405.848 195.912 405.56 195.912H402.968V192.84C402.968 192.552 402.752 192.312 402.464 192.312H400.496C400.232 192.312 399.968 192.552 399.968 192.84V195.912H398.888C398.6 195.912 398.384 196.128 398.384 196.44V198.072C398.384 198.336 398.6 198.6 398.888 198.6H399.968V203.688ZM408.575 206.472C408.575 206.76 408.839 207 409.103 207H410.999C411.431 207 411.575 206.784 411.575 206.472V200.352C411.863 199.224 412.583 198.408 413.879 198.408C415.199 198.408 415.895 199.344 415.895 200.88V206.472C415.895 206.76 416.135 207 416.423 207H418.367C418.631 207 418.895 206.76 418.895 206.472V200.904C418.895 198.12 417.935 195.672 414.407 195.672C413.087 195.672 412.127 196.128 411.575 196.608V190.728C411.575 190.464 411.335 190.2 411.047 190.2H409.103C408.839 190.2 408.575 190.464 408.575 190.728V206.472ZM421.817 206.472C421.817 206.76 422.081 207 422.345 207H424.289C424.553 207 424.817 206.76 424.817 206.472V196.44C424.817 196.128 424.553 195.912 424.289 195.912H422.345C422.081 195.912 421.817 196.128 421.817 196.44V206.472ZM423.281 194.016C424.361 194.016 425.201 193.152 425.201 192.096C425.201 191.04 424.361 190.2 423.281 190.2C422.201 190.2 421.385 191.04 421.385 192.096C421.385 193.152 422.201 194.016 423.281 194.016ZM427.216 201.456C427.216 204.624 429.52 207.264 432.832 207.264C434.632 207.264 436 206.568 436.96 205.752C437.224 205.512 437.2 205.248 437.008 205.032L436.072 203.784C435.904 203.544 435.616 203.568 435.352 203.784C434.848 204.192 434.08 204.6 432.976 204.6C431.368 204.6 430.24 203.4 430.216 202.032H437.32C437.56 202.032 437.824 201.816 437.848 201.528C437.872 201.36 437.896 200.976 437.896 200.808C437.896 197.808 435.688 195.672 432.808 195.672C429.52 195.672 427.216 198.336 427.216 201.456ZM430.384 200.064C430.528 198.96 431.392 198.144 432.736 198.144C433.96 198.144 434.824 198.984 434.872 200.064H430.384ZM440.145 206.472C440.145 206.76 440.409 207 440.673 207H442.521C442.881 207 443.145 206.88 443.145 206.472V199.56C443.337 199.176 444.057 198.408 445.257 198.408C445.761 198.408 446.025 198.504 446.289 198.624C446.553 198.744 446.817 198.648 446.937 198.384L447.657 196.752C447.969 196.032 446.889 195.672 445.569 195.672C443.865 195.672 442.833 196.8 442.449 197.352L442.041 196.272C441.945 196.032 441.825 195.912 441.561 195.912H440.673C440.409 195.912 440.145 196.128 440.145 196.44V206.472ZM465.837 201.48C465.837 198.12 463.557 195.672 460.533 195.672C458.181 195.672 456.909 197.328 456.909 197.328L456.621 196.44C456.525 196.128 456.357 195.912 456.093 195.912H455.205C454.917 195.912 454.677 196.152 454.677 196.44V212.184C454.677 212.448 454.917 212.712 455.205 212.712H457.149C457.413 212.712 457.677 212.448 457.677 212.184V206.808C458.181 207 459.237 207.264 460.341 207.264C463.653 207.264 465.837 204.72 465.837 201.48ZM457.677 199.944C457.917 199.32 458.685 198.408 460.125 198.408C461.853 198.408 462.741 199.92 462.741 201.48C462.741 203.04 461.805 204.528 459.981 204.528C458.589 204.528 457.677 203.904 457.677 203.904V199.944ZM468.294 206.472C468.294 206.76 468.558 207 468.822 207H470.766C471.03 207 471.294 206.76 471.294 206.472V190.728C471.294 190.464 471.03 190.2 470.766 190.2H468.822C468.558 190.2 468.294 190.464 468.294 190.728V206.472ZM473.62 203.472C473.62 205.848 475.156 207.264 477.364 207.264C479.092 207.264 480.196 206.496 480.844 205.872L481.156 206.616C481.3 206.928 481.444 207 481.636 207H482.452C482.74 207 482.98 206.76 482.98 206.472V200.496C482.98 197.472 482.26 195.672 478.804 195.672C477.004 195.672 475.252 196.128 475.012 196.224C474.772 196.296 474.556 196.488 474.652 196.896L474.892 198.144C474.94 198.48 475.156 198.744 475.516 198.624C476.164 198.432 477.628 198.216 478.636 198.216C479.812 198.216 480.22 198.888 480.172 200.304C480.172 200.304 479.164 199.992 478.036 199.992C475.228 199.992 473.62 201.504 473.62 203.472ZM476.5 203.472C476.5 202.488 477.196 201.888 478.468 201.888C479.356 201.888 480.1 202.224 480.1 202.224V203.856C479.956 204.264 479.092 205.032 478.108 205.032C477.076 205.032 476.5 204.408 476.5 203.472ZM485.294 201.456C485.294 204.792 487.91 207.264 491.15 207.264C493.118 207.264 494.606 206.4 495.542 204.936C495.734 204.648 495.614 204.384 495.35 204.144L494.27 203.232C494.078 203.064 493.742 203.112 493.574 203.304C493.094 203.856 492.446 204.528 491.222 204.528C489.494 204.528 488.318 203.184 488.318 201.456C488.318 199.752 489.518 198.408 491.246 198.408C492.278 198.408 492.926 198.864 493.454 199.368C493.67 199.584 493.934 199.704 494.174 199.44L495.182 198.336C495.422 198.096 495.542 197.784 495.302 197.544C494.246 196.416 492.902 195.672 491.174 195.672C487.886 195.672 485.294 198.192 485.294 201.456ZM496.942 201.456C496.942 204.624 499.246 207.264 502.558 207.264C504.358 207.264 505.726 206.568 506.686 205.752C506.95 205.512 506.926 205.248 506.734 205.032L505.798 203.784C505.63 203.544 505.342 203.568 505.078 203.784C504.574 204.192 503.806 204.6 502.702 204.6C501.094 204.6 499.966 203.4 499.942 202.032H507.046C507.286 202.032 507.55 201.816 507.574 201.528C507.598 201.36 507.622 200.976 507.622 200.808C507.622 197.808 505.414 195.672 502.534 195.672C499.246 195.672 496.942 198.336 496.942 201.456ZM500.11 200.064C500.254 198.96 501.118 198.144 502.462 198.144C503.686 198.144 504.55 198.984 504.598 200.064H500.11Z" fill="black"/>
<rect x="104" y="307" width="356" height="50" rx="25" fill="url(#paint1_linear_599_5035)"/>
<path d="M155.7 338.62C155.7 338.82 155.86 339 156.08 339H164.22C164.44 339 164.6 338.82 164.6 338.62V336.98C164.6 336.78 164.44 336.6 164.22 336.6H158.3V333.1H163.24C163.44 333.1 163.62 332.94 163.62 332.72V331.06C163.62 330.86 163.44 330.68 163.24 330.68H158.3V327.4H164.22C164.44 327.4 164.6 327.22 164.6 327.02V325.38C164.6 325.18 164.44 325 164.22 325H156.08C155.86 325 155.7 325.18 155.7 325.38V338.62ZM166.023 338.44C165.863 338.7 166.023 339 166.383 339H168.543C168.703 339 168.823 338.9 168.883 338.82L171.683 334.24H171.763L174.623 338.82C174.663 338.9 174.803 339 174.963 339H177.123C177.463 339 177.623 338.72 177.463 338.44L173.303 331.82L177.323 325.56C177.483 325.3 177.323 325 176.983 325H174.663C174.503 325 174.383 325.1 174.343 325.18L171.763 329.42H171.683L169.163 325.18C169.103 325.1 169.003 325 168.843 325H166.523C166.183 325 166.023 325.3 166.183 325.56L170.183 331.82L166.023 338.44ZM179.665 338.62C179.665 338.82 179.825 339 180.045 339H181.885C182.085 339 182.265 338.82 182.265 338.62V333.92H184.765C187.205 333.92 189.225 331.9 189.225 329.42C189.225 327 187.205 325 184.745 325H180.045C179.825 325 179.665 325.18 179.665 325.38V338.62ZM182.265 331.48V327.46H184.665C185.785 327.46 186.645 328.3 186.645 329.4C186.645 330.58 185.785 331.48 184.665 331.48H182.265ZM191.442 338.62C191.442 338.82 191.602 339 191.822 339H199.142C199.362 339 199.522 338.82 199.522 338.62V336.98C199.522 336.78 199.362 336.6 199.142 336.6H194.042V325.38C194.042 325.18 193.862 325 193.662 325H191.822C191.602 325 191.442 325.18 191.442 325.38V338.62ZM200.368 332.02C200.368 336.02 203.548 339.2 207.548 339.2C211.548 339.2 214.748 336.02 214.748 332.02C214.748 328.02 211.548 324.8 207.548 324.8C203.548 324.8 200.368 328.02 200.368 332.02ZM202.968 332.02C202.968 329.5 205.028 327.4 207.548 327.4C210.068 327.4 212.148 329.5 212.148 332.02C212.148 334.54 210.068 336.6 207.548 336.6C205.028 336.6 202.968 334.54 202.968 332.02ZM217.321 338.62C217.321 338.82 217.481 339 217.701 339H219.541C219.741 339 219.921 338.82 219.921 338.62V333.52H222.141L224.801 338.82C224.841 338.9 224.941 339 225.121 339H227.221C227.561 339 227.701 338.68 227.561 338.42L224.821 333.34C226.561 332.64 227.781 331.14 227.781 329.3C227.781 326.92 225.821 325 223.421 325H217.701C217.481 325 217.321 325.18 217.321 325.38V338.62ZM219.941 331.38V327.4H223.201C224.261 327.4 225.181 328.28 225.181 329.34C225.181 330.46 224.261 331.38 223.201 331.38H219.941ZM230.524 338.62C230.524 338.82 230.684 339 230.904 339H239.044C239.264 339 239.424 338.82 239.424 338.62V336.98C239.424 336.78 239.264 336.6 239.044 336.6H233.124V333.1H238.064C238.264 333.1 238.444 332.94 238.444 332.72V331.06C238.444 330.86 238.264 330.68 238.064 330.68H233.124V327.4H239.044C239.264 327.4 239.424 327.22 239.424 327.02V325.38C239.424 325.18 239.264 325 239.044 325H230.904C230.684 325 230.524 325.18 230.524 325.38V338.62ZM246.032 332.02C246.032 336.02 249.212 339.2 253.212 339.2C257.212 339.2 260.412 336.02 260.412 332.02C260.412 328.02 257.212 324.8 253.212 324.8C249.212 324.8 246.032 328.02 246.032 332.02ZM248.632 332.02C248.632 329.5 250.692 327.4 253.212 327.4C255.732 327.4 257.812 329.5 257.812 332.02C257.812 334.54 255.732 336.6 253.212 336.6C250.692 336.6 248.632 334.54 248.632 332.02ZM262.985 338.62C262.985 338.82 263.145 339 263.365 339H265.205C265.405 339 265.585 338.82 265.585 338.62V333.92H268.085C270.525 333.92 272.545 331.9 272.545 329.42C272.545 327 270.525 325 268.065 325H263.365C263.145 325 262.985 325.18 262.985 325.38V338.62ZM265.585 331.48V327.46H267.985C269.105 327.46 269.965 328.3 269.965 329.4C269.965 330.58 269.105 331.48 267.985 331.48H265.585ZM274.763 338.62C274.763 338.82 274.923 339 275.143 339H276.983C277.183 339 277.363 338.82 277.363 338.62V333.92H279.863C282.303 333.92 284.323 331.9 284.323 329.42C284.323 327 282.303 325 279.843 325H275.143C274.923 325 274.763 325.18 274.763 325.38V338.62ZM277.363 331.48V327.46H279.763C280.883 327.46 281.743 328.3 281.743 329.4C281.743 330.58 280.883 331.48 279.763 331.48H277.363ZM285.72 332.02C285.72 336.02 288.9 339.2 292.9 339.2C296.9 339.2 300.1 336.02 300.1 332.02C300.1 328.02 296.9 324.8 292.9 324.8C288.9 324.8 285.72 328.02 285.72 332.02ZM288.32 332.02C288.32 329.5 290.38 327.4 292.9 327.4C295.42 327.4 297.5 329.5 297.5 332.02C297.5 334.54 295.42 336.6 292.9 336.6C290.38 336.6 288.32 334.54 288.32 332.02ZM302.673 338.62C302.673 338.82 302.833 339 303.053 339H304.893C305.093 339 305.273 338.82 305.273 338.62V333.52H307.493L310.153 338.82C310.193 338.9 310.293 339 310.473 339H312.573C312.913 339 313.053 338.68 312.913 338.42L310.173 333.34C311.913 332.64 313.133 331.14 313.133 329.3C313.133 326.92 311.173 325 308.773 325H303.053C302.833 325 302.673 325.18 302.673 325.38V338.62ZM305.293 331.38V327.4H308.553C309.613 327.4 310.533 328.28 310.533 329.34C310.533 330.46 309.613 331.38 308.553 331.38H305.293ZM318.136 338.62C318.136 338.82 318.316 339 318.516 339H320.376C320.576 339 320.756 338.82 320.756 338.62V327.4H323.816C324.036 327.4 324.196 327.22 324.196 327.02V325.38C324.196 325.18 324.036 325 323.816 325H315.076C314.856 325 314.696 325.18 314.696 325.38V327.02C314.696 327.22 314.856 327.4 315.076 327.4H318.136V338.62ZM326.283 333.86C326.283 336.9 328.703 339.2 331.843 339.2C335.003 339.2 337.423 336.9 337.423 333.86V325.38C337.423 325.18 337.243 325 337.043 325H335.143C334.923 325 334.763 325.18 334.763 325.38V333.74C334.763 335.42 333.583 336.6 331.843 336.6C330.103 336.6 328.943 335.42 328.943 333.72V325.38C328.943 325.18 328.783 325 328.563 325H326.663C326.463 325 326.283 325.18 326.283 325.38V333.86ZM340.68 338.62C340.68 338.82 340.86 339 341.06 339H342.88C343.1 339 343.26 338.82 343.26 338.62V330.02H343.3L351.5 339.06C351.6 339.16 351.7 339.2 351.84 339.2H352.12C352.32 339.2 352.5 339.04 352.5 338.84V325.38C352.5 325.18 352.32 325 352.12 325H350.28C350.06 325 349.9 325.18 349.9 325.38V333.64H349.86L341.7 324.94C341.6 324.84 341.5 324.8 341.36 324.8H341.06C340.86 324.8 340.68 324.96 340.68 325.16V338.62ZM355.895 338.62C355.895 338.82 356.075 339 356.275 339H358.135C358.335 339 358.515 338.82 358.515 338.62V325.38C358.515 325.18 358.335 325 358.135 325H356.275C356.075 325 355.895 325.18 355.895 325.38V338.62ZM364.171 338.62C364.171 338.82 364.351 339 364.551 339H366.411C366.611 339 366.791 338.82 366.791 338.62V327.4H369.851C370.071 327.4 370.231 327.22 370.231 327.02V325.38C370.231 325.18 370.071 325 369.851 325H361.111C360.891 325 360.731 325.18 360.731 325.38V327.02C360.731 327.22 360.891 327.4 361.111 327.4H364.171V338.62ZM372.458 338.62C372.458 338.82 372.638 339 372.838 339H374.698C374.898 339 375.078 338.82 375.078 338.62V325.38C375.078 325.18 374.898 325 374.698 325H372.838C372.638 325 372.458 325.18 372.458 325.38V338.62ZM380.733 338.62C380.733 338.82 380.913 339 381.113 339H382.973C383.173 339 383.353 338.82 383.353 338.62V327.4H386.413C386.633 327.4 386.793 327.22 386.793 327.02V325.38C386.793 325.18 386.633 325 386.413 325H377.673C377.453 325 377.293 325.18 377.293 325.38V327.02C377.293 327.22 377.453 327.4 377.673 327.4H380.733V338.62ZM389.02 338.62C389.02 338.82 389.18 339 389.4 339H397.54C397.76 339 397.92 338.82 397.92 338.62V336.98C397.92 336.78 397.76 336.6 397.54 336.6H391.62V333.1H396.56C396.76 333.1 396.94 332.94 396.94 332.72V331.06C396.94 330.86 396.76 330.68 396.56 330.68H391.62V327.4H397.54C397.76 327.4 397.92 327.22 397.92 327.02V325.38C397.92 325.18 397.76 325 397.54 325H389.4C389.18 325 389.02 325.18 389.02 325.38V338.62ZM404.266 339.2C407.086 339.2 408.866 337.3 408.866 335.24C408.866 332.66 406.626 331.5 404.686 330.72C403.066 330.06 402.326 329.42 402.326 328.48C402.326 327.72 402.946 327.08 404.086 327.08C405.186 327.08 406.006 327.64 406.866 328.18C407.106 328.34 407.406 328.18 407.566 327.94L408.326 326.8C408.466 326.6 408.406 326.26 408.206 326.14C407.806 325.84 406.246 324.8 404.206 324.8C401.026 324.8 399.706 326.86 399.706 328.64C399.706 331 401.586 332.2 403.466 332.96C405.146 333.64 406.006 334.34 406.006 335.36C406.006 336.22 405.226 336.9 404.186 336.9C402.886 336.9 401.986 336.28 401.166 335.66C400.986 335.52 400.646 335.52 400.486 335.8L399.766 337.04C399.586 337.36 399.666 337.48 399.866 337.64C400.446 338.14 401.746 339.2 404.266 339.2Z" fill="white"/>
<defs>
<linearGradient id="paint0_linear_599_5035" x1="720" y1="0" x2="720" y2="450" gradientUnits="userSpaceOnUse">
<stop stop-color="#B5F6FD"/>
<stop offset="1" stop-color="#E3FBFF"/>
</linearGradient>
<linearGradient id="paint1_linear_599_5035" x1="104" y1="332" x2="460" y2="332" gradientUnits="userSpaceOnUse">
<stop stop-color="#FF3278"/>
<stop offset="1" stop-color="#F74432"/>
</linearGradient>
<clipPath id="clip0_599_5035">
<rect width="324" height="384" fill="white" transform="translate(1015 33)"/>
</clipPath>
</defs>
</svg>
